{"glyphs":{"0":{"ha":876,"x_min":121,"x_max":858,"o":"m 446 94 q 534 111 495 94 q 604 155 573 127 q 655 220 634 182 q 691 299 677 257 q 712 387 705 342 q 718 475 718 432 q 671 653 718 596 q 529 709 623 709 q 408 678 458 709 q 326 595 358 647 q 277 478 293 544 q 259 342 261 412 q 264 253 256 298 q 293 174 271 209 q 352 116 314 138 q 446 94 389 94 m 544 824 q 688 797 629 824 q 786 724 748 770 q 841 617 823 677 q 858 490 858 557 q 847 367 858 429 q 813 249 836 306 q 755 143 790 193 q 673 58 720 94 q 565 1 625 22 q 432 -20 505 -20 q 284 9 344 -20 q 189 89 224 39 q 137 204 153 139 q 121 340 121 269 q 133 458 121 399 q 169 571 145 517 q 227 671 192 625 q 309 751 262 717 q 415 805 356 785 q 544 824 473 824 z "},"1":{"ha":468,"x_min":145,"x_max":456,"o":"m 210 0 l 307 686 l 168 640 l 145 740 l 321 799 l 456 799 l 344 0 l 210 0 z "},"2":{"ha":685,"x_min":69,"x_max":679,"o":"m 546 589 q 534 643 546 621 q 502 677 522 664 q 455 696 482 690 q 399 701 429 701 q 347 695 374 701 q 293 681 319 689 q 243 664 267 673 q 201 650 220 656 l 174 752 q 222 773 195 762 q 283 794 250 785 q 354 809 317 803 q 431 815 391 815 q 533 801 487 815 q 611 760 578 787 q 661 692 644 732 q 679 601 679 652 q 629 435 679 515 q 471 273 578 355 l 272 121 l 591 121 l 575 0 l 69 0 l 83 109 l 317 296 q 406 371 364 334 q 479 444 448 408 q 528 517 510 481 q 546 589 546 553 z "},"3":{"ha":650,"x_min":19,"x_max":635,"o":"m 294 427 q 399 443 357 427 q 464 484 440 459 q 498 538 488 508 q 507 595 507 568 q 472 677 507 652 q 358 701 436 701 q 308 697 334 701 q 257 687 282 693 q 208 672 231 680 q 165 656 184 664 l 138 762 q 180 780 155 770 q 235 799 205 790 q 298 813 265 808 q 363 819 332 819 q 464 808 415 819 q 551 773 513 798 q 612 710 589 749 q 635 615 635 671 q 615 507 635 553 q 564 432 595 462 q 498 388 534 402 q 434 372 463 373 q 490 351 461 366 q 544 312 519 336 q 583 252 568 288 q 599 169 599 216 q 573 47 599 102 q 502 -47 547 -7 q 394 -110 456 -87 q 258 -132 332 -132 q 128 -114 189 -132 q 19 -71 68 -97 l 63 33 q 94 21 73 28 q 143 6 115 14 q 204 -7 171 -2 q 273 -13 237 -13 q 365 2 328 -13 q 424 42 401 18 q 455 96 446 66 q 464 156 464 126 q 419 266 464 228 q 279 313 374 304 l 294 427 z "},"4":{"ha":731,"x_min":63,"x_max":715,"o":"m 562 814 l 690 794 l 602 163 l 715 163 l 699 54 l 585 54 l 557 -156 l 429 -171 l 462 54 l 63 54 l 63 165 l 562 814 m 198 161 l 477 161 l 551 627 l 198 161 z "},"5":{"ha":708,"x_min":74,"x_max":697,"o":"m 675 225 q 648 78 675 144 q 571 -37 621 11 q 454 -110 522 -84 q 304 -136 385 -136 q 182 -122 243 -136 q 74 -83 121 -108 l 96 31 q 118 20 100 28 q 165 4 136 12 q 232 -11 194 -5 q 315 -18 270 -18 q 410 -3 366 -18 q 486 40 454 12 q 536 113 517 69 q 554 214 554 156 q 395 359 554 359 q 345 355 371 359 q 296 345 319 351 q 251 331 272 338 q 216 317 231 323 l 149 378 l 224 798 l 697 798 l 682 681 l 318 681 l 268 428 q 288 438 275 432 q 317 450 300 444 q 353 462 334 456 q 391 471 372 467 q 427 476 410 474 q 458 477 444 477 q 621 405 566 471 q 675 225 675 339 z "},"6":{"ha":806,"x_min":132,"x_max":774,"o":"m 286 361 q 279 341 282 352 q 274 319 277 331 q 266 268 269 298 q 262 199 262 238 q 424 10 262 10 q 523 35 481 10 q 591 100 565 60 q 630 187 618 139 q 643 281 643 235 q 632 349 643 319 q 602 399 621 379 q 556 429 583 418 q 498 439 529 439 q 410 427 449 439 q 342 400 371 414 q 286 361 310 382 m 774 284 q 765 193 774 239 q 735 103 755 146 q 685 22 715 60 q 614 -45 655 -16 q 523 -90 574 -73 q 410 -106 471 -106 q 288 -82 340 -106 q 201 -14 236 -58 q 150 93 167 31 q 132 231 132 155 q 152 382 132 309 q 208 523 172 456 q 294 649 244 590 q 405 755 344 707 q 534 839 465 803 q 677 897 604 875 l 694 779 q 588 742 644 768 q 479 676 532 716 q 384 583 427 636 q 316 465 340 530 q 402 524 351 502 q 517 545 454 545 q 627 526 579 545 q 708 472 675 507 q 758 389 741 437 q 774 284 774 341 z "},"7":{"ha":618,"x_min":74,"x_max":684,"o":"m 656 797 l 684 703 l 191 -157 l 74 -96 l 529 677 l 112 677 l 120 797 l 656 797 z "},"8":{"ha":782,"x_min":104,"x_max":782,"o":"m 505 795 q 411 778 448 795 q 353 734 374 761 q 324 674 332 707 q 316 608 316 641 q 353 511 316 542 q 463 471 389 479 q 551 494 515 477 q 609 538 587 511 q 643 599 632 564 q 653 676 653 634 q 505 795 652 795 m 449 381 q 372 361 405 375 q 317 327 340 347 q 279 282 294 307 q 257 234 265 258 q 246 184 249 209 q 243 140 243 160 q 281 46 243 75 q 397 18 320 18 q 478 27 441 18 q 544 58 516 36 q 587 119 571 81 q 602 216 602 157 q 563 330 602 288 q 449 381 525 372 m 189 611 q 209 722 188 669 q 270 814 229 774 q 373 879 311 854 q 516 903 435 903 q 624 889 575 903 q 708 848 673 875 q 762 781 743 821 q 782 690 781 742 q 772 613 782 648 q 746 551 762 578 q 710 502 730 523 q 667 466 689 481 q 625 440 646 450 q 587 426 604 431 q 604 420 591 425 q 634 405 617 415 q 668 379 650 395 q 702 339 686 363 q 727 284 717 316 q 736 212 736 253 q 711 82 737 140 q 639 -16 686 24 q 527 -78 592 -56 q 385 -100 462 -100 q 277 -87 328 -100 q 188 -47 227 -74 q 127 21 150 -20 q 104 120 104 63 q 120 225 103 176 q 166 314 137 275 q 236 382 196 353 q 321 426 276 410 q 276 448 299 434 q 233 485 252 463 q 201 538 214 507 q 189 611 189 569 z "},"9":{"ha":775,"x_min":119,"x_max":766,"o":"m 608 351 q 615 379 611 360 q 624 420 620 397 q 630 468 628 443 q 632 515 633 493 q 471 705 631 705 q 372 680 413 705 q 303 615 330 654 q 264 528 277 576 q 252 435 252 479 q 262 367 252 396 q 292 318 273 338 q 336 289 311 299 q 392 278 361 279 q 426 279 408 277 q 459 285 443 281 q 553 316 513 296 q 608 351 593 336 m 119 429 q 129 518 119 472 q 157 607 138 564 q 206 689 176 650 q 276 758 236 728 q 368 804 316 787 q 482 821 419 821 q 604 800 551 821 q 692 741 656 780 q 746 647 728 703 q 766 521 765 591 q 749 357 766 437 q 700 206 732 278 q 619 72 667 134 q 510 -41 572 9 q 375 -127 449 -91 q 217 -181 302 -163 l 199 -63 q 308 -28 252 -52 q 416 34 364 -4 q 510 125 467 72 q 578 249 553 178 q 380 170 497 170 q 272 189 320 170 q 189 241 223 207 q 137 322 155 275 q 119 429 119 370 z "},"\u0000":{"ha":1291,"x_min":0,"x_max":0,"o":""},"\r":{"ha":433,"x_min":0,"x_max":0,"o":""}," ":{"ha":316,"x_min":0,"x_max":0,"o":""},"!":{"ha":414,"x_min":57,"x_max":398,"o":"m 398 1074 l 233 296 l 149 296 l 210 1074 l 398 1074 m 260 0 l 57 0 l 88 221 l 291 221 l 260 0 z "},"\"":{"ha":560,"x_min":212,"x_max":473,"o":"m 303 1075 l 473 1075 l 378 674 l 296 674 l 303 1075 m 212 1075 l 389 1075 l 294 674 l 217 674 l 212 1075 z "},"#":{"ha":804,"x_min":93,"x_max":764,"o":"m 469 312 l 309 312 l 251 80 l 154 80 l 211 312 l 93 312 l 105 385 l 226 385 l 279 598 l 157 598 l 170 670 l 296 670 l 355 905 l 452 905 l 392 670 l 553 670 l 611 903 l 709 903 l 649 670 l 764 670 l 749 598 l 634 598 l 580 385 l 701 385 l 689 312 l 564 312 l 509 80 l 411 80 l 469 312 m 323 385 l 481 385 l 536 598 l 378 598 l 323 385 z "},"$":{"ha":795,"x_min":65,"x_max":730,"o":"m 699 255 q 671 133 699 185 q 595 46 643 81 q 484 -7 547 11 q 349 -24 420 -24 l 332 -121 l 269 -121 l 286 -21 q 168 3 224 -16 q 65 45 112 22 l 112 157 q 131 147 112 157 q 178 125 150 137 q 240 104 207 113 q 304 94 274 94 l 364 429 q 298 460 327 447 q 262 478 270 473 q 203 517 230 496 q 158 562 177 537 q 129 618 139 587 q 118 689 118 649 q 132 768 118 733 q 170 830 146 803 q 225 877 193 857 q 295 908 258 896 q 371 927 332 921 q 449 934 410 933 l 467 1037 l 527 1037 l 509 933 q 587 924 548 933 q 657 905 626 916 q 709 886 689 895 q 730 878 729 878 l 686 773 q 639 788 665 780 q 586 804 613 797 q 533 817 559 812 q 490 822 508 822 l 441 535 q 471 523 454 530 q 502 509 488 515 q 590 461 553 485 q 652 410 627 438 q 688 344 676 381 q 699 255 699 307 m 429 824 q 354 815 389 823 q 294 793 319 808 q 255 755 269 779 q 241 699 241 732 q 250 651 241 673 q 288 608 258 629 q 327 583 300 597 q 384 555 353 569 l 429 824 m 370 92 q 456 101 418 93 q 521 128 494 110 q 561 175 547 146 q 575 244 575 203 q 569 297 575 273 q 546 340 563 321 q 499 377 529 360 q 422 410 469 394 l 370 92 z "},"%":{"ha":1220,"x_min":136,"x_max":1084,"o":"m 839 76 q 898 90 873 76 q 940 127 923 104 q 967 180 957 151 q 984 239 978 210 q 991 297 989 269 q 993 347 993 326 q 971 434 993 401 q 895 466 949 466 q 842 453 865 466 q 802 419 819 440 q 775 370 785 397 q 758 312 764 342 q 749 253 751 282 q 747 199 747 223 q 839 76 747 76 m 479 855 q 476 904 479 880 q 461 947 472 928 q 431 978 450 966 q 382 990 412 990 q 309 964 338 990 q 263 898 281 938 q 239 812 246 859 q 233 725 233 766 q 257 629 233 659 q 329 598 281 598 q 380 610 358 598 q 419 643 403 623 q 448 689 436 663 q 466 744 459 715 q 476 802 473 773 q 479 855 479 830 m 272 -28 l 863 1133 l 944 1093 l 351 -65 l 272 -28 m 1084 345 q 1078 262 1084 304 q 1059 180 1072 220 q 1026 104 1046 140 q 979 42 1006 68 q 918 0 952 16 q 842 -16 884 -16 q 749 2 787 -16 q 690 49 712 20 q 657 116 667 78 q 648 195 648 155 q 651 254 648 218 q 665 330 655 290 q 693 409 675 370 q 739 481 711 449 q 807 533 767 513 q 902 553 847 553 q 988 536 954 553 q 1045 490 1023 519 q 1075 424 1066 462 q 1084 345 1084 386 m 575 867 q 571 801 575 838 q 555 724 566 764 q 525 646 544 684 q 477 577 506 608 q 410 529 449 547 q 318 511 370 511 q 230 530 265 511 q 174 580 195 549 q 144 649 153 611 q 136 726 136 688 q 141 805 136 764 q 160 884 147 845 q 193 958 173 923 q 241 1019 213 992 q 305 1060 269 1045 q 387 1076 342 1076 q 475 1059 439 1076 q 533 1013 511 1042 q 565 947 555 985 q 575 867 575 909 z "},"&":{"ha":1066,"x_min":74,"x_max":981,"o":"m 450 612 q 468 618 459 615 q 486 624 477 621 q 545 651 517 636 q 594 687 573 666 q 628 735 616 707 q 640 803 641 764 q 607 879 640 852 q 511 905 573 905 q 427 890 458 905 q 379 855 395 876 q 358 811 363 834 q 353 770 353 788 q 364 720 353 744 q 391 675 375 696 q 423 639 407 655 q 450 612 439 623 m 758 820 q 742 724 758 769 q 695 642 726 679 q 620 576 664 605 q 521 529 576 547 l 766 277 q 819 404 795 340 q 861 536 842 468 l 974 535 q 949 441 964 489 q 917 349 934 393 q 881 265 899 304 q 847 197 863 226 l 981 71 l 907 -12 l 788 109 q 738 55 767 80 q 665 12 709 31 q 562 -16 622 -6 q 418 -26 501 -26 q 280 -11 342 -26 q 172 37 217 5 q 100 115 126 68 q 74 222 75 161 q 91 333 73 280 q 144 431 109 387 q 230 511 179 476 q 345 567 280 546 q 307 607 328 585 q 269 655 287 629 q 240 710 252 681 q 228 772 228 740 q 242 852 227 810 q 292 929 257 894 q 384 988 327 964 q 522 1011 440 1011 q 622 997 578 1011 q 696 958 666 983 q 742 898 726 933 q 758 820 758 863 m 412 486 q 326 454 364 475 q 259 401 287 432 q 217 333 232 371 q 202 251 202 294 q 218 176 202 208 q 264 124 235 144 q 337 93 294 103 q 432 83 379 83 q 530 88 488 83 q 605 106 572 94 q 662 138 637 118 q 709 185 687 157 l 412 486 z "},"'":{"ha":384,"x_min":186,"x_max":372,"o":"m 186 1072 l 372 1072 l 247 660 l 186 660 l 186 1072 z "},"(":{"ha":538,"x_min":167,"x_max":579,"o":"m 579 1017 q 483 908 532 972 q 394 757 434 844 q 330 562 355 671 q 304 321 304 453 q 315 179 304 241 q 344 70 326 117 q 384 -12 361 22 q 427 -71 406 -47 l 347 -155 q 264 -62 298 -118 q 209 58 231 -7 q 177 191 187 123 q 167 321 167 259 q 189 543 167 433 q 256 755 212 653 q 368 945 301 857 q 523 1103 435 1034 l 579 1017 z "},")":{"ha":541,"x_min":48,"x_max":460,"o":"m 48 -71 q 170 75 118 -6 q 255 247 221 156 q 306 433 289 337 q 322 624 322 529 q 309 775 322 709 q 277 888 296 840 q 237 967 258 936 q 201 1017 216 999 l 281 1103 q 362 1008 328 1062 q 418 892 397 954 q 450 762 439 830 q 460 625 460 694 q 436 401 460 512 q 368 188 413 290 q 257 -1 323 87 q 104 -155 191 -89 l 48 -71 z "},"*":{"ha":618,"x_min":99,"x_max":627,"o":"m 376 898 l 494 1080 l 566 1034 l 433 850 l 627 850 l 614 767 l 425 767 l 500 591 l 409 545 l 345 712 l 231 545 l 159 591 l 290 772 l 99 772 l 112 857 l 302 857 l 230 1031 l 317 1078 l 376 898 z "},"+":{"ha":682,"x_min":129,"x_max":642,"o":"m 626 343 l 433 343 l 401 115 l 288 115 l 321 343 l 129 343 l 144 454 l 336 454 l 370 682 l 480 682 l 448 454 l 642 454 l 626 343 z "},",":{"ha":416,"x_min":58,"x_max":300,"o":"m 66 0 l 98 221 l 300 221 l 270 1 q 250 -73 266 -41 q 211 -126 235 -104 q 156 -162 187 -148 q 90 -187 125 -177 l 58 -119 q 125 -75 98 -106 q 159 0 153 -45 l 66 0 z "},"-":{"ha":593,"x_min":123,"x_max":553,"o":"m 538 361 l 123 361 l 138 466 l 553 466 l 538 361 z "},".":{"ha":374,"x_min":66,"x_max":300,"o":"m 270 0 l 66 0 l 98 221 l 300 221 l 270 0 z "},"/":{"ha":663,"x_min":58,"x_max":739,"o":"m 58 -61 l 626 1176 l 739 1128 l 163 -115 l 58 -61 z "},":":{"ha":498,"x_min":106,"x_max":395,"o":"m 167 437 l 199 643 l 395 643 l 363 437 l 167 437 m 106 0 l 138 207 l 334 207 l 303 0 l 106 0 z "},";":{"ha":515,"x_min":113,"x_max":397,"o":"m 121 0 l 151 221 l 353 221 l 323 11 q 302 -68 319 -35 q 260 -125 285 -101 q 204 -163 235 -149 q 143 -187 174 -178 l 113 -119 q 179 -75 152 -106 q 214 0 207 -45 l 121 0 m 170 437 l 201 643 l 397 643 l 366 437 l 170 437 z "},"<":{"ha":681,"x_min":149,"x_max":622,"o":"m 599 584 l 279 393 l 547 200 l 524 43 l 149 323 l 168 458 l 622 739 l 599 584 z "},"=":{"ha":658,"x_min":120,"x_max":557,"o":"m 542 304 l 128 304 l 144 414 l 557 414 l 542 304 m 534 245 l 120 245 l 136 355 l 549 355 l 534 245 z "},">":{"ha":644,"x_min":118,"x_max":590,"o":"m 194 581 l 214 739 l 590 458 l 573 327 l 118 47 l 141 209 l 444 397 l 194 581 z "},"?":{"ha":718,"x_min":111,"x_max":708,"o":"m 570 815 q 531 899 570 874 q 410 924 492 924 q 357 919 384 924 q 303 908 330 915 q 250 892 276 901 q 201 874 224 883 l 169 986 q 224 1008 194 997 q 289 1027 255 1019 q 360 1041 323 1036 q 435 1046 397 1046 q 561 1030 509 1046 q 646 986 613 1015 q 693 919 678 958 q 708 835 708 880 q 688 724 708 775 q 636 630 669 673 q 564 553 604 587 q 481 492 523 519 q 401 447 439 466 q 334 418 362 429 l 315 303 l 186 303 l 208 485 l 231 496 q 256 508 241 501 q 289 524 271 515 q 381 572 332 544 q 472 635 430 600 q 542 716 514 671 q 570 815 570 761 m 314 0 l 111 0 l 142 221 l 345 221 l 314 0 z "},"@":{"ha":1297,"x_min":139,"x_max":1218,"o":"m 743 684 q 677 671 709 682 q 616 641 646 659 q 563 596 587 622 q 520 541 538 571 q 486 461 498 503 q 474 373 474 420 q 503 281 475 309 q 585 253 530 253 q 676 275 636 253 q 747 337 716 296 q 796 417 774 372 q 831 521 817 463 l 870 675 q 846 680 860 677 q 817 684 832 682 q 786 688 802 686 q 759 689 771 689 q 743 684 750 689 m 867 156 q 812 174 829 156 q 795 229 795 192 q 797 250 795 237 q 803 280 799 264 q 811 315 806 296 q 820 351 815 333 q 785 279 806 315 q 733 215 764 243 q 660 170 702 187 q 561 153 618 153 q 479 167 515 153 q 418 208 444 181 q 379 274 393 235 q 365 363 366 313 q 381 477 364 423 q 427 577 397 531 q 495 661 456 623 q 581 726 535 699 q 669 766 623 752 q 762 780 715 780 q 793 778 774 780 q 833 771 812 775 q 876 762 854 767 q 915 751 897 757 q 943 740 932 745 q 954 729 954 734 q 956 719 954 728 q 962 699 959 709 q 968 679 966 688 q 971 669 971 669 l 871 249 q 949 268 915 252 q 1009 312 983 285 q 1052 373 1034 338 q 1081 446 1069 408 q 1097 524 1092 484 q 1101 601 1101 564 q 1077 734 1101 677 q 1008 828 1053 791 q 899 884 963 865 q 753 903 834 903 q 623 883 684 903 q 509 830 562 864 q 413 749 456 795 q 338 648 370 703 q 276 504 297 580 q 256 348 256 428 q 282 214 257 273 q 356 115 308 155 q 473 53 404 74 q 630 31 542 31 q 731 40 686 31 q 812 61 777 48 q 874 90 848 75 q 920 120 901 106 q 926 104 920 116 q 938 80 932 93 q 950 57 945 68 q 957 41 956 45 q 905 4 937 24 q 830 -34 873 -16 q 730 -62 786 -51 q 607 -74 675 -74 q 416 -46 502 -74 q 269 35 330 -18 q 174 164 208 88 q 139 336 140 241 q 159 502 138 420 q 220 659 180 585 q 315 798 259 734 q 441 908 372 862 q 595 983 514 957 q 767 1009 676 1009 q 943 984 861 1009 q 1086 909 1025 959 q 1182 784 1147 859 q 1218 608 1217 709 q 1209 499 1219 554 q 1179 395 1199 445 q 1128 301 1158 345 q 1060 225 1099 258 q 972 175 1021 193 q 867 156 924 156 z "},"A":{"ha":893,"x_min":18,"x_max":874,"o":"m 595 951 l 484 706 l 318 341 l 678 341 l 627 700 l 595 951 m 513 1076 l 709 1076 l 874 0 l 728 0 l 691 262 l 284 262 l 165 0 l 18 0 l 513 1076 z "},"B":{"ha":867,"x_min":85,"x_max":877,"o":"m 456 627 q 584 638 530 627 q 675 673 639 649 q 729 738 711 698 q 747 837 747 778 q 726 899 747 874 q 668 937 705 923 q 581 957 631 951 q 472 963 530 963 l 367 963 l 319 627 l 456 627 m 381 113 q 523 124 460 113 q 630 162 586 135 q 696 237 673 190 q 720 355 720 284 q 711 419 720 389 q 675 473 703 450 q 594 510 647 496 q 452 524 541 524 l 305 524 l 247 113 l 381 113 m 859 356 q 830 208 859 274 q 739 96 800 142 q 584 25 678 50 q 361 0 490 0 l 85 0 l 238 1076 l 473 1076 q 660 1062 583 1076 q 785 1021 737 1048 q 855 951 833 993 q 877 853 877 909 q 863 748 877 793 q 819 671 848 703 q 745 619 789 640 q 640 586 700 598 q 805 514 749 570 q 859 356 860 457 z "},"C":{"ha":807,"x_min":134,"x_max":920,"o":"m 134 367 q 148 551 134 460 q 192 723 163 642 q 263 872 220 804 q 363 990 307 940 q 492 1067 420 1040 q 648 1095 563 1095 q 717 1091 684 1095 q 782 1079 750 1087 q 848 1061 814 1072 q 920 1036 882 1050 l 869 918 q 759 956 811 941 q 652 971 707 971 q 536 948 589 971 q 443 885 484 926 q 372 788 402 844 q 323 667 342 732 q 294 527 303 601 q 284 378 284 454 q 341 165 284 234 q 510 96 398 96 q 566 102 536 96 q 628 119 595 109 q 693 142 660 129 q 758 170 726 155 l 783 56 q 714 25 749 40 q 644 -2 680 10 q 570 -20 608 -14 q 489 -27 531 -27 q 225 72 317 -27 q 134 367 134 172 z "},"D":{"ha":930,"x_min":85,"x_max":943,"o":"m 795 673 q 739 893 795 823 q 567 963 684 963 l 369 963 l 247 112 l 455 112 q 578 139 526 112 q 668 210 631 165 q 731 312 706 254 q 770 433 755 370 q 789 557 784 495 q 795 673 795 620 m 943 674 q 935 534 943 609 q 904 384 926 458 q 846 239 883 309 q 754 117 810 170 q 622 32 699 64 q 443 0 545 0 l 85 0 l 238 1076 l 581 1076 q 736 1052 669 1076 q 850 978 804 1027 q 920 853 896 929 q 943 674 943 778 z "},"E":{"ha":752,"x_min":85,"x_max":857,"o":"m 714 0 l 85 0 l 237 1076 l 857 1076 l 840 963 l 366 963 l 317 615 l 734 615 l 720 518 l 303 518 l 245 112 l 732 112 l 714 0 z "},"F":{"ha":736,"x_min":85,"x_max":850,"o":"m 304 512 l 231 0 l 85 0 l 238 1076 l 850 1076 l 835 958 l 367 958 l 317 609 l 742 609 l 729 512 l 304 512 z "},"G":{"ha":950,"x_min":134,"x_max":954,"o":"m 134 376 q 146 540 134 456 q 185 704 159 624 q 254 854 212 783 q 356 979 296 926 q 493 1064 415 1033 q 669 1095 571 1095 q 806 1073 734 1095 q 954 1003 878 1052 l 901 896 q 775 950 833 930 q 659 971 717 971 q 528 943 585 971 q 430 869 472 916 q 360 763 388 823 q 315 637 332 702 q 290 506 298 572 q 283 383 283 440 q 298 252 283 307 q 343 163 313 197 q 416 112 372 128 q 517 96 460 96 q 616 109 572 96 q 693 143 661 121 q 746 194 726 165 q 774 254 767 222 q 775 262 775 258 q 777 270 776 266 l 802 458 l 555 458 l 570 562 l 944 562 l 865 0 l 781 0 l 779 111 q 741 64 764 89 q 682 20 717 40 q 600 -14 647 -1 q 493 -27 553 -27 q 226 72 319 -27 q 134 376 134 172 z "},"H":{"ha":966,"x_min":85,"x_max":1021,"o":"m 722 0 l 795 511 l 303 511 l 231 0 l 85 0 l 239 1076 l 384 1076 l 317 608 l 808 608 l 876 1076 l 1021 1076 l 867 0 l 722 0 z "},"I":{"ha":583,"x_min":84,"x_max":635,"o":"m 96 83 l 221 83 l 352 988 l 228 988 l 241 1076 l 635 1076 l 621 988 l 495 988 l 364 83 l 490 83 l 477 0 l 84 0 l 96 83 z "},"J":{"ha":485,"x_min":41,"x_max":537,"o":"m 41 43 q 131 67 94 54 q 193 97 168 81 q 234 134 218 113 q 259 180 249 154 q 274 239 269 206 q 285 312 279 271 l 393 1076 l 537 1076 l 436 354 q 415 233 427 288 q 386 134 404 178 q 342 56 368 90 q 278 -2 316 22 q 188 -40 240 -26 q 66 -61 136 -55 l 41 43 z "},"K":{"ha":829,"x_min":87,"x_max":958,"o":"m 806 1076 l 958 1076 l 547 542 l 601 443 l 848 0 l 690 0 l 415 498 l 302 498 l 233 0 l 87 0 l 238 1076 l 383 1076 l 315 591 l 433 591 l 806 1076 z "},"L":{"ha":711,"x_min":87,"x_max":704,"o":"m 690 0 l 87 0 l 238 1076 l 383 1076 l 248 112 l 704 112 l 690 0 z "},"M":{"ha":1200,"x_min":87,"x_max":1253,"o":"m 519 0 l 478 239 l 360 941 l 227 0 l 87 0 l 199 802 l 240 1076 l 460 1076 l 507 802 l 574 396 l 613 154 l 709 370 l 920 833 l 1031 1076 l 1253 1076 l 1200 682 l 1103 0 l 963 0 l 1096 943 l 733 133 l 672 0 l 519 0 z "},"N":{"ha":1022,"x_min":87,"x_max":1074,"o":"m 922 0 l 727 0 l 603 307 l 357 924 l 228 0 l 87 0 l 239 1076 l 435 1076 l 558 770 l 804 151 l 933 1076 l 1074 1076 l 922 0 z "},"O":{"ha":988,"x_min":134,"x_max":1001,"o":"m 1001 694 q 962 402 1001 534 q 854 174 924 269 q 690 26 785 79 q 483 -27 595 -27 q 338 -4 402 -27 q 228 68 273 20 q 158 189 182 116 q 134 361 134 262 q 151 561 134 466 q 200 738 168 656 q 278 885 232 819 q 380 998 323 951 q 505 1069 437 1044 q 648 1095 572 1095 q 807 1067 740 1095 q 917 987 873 1039 q 980 861 960 935 q 1001 694 1001 787 m 852 696 q 840 807 852 757 q 803 894 829 858 q 735 951 777 930 q 633 971 694 971 q 526 947 574 971 q 438 881 477 923 q 370 781 399 838 q 322 655 341 723 q 294 514 303 588 q 284 365 284 440 q 339 162 284 229 q 501 96 394 96 q 608 120 559 96 q 695 184 656 143 q 764 283 734 226 q 812 406 793 340 q 842 547 832 473 q 852 696 852 621 z "},"P":{"ha":834,"x_min":85,"x_max":903,"o":"m 399 535 q 569 550 500 535 q 682 597 639 566 q 744 679 725 629 q 764 798 764 729 q 743 887 764 854 q 684 937 722 920 q 596 958 647 954 q 485 963 545 963 l 368 963 l 308 535 l 399 535 m 239 1076 l 496 1076 q 685 1060 608 1076 q 811 1012 763 1044 q 881 930 859 980 q 903 812 903 880 q 865 624 902 699 q 760 506 828 550 q 596 444 692 462 q 382 427 500 427 l 291 427 l 231 0 l 85 0 l 239 1076 z "},"Q":{"ha":991,"x_min":134,"x_max":1004,"o":"m 286 414 q 287 341 284 375 q 294 279 289 308 q 365 140 312 184 q 509 96 418 96 q 639 126 583 96 q 734 210 694 157 q 800 333 774 263 q 839 481 825 403 q 853 586 848 536 q 857 682 857 637 q 801 901 857 830 q 632 971 745 971 q 518 947 568 971 q 430 881 468 922 q 366 784 392 840 q 322 667 339 728 q 296 540 304 605 q 286 414 288 475 m 1004 684 q 1001 600 1004 647 q 989 501 998 553 q 966 395 981 449 q 930 288 952 340 q 877 187 907 235 q 805 98 846 138 q 711 30 764 58 q 593 -13 659 1 l 785 -204 l 700 -288 l 434 -22 q 312 14 368 -14 q 217 89 257 41 q 156 210 178 138 q 134 381 134 282 q 139 487 134 430 q 156 603 144 543 q 188 722 168 662 q 237 836 208 781 q 305 938 266 890 q 395 1020 344 985 q 509 1075 446 1055 q 650 1095 572 1095 q 788 1074 724 1095 q 901 1003 852 1052 q 977 876 949 954 q 1004 684 1004 798 z "},"R":{"ha":873,"x_min":85,"x_max":899,"o":"m 653 0 q 667 106 661 60 q 678 186 673 152 q 686 243 682 220 q 691 282 689 266 q 694 309 693 298 q 696 327 695 319 q 687 391 696 365 q 651 449 677 429 q 578 477 625 468 q 506 491 547 487 q 409 495 464 495 l 302 495 l 230 0 l 85 0 l 239 1076 l 502 1076 q 605 1073 557 1076 q 695 1063 654 1071 q 777 1040 740 1055 q 841 998 814 1024 q 883 935 868 972 q 899 846 899 898 q 871 708 899 764 q 799 615 843 651 q 702 562 755 579 q 598 545 649 545 q 702 524 657 538 q 777 484 747 509 q 824 423 808 459 q 840 337 840 387 q 839 318 840 331 q 834 273 838 304 q 820 164 829 229 q 798 0 811 98 l 653 0 m 395 593 q 542 600 474 593 q 660 631 610 607 q 738 699 709 654 q 766 820 766 744 q 745 897 766 869 q 688 940 724 925 q 604 959 652 955 q 503 963 556 963 l 368 963 l 315 593 l 395 593 z "},"S":{"ha":840,"x_min":106,"x_max":852,"o":"m 819 895 q 777 920 804 907 q 717 945 750 933 q 646 964 684 956 q 574 971 609 971 q 458 959 506 971 q 381 924 411 947 q 337 870 351 902 q 323 799 323 838 q 332 752 323 772 q 356 718 340 733 q 396 691 372 703 q 452 667 420 679 l 611 605 q 696 562 659 586 q 758 507 733 538 q 796 437 783 476 q 809 349 809 398 q 785 207 809 275 q 709 86 760 138 q 581 4 659 35 q 396 -27 503 -27 q 303 -20 349 -27 q 219 -3 258 -14 q 151 19 180 7 q 106 43 121 31 l 136 168 q 189 139 161 152 q 248 116 216 125 q 315 101 279 106 q 393 96 351 96 q 595 151 529 96 q 662 321 662 206 q 654 371 662 349 q 631 410 646 393 q 594 440 616 427 q 544 465 572 454 l 373 537 q 289 580 327 556 q 205 663 233 614 q 178 772 178 711 q 209 908 178 848 q 292 1009 240 968 q 410 1073 343 1051 q 549 1095 477 1095 q 640 1089 596 1095 q 723 1073 684 1084 q 795 1049 762 1063 q 852 1019 827 1035 l 819 895 z "},"T":{"ha":696,"x_min":119,"x_max":848,"o":"m 832 963 l 549 963 l 414 0 l 269 0 l 404 963 l 119 963 l 136 1076 l 848 1076 l 832 963 z "},"U":{"ha":958,"x_min":125,"x_max":1020,"o":"m 490 89 q 609 109 559 89 q 693 174 659 128 q 751 296 728 220 q 791 485 774 372 l 875 1076 l 1020 1076 l 937 488 q 872 235 916 334 q 769 77 829 136 q 634 -4 709 19 q 475 -27 559 -27 q 327 -2 391 -27 q 217 73 262 23 q 149 196 172 123 q 125 367 125 270 q 125 384 125 375 q 126 405 125 393 q 129 430 127 416 q 133 465 130 445 q 145 557 138 504 q 162 684 152 611 q 185 854 172 758 q 216 1076 199 950 l 361 1076 q 330 851 344 949 q 307 679 317 753 q 289 550 296 604 q 277 454 281 495 q 272 418 274 433 q 270 391 271 403 q 269 371 269 380 q 269 354 269 362 q 280 245 269 294 q 317 162 291 197 q 385 108 342 127 q 490 89 427 89 z "},"V":{"ha":836,"x_min":46,"x_max":856,"o":"m 185 1075 l 312 128 l 710 1076 l 856 1076 l 394 0 l 203 0 l 46 1075 l 185 1075 z "},"W":{"ha":1341,"x_min":188,"x_max":1350,"o":"m 646 1074 l 849 1074 l 897 127 l 1211 1076 l 1350 1076 l 977 0 l 781 0 l 741 954 l 407 0 l 203 0 l 188 1076 l 320 1076 l 330 125 l 646 1074 z "},"X":{"ha":841,"x_min":15,"x_max":970,"o":"m 576 543 l 805 0 l 642 0 l 478 427 l 178 0 l 15 0 l 412 543 l 181 1076 l 334 1076 l 510 654 l 817 1076 l 970 1076 l 576 543 z "},"Y":{"ha":785,"x_min":142,"x_max":927,"o":"m 446 484 l 779 1073 l 927 1073 l 498 336 l 452 0 l 309 0 l 357 352 l 142 1073 l 280 1073 l 446 484 z "},"Z":{"ha":766,"x_min":60,"x_max":874,"o":"m 874 1073 l 858 956 l 224 113 l 740 113 l 725 0 l 60 0 l 79 134 l 705 963 l 195 963 l 210 1073 l 874 1073 z "},"[":{"ha":790,"x_min":178,"x_max":764,"o":"m 331 1068 l 764 1068 l 748 951 l 458 951 l 337 117 l 627 117 l 612 0 l 178 0 l 331 1068 z "},"\\":{"ha":625,"x_min":226,"x_max":572,"o":"m 348 1168 l 572 -88 l 452 -111 l 226 1148 l 348 1168 z "},"]":{"ha":766,"x_min":136,"x_max":720,"o":"m 288 1068 l 720 1068 l 570 0 l 136 0 l 151 117 l 441 117 l 561 951 l 273 951 l 288 1068 z "},"^":{"ha":991,"x_min":322,"x_max":724,"o":"m 541 655 l 635 655 l 724 277 l 613 277 l 568 492 l 447 277 l 322 277 l 541 655 z "},"_":{"ha":792,"x_min":62,"x_max":682,"o":"m 666 -73 l 62 -73 l 77 43 l 682 43 l 666 -73 z "},"`":{"ha":484,"x_min":85,"x_max":314,"o":"m 314 100 l 242 100 l 85 536 l 287 536 l 314 100 z "},"a":{"ha":763,"x_min":103,"x_max":772,"o":"m 772 711 l 669 0 l 566 0 l 562 129 q 521 70 545 96 q 469 25 498 43 q 408 -4 441 6 q 340 -14 375 -14 q 231 8 275 -14 q 157 69 186 31 q 116 160 129 108 q 103 272 103 212 q 117 386 103 326 q 157 503 131 446 q 220 612 183 560 q 303 702 257 663 q 402 764 349 741 q 516 787 456 787 q 580 781 547 787 q 644 766 613 775 q 700 746 674 757 q 741 727 725 736 l 772 711 m 238 281 q 272 137 238 181 q 377 92 307 92 q 437 103 408 92 q 489 132 465 115 q 532 168 513 149 q 562 204 551 188 l 630 660 q 618 665 628 661 q 592 672 608 668 q 558 679 577 675 q 522 682 540 682 q 453 667 487 682 q 387 625 418 652 q 328 561 355 598 q 281 479 301 524 q 250 384 261 435 q 238 281 238 334 z "},"b":{"ha":760,"x_min":87,"x_max":764,"o":"m 762 469 q 749 360 760 416 q 721 250 739 304 q 674 149 702 197 q 608 65 646 101 q 524 7 571 28 q 419 -14 477 -14 q 302 21 351 -14 q 224 122 253 56 l 182 0 l 87 0 l 244 1109 l 384 1124 l 310 610 q 352 675 325 643 q 411 731 378 707 q 481 772 444 756 q 555 787 519 787 q 657 763 616 787 q 721 699 697 739 q 754 605 745 659 q 764 493 764 552 q 763 482 764 488 q 762 469 762 476 m 418 92 q 495 116 462 92 q 552 178 528 140 q 590 263 575 216 q 615 356 606 310 q 627 441 624 401 q 631 503 631 480 q 628 569 631 537 q 616 626 626 602 q 585 666 606 651 q 528 681 564 681 q 484 672 507 681 q 439 650 461 664 q 396 617 417 635 q 356 579 375 599 q 322 539 338 559 q 294 503 306 519 l 292 489 l 250 193 q 262 174 250 190 q 295 140 273 158 q 347 107 316 121 q 418 92 378 92 z "},"c":{"ha":660,"x_min":104,"x_max":727,"o":"m 104 288 q 136 494 104 401 q 223 651 169 586 q 350 752 278 717 q 498 787 421 787 q 623 768 568 787 q 727 709 678 748 l 674 606 q 644 633 663 619 q 602 657 625 646 q 553 674 579 667 q 503 681 528 681 q 409 661 450 681 q 339 605 369 640 q 291 524 310 570 q 260 425 271 477 q 249 355 252 389 q 245 291 245 321 q 284 141 244 191 q 400 92 325 92 q 475 103 439 92 q 543 130 512 114 q 574 150 559 139 q 606 172 590 161 l 625 71 q 499 8 561 29 q 368 -14 437 -13 q 263 5 312 -13 q 179 60 215 23 q 123 153 144 96 q 104 288 103 210 z "},"d":{"ha":762,"x_min":102,"x_max":826,"o":"m 441 787 q 505 776 476 787 q 557 748 534 765 q 597 710 581 731 q 625 671 614 690 l 686 1107 l 826 1124 l 665 0 l 570 0 l 564 121 q 516 68 543 93 q 460 25 490 43 q 398 -3 431 7 q 332 -14 366 -14 q 225 9 269 -14 q 154 73 181 33 q 115 166 127 113 q 102 281 102 220 q 111 391 102 333 q 138 505 120 449 q 184 612 157 562 q 250 702 212 663 q 335 764 288 741 q 441 787 383 787 m 237 302 q 237 266 236 284 q 240 229 237 247 q 252 176 243 201 q 274 132 260 151 q 310 103 288 113 q 361 92 331 92 q 421 102 392 92 q 476 127 451 112 q 523 160 502 142 q 557 193 543 178 q 575 327 568 270 q 589 425 583 384 q 599 494 595 466 q 605 539 603 522 q 609 568 608 557 q 612 585 611 578 q 596 604 610 588 q 561 636 583 619 q 509 667 539 654 q 441 681 479 681 q 372 661 402 681 q 319 609 342 641 q 282 536 297 576 q 257 453 267 495 q 242 371 247 411 q 237 302 238 332 z "},"e":{"ha":724,"x_min":103,"x_max":739,"o":"m 267 451 q 415 468 355 460 q 514 484 475 476 q 574 499 553 492 q 605 512 595 506 q 617 525 615 519 q 618 535 618 530 q 586 647 618 609 q 496 684 554 684 q 416 668 453 684 q 349 622 378 652 q 299 548 319 591 q 267 451 278 505 m 643 64 q 517 6 583 26 q 391 -14 450 -14 q 267 7 321 -14 q 177 65 214 27 q 122 158 140 103 q 103 282 103 213 q 115 402 103 342 q 149 519 126 463 q 205 624 172 575 q 281 710 238 673 q 378 767 325 746 q 495 788 432 788 q 680 721 621 788 q 739 527 739 654 q 736 499 739 514 q 719 469 733 484 q 675 438 705 454 q 591 410 645 423 q 455 385 537 396 q 254 365 373 373 q 249 319 251 341 q 247 279 247 298 q 293 137 247 184 q 420 90 339 90 q 522 112 473 90 q 619 170 570 133 l 643 64 z "},"f":{"ha":511,"x_min":148,"x_max":647,"o":"m 514 966 q 477 958 494 966 q 445 929 460 950 q 418 870 430 907 q 397 774 406 833 l 594 774 l 586 708 l 387 708 l 286 0 l 151 0 l 251 708 l 148 708 l 156 774 l 260 774 q 303 928 278 868 q 361 1021 328 987 q 433 1068 393 1055 q 519 1081 472 1081 q 565 1073 543 1081 q 604 1056 587 1065 q 632 1038 621 1046 q 647 1028 643 1029 l 604 924 q 594 931 602 925 q 576 945 587 938 q 549 959 564 953 q 514 966 533 966 z "},"g":{"ha":751,"x_min":37,"x_max":850,"o":"m 286 530 q 297 474 286 498 q 327 435 309 451 q 367 411 345 419 q 411 402 389 403 q 498 417 462 405 q 556 451 534 430 q 590 502 579 473 q 600 570 600 532 q 589 620 600 598 q 559 657 578 642 q 515 679 541 671 q 461 687 490 687 q 381 676 414 687 q 326 644 347 665 q 295 595 305 624 q 286 530 286 566 m 153 -89 q 203 -165 153 -142 q 359 -189 252 -189 q 537 -158 478 -189 q 596 -61 596 -127 q 583 -15 596 -34 q 547 17 569 4 q 496 37 525 29 q 437 50 468 45 l 277 72 q 186 -8 218 33 q 153 -89 153 -50 m 721 568 q 652 399 721 465 q 446 300 583 332 l 275 262 q 206 218 213 248 q 238 185 212 197 q 299 166 264 174 q 373 155 334 159 q 444 146 412 151 q 564 119 513 134 q 648 79 614 103 q 699 22 682 56 q 715 -60 715 -12 q 700 -137 715 -103 q 658 -197 685 -172 q 595 -242 631 -223 q 516 -272 558 -260 q 429 -289 475 -283 q 338 -294 383 -294 q 214 -281 269 -294 q 119 -245 159 -269 q 58 -190 79 -222 q 37 -119 37 -157 q 57 -32 39 -67 q 102 29 75 3 q 130 52 115 41 q 159 73 145 63 q 183 89 173 82 q 197 98 194 96 q 186 103 197 98 q 160 116 174 107 q 132 137 146 125 q 115 163 119 149 q 104 229 102 192 q 139 299 106 271 q 239 343 172 326 l 309 361 q 257 378 283 366 q 209 413 231 391 q 174 463 188 434 q 161 530 161 492 q 180 630 161 583 q 237 712 199 677 q 328 767 274 747 q 453 787 382 787 q 552 775 509 787 q 634 736 595 764 q 702 764 671 753 q 763 780 732 774 q 806 789 785 786 q 850 794 827 792 l 846 677 l 679 677 q 711 615 702 641 q 721 568 721 589 z "},"h":{"ha":795,"x_min":87,"x_max":785,"o":"m 387 1126 l 321 661 q 381 716 353 692 q 440 756 410 740 q 501 780 469 772 q 570 787 532 787 q 661 774 621 787 q 728 734 701 761 q 770 666 755 707 q 785 569 785 625 q 783 526 785 548 q 777 479 781 504 l 710 0 l 569 0 l 637 480 q 640 510 639 494 q 642 543 642 526 q 614 647 642 612 q 530 681 587 681 q 460 670 494 681 q 397 645 426 660 q 345 612 368 629 q 311 583 323 595 l 228 0 l 87 0 l 243 1109 l 387 1126 z "},"i":{"ha":380,"x_min":119,"x_max":413,"o":"m 413 1009 q 404 969 412 988 q 384 937 397 951 q 355 916 372 924 q 319 907 338 907 q 269 929 288 907 q 250 981 250 950 q 258 1020 250 1002 q 279 1054 266 1039 q 309 1077 292 1068 q 345 1086 326 1086 q 394 1065 376 1086 q 413 1014 413 1045 l 413 1009 m 256 0 l 119 0 l 228 774 l 367 774 l 256 0 z "},"j":{"ha":412,"x_min":20,"x_max":448,"o":"m 448 1009 q 439 969 447 988 q 419 937 432 951 q 390 916 406 924 q 354 907 373 907 q 303 929 321 907 q 284 981 284 950 q 292 1020 284 1002 q 312 1054 299 1039 q 342 1077 326 1068 q 379 1086 359 1086 q 429 1065 410 1086 q 448 1014 448 1045 q 448 1011 448 1013 q 448 1009 448 1010 m 20 -153 q 86 -100 60 -127 q 131 -40 113 -73 q 159 34 149 -7 q 178 127 170 75 l 267 774 l 410 774 l 318 113 q 283 -19 308 41 q 223 -127 259 -80 q 142 -205 188 -174 q 45 -250 97 -237 l 20 -153 z "},"k":{"ha":707,"x_min":87,"x_max":801,"o":"m 264 287 l 222 0 l 87 0 l 244 1109 l 383 1124 l 284 423 l 645 774 l 801 774 l 430 414 l 692 0 l 550 0 l 334 342 l 264 287 z "},"l":{"ha":347,"x_min":102,"x_max":399,"o":"m 399 1124 l 238 0 l 102 0 l 260 1107 l 399 1124 z "},"m":{"ha":1162,"x_min":87,"x_max":1152,"o":"m 980 787 q 1111 737 1069 787 q 1152 583 1153 686 q 1152 570 1152 578 q 1148 542 1151 562 q 1141 486 1146 522 q 1128 386 1137 449 q 1106 229 1119 323 q 1074 0 1093 135 l 937 0 q 970 229 957 135 q 993 386 984 323 q 1006 485 1002 448 q 1014 540 1011 521 q 1016 566 1016 559 q 1017 578 1017 573 q 999 655 1017 629 q 938 681 982 681 q 825 641 880 681 q 726 510 770 600 l 724 491 l 652 0 l 518 0 q 548 207 535 119 q 569 358 560 294 q 584 464 578 421 q 594 537 590 507 q 597 564 597 555 q 597 579 597 572 q 580 656 597 631 q 519 681 563 681 q 462 669 492 681 q 403 635 432 658 q 346 581 374 613 q 295 506 319 548 q 293 495 294 500 q 292 484 293 490 l 222 0 l 87 0 l 197 774 l 299 774 l 305 616 q 355 690 326 658 q 416 744 383 722 q 485 777 449 766 q 555 787 520 787 q 679 745 637 787 q 726 610 721 702 q 777 694 747 660 q 841 749 807 728 q 911 779 875 770 q 980 787 947 787 z "},"n":{"ha":789,"x_min":87,"x_max":780,"o":"m 564 0 q 591 192 579 111 q 611 333 602 274 q 625 432 619 392 q 633 501 630 473 q 636 528 635 519 q 636 543 636 536 q 631 601 636 575 q 613 644 625 626 q 580 671 601 662 q 529 681 559 681 q 471 670 503 681 q 408 643 439 659 q 351 610 377 627 q 311 578 325 592 l 229 0 l 87 0 l 197 774 l 300 774 l 306 654 q 358 703 327 679 q 427 745 390 726 q 502 775 463 764 q 576 787 541 787 q 780 572 780 787 q 780 558 780 565 q 778 542 779 551 q 776 521 777 533 q 772 492 774 509 q 763 415 768 458 q 749 312 757 371 q 730 176 741 252 q 705 0 719 99 l 564 0 z "},"o":{"ha":783,"x_min":104,"x_max":787,"o":"m 104 291 q 114 407 104 348 q 145 522 124 467 q 199 625 167 576 q 277 710 232 673 q 378 767 321 746 q 506 787 435 787 q 640 763 586 787 q 726 696 694 738 q 773 600 759 654 q 787 486 787 545 q 758 294 787 385 q 677 135 730 203 q 550 26 625 66 q 384 -14 475 -14 q 268 7 319 -14 q 180 67 216 28 q 123 163 143 106 q 104 291 104 220 m 401 92 q 484 110 447 92 q 548 156 520 127 q 594 224 575 185 q 626 305 614 262 q 644 392 638 348 q 649 477 649 437 q 641 558 649 521 q 614 623 633 595 q 565 665 595 650 q 490 681 535 681 q 406 662 443 681 q 341 613 369 644 q 294 542 313 582 q 263 459 275 502 q 247 373 252 416 q 241 294 241 330 q 250 214 241 251 q 276 150 258 177 q 326 108 295 123 q 401 92 356 92 z "},"p":{"ha":794,"x_min":46,"x_max":798,"o":"m 798 484 q 788 366 798 425 q 758 251 778 306 q 709 147 739 195 q 639 63 679 99 q 548 7 599 28 q 436 -14 498 -14 q 377 -5 406 -14 q 324 20 349 4 q 280 57 300 36 q 248 103 261 79 l 190 -305 l 46 -317 l 201 774 l 309 774 l 315 649 q 368 704 340 678 q 427 748 396 729 q 489 777 457 766 q 551 787 520 787 q 652 770 606 787 q 730 716 697 753 q 780 622 762 680 q 798 484 798 564 m 656 460 q 651 555 659 511 q 611 650 640 620 q 532 681 581 681 q 426 657 481 681 q 316 584 370 633 l 261 195 q 296 156 275 174 q 343 123 318 137 q 395 100 368 109 q 444 92 421 92 q 518 110 486 92 q 573 157 550 127 q 612 224 597 186 q 637 303 628 262 q 651 385 647 344 q 656 460 656 426 z "},"q":{"ha":770,"x_min":117,"x_max":793,"o":"m 458 787 q 528 774 497 787 q 583 742 559 762 q 623 698 607 722 q 648 651 640 673 l 688 774 l 793 774 l 637 -313 l 500 -325 l 562 102 q 517 56 542 77 q 465 19 492 35 q 407 -5 437 4 q 349 -14 378 -14 q 239 12 283 -14 q 168 79 195 37 q 129 175 140 121 q 117 285 117 229 q 124 379 117 330 q 145 479 131 429 q 180 577 159 530 q 230 664 201 625 q 327 753 271 720 q 458 787 383 787 m 252 302 q 251 260 250 280 q 254 220 252 239 q 266 169 258 193 q 288 129 274 146 q 322 102 302 112 q 370 92 342 92 q 431 102 401 92 q 488 126 461 111 q 536 159 514 141 q 574 193 559 176 l 628 574 q 600 609 617 590 q 560 643 583 627 q 510 670 538 659 q 452 681 483 681 q 395 666 422 681 q 347 625 369 651 q 308 562 326 598 q 279 484 291 526 q 260 395 267 441 q 252 302 253 349 z "},"r":{"ha":490,"x_min":87,"x_max":578,"o":"m 306 615 q 355 685 328 654 q 411 739 382 717 q 469 773 440 761 q 521 786 497 785 q 556 785 539 787 q 578 783 574 783 l 564 656 q 546 660 560 658 q 519 663 532 663 q 455 649 487 663 q 395 616 424 636 q 340 572 366 595 q 297 527 315 548 l 222 0 l 87 0 l 197 774 l 300 774 l 306 615 z "},"s":{"ha":627,"x_min":56,"x_max":644,"o":"m 127 574 q 148 665 127 625 q 205 732 168 705 q 292 773 241 760 q 400 787 342 787 q 469 781 435 787 q 534 763 503 774 q 594 737 566 751 q 644 709 622 723 l 600 614 q 562 635 585 623 q 512 656 539 646 q 456 673 486 667 q 398 680 427 680 q 291 658 330 680 q 251 591 251 635 q 255 559 251 572 q 268 536 259 546 q 292 517 277 526 q 329 500 307 509 l 424 461 q 491 429 458 447 q 549 388 524 412 q 589 334 574 364 q 604 263 604 303 q 580 146 604 198 q 515 59 556 95 q 421 5 475 24 q 308 -14 367 -14 q 225 -6 264 -14 q 155 13 186 1 q 98 39 123 24 q 56 68 73 54 l 99 158 q 133 136 112 148 q 180 115 153 125 q 238 99 206 106 q 305 93 269 93 q 373 102 342 93 q 426 130 404 112 q 460 175 448 148 q 473 236 473 201 q 468 264 473 252 q 453 288 463 277 q 425 309 442 299 q 382 330 408 319 l 283 372 q 215 407 244 389 q 166 449 185 425 q 137 503 146 473 q 127 574 127 533 z "},"t":{"ha":515,"x_min":132,"x_max":551,"o":"m 342 92 q 390 101 366 92 q 435 121 414 110 q 481 149 459 134 l 526 67 q 508 55 526 67 q 460 28 490 43 q 393 1 431 14 q 314 -11 355 -11 q 253 0 280 -11 q 205 32 225 11 q 173 82 184 52 q 159 151 161 113 q 158 168 158 159 q 160 193 159 177 q 168 264 161 218 l 232 708 l 132 708 l 141 774 l 243 774 l 282 1050 l 421 1088 l 376 774 l 551 774 l 541 708 l 368 708 l 293 174 q 303 114 288 135 q 342 92 318 92 z "},"u":{"ha":795,"x_min":121,"x_max":806,"o":"m 336 774 q 330 734 334 765 q 320 661 326 704 q 307 565 314 617 q 293 461 300 513 q 280 361 286 409 q 269 278 273 313 q 265 249 267 260 q 264 235 264 238 q 274 163 263 192 q 311 111 285 128 q 375 92 336 93 q 480 117 430 93 q 582 189 531 142 l 665 774 l 806 774 l 697 0 l 594 0 q 590 59 592 31 q 586 118 587 87 q 473 20 532 54 q 349 -14 414 -14 q 121 213 121 -14 q 125 261 121 222 q 137 354 130 300 q 149 440 142 395 q 160 529 155 485 q 172 613 166 572 q 181 687 177 654 q 189 743 186 720 q 194 774 193 766 l 336 774 z "},"v":{"ha":655,"x_min":121,"x_max":741,"o":"m 404 0 l 246 0 l 121 774 l 250 774 l 341 122 l 602 774 l 741 774 l 404 0 z "},"w":{"ha":960,"x_min":123,"x_max":1046,"o":"m 600 0 l 567 631 l 345 0 l 200 0 l 123 773 l 247 773 l 296 134 l 514 773 l 647 773 l 690 135 l 920 773 l 1046 773 l 747 0 l 600 0 z "},"x":{"ha":680,"x_min":31,"x_max":772,"o":"m 389 295 l 181 0 l 31 0 l 334 387 l 144 774 l 298 774 l 414 487 l 623 774 l 772 774 l 469 387 l 650 0 l 504 0 l 389 295 z "},"y":{"ha":698,"x_min":43,"x_max":779,"o":"m 43 -210 q 88 -199 67 -205 q 126 -186 109 -194 q 224 -108 183 -162 q 298 23 265 -54 l 281 98 l 126 774 l 260 774 l 379 189 l 638 774 l 779 774 l 435 41 q 388 -58 413 -7 q 330 -154 362 -109 q 256 -237 297 -200 q 161 -294 214 -274 q 117 -307 140 -302 q 68 -315 94 -313 l 43 -210 z "},"z":{"ha":587,"x_min":56,"x_max":639,"o":"m 495 668 l 165 668 l 178 774 l 639 774 l 623 652 l 196 106 l 539 106 l 535 0 l 56 0 l 72 123 l 495 668 z "},"{":{"ha":607,"x_min":135,"x_max":571,"o":"m 392 680 q 371 585 385 626 q 337 515 357 545 q 294 468 318 486 q 243 439 271 449 q 306 381 281 422 q 332 268 331 339 q 327 203 332 235 q 322 137 323 172 q 324 82 321 109 q 334 36 327 56 q 354 3 342 16 q 387 -12 367 -9 q 395 -21 389 -18 q 407 -24 400 -23 q 419 -25 413 -25 q 427 -24 425 -24 l 410 -143 q 403 -143 408 -143 q 392 -144 398 -144 q 378 -145 385 -145 q 367 -146 372 -146 q 294 -126 327 -144 q 237 -75 260 -108 q 199 2 213 -43 q 186 102 186 47 q 191 178 186 139 q 198 258 197 217 q 197 289 198 275 q 193 316 195 303 q 135 375 180 375 l 153 503 q 223 550 196 503 q 264 700 250 597 q 290 817 273 767 q 330 903 307 867 q 381 962 353 939 q 440 998 409 985 q 505 1016 471 1011 q 571 1021 538 1021 l 555 903 q 519 902 536 903 q 486 894 502 901 q 457 874 471 888 q 431 836 443 861 q 409 773 419 811 q 392 680 399 735 z "},"|":{"ha":412,"x_min":157,"x_max":420,"o":"m 157 -77 l 288 1153 l 420 1153 l 290 -77 l 157 -77 z "},"}":{"ha":605,"x_min":80,"x_max":501,"o":"m 322 595 q 325 645 322 621 q 331 694 328 669 q 338 745 335 720 q 340 797 340 770 q 334 852 340 831 q 316 885 328 873 q 285 899 304 896 q 241 903 266 903 l 259 1021 q 335 1013 298 1021 q 400 981 372 1004 q 446 915 429 957 q 463 804 463 872 q 460 756 463 783 q 454 701 458 729 q 448 646 451 672 q 446 600 446 619 q 501 503 447 503 l 482 375 q 416 328 442 375 q 374 178 389 281 q 345 59 363 110 q 305 -27 328 9 q 256 -85 283 -62 q 200 -121 229 -108 q 140 -138 171 -134 q 80 -143 110 -143 l 98 -24 q 150 -19 127 -24 q 193 8 174 -14 q 228 75 212 31 q 255 199 243 120 q 278 295 263 254 q 313 365 294 336 q 355 412 332 394 q 400 439 378 431 q 343 492 363 455 q 322 595 322 529 z "},"~":{"ha":552,"x_min":58,"x_max":582,"o":"m 427 89 q 363 102 395 89 q 303 132 332 116 q 252 162 275 149 q 214 176 229 176 q 180 156 191 176 q 165 96 170 137 l 58 96 q 216 286 82 286 q 279 272 250 286 q 332 242 307 258 q 379 212 357 225 q 426 198 402 198 q 458 217 449 198 q 473 272 468 235 l 582 272 q 427 89 557 89 z "},"¡":{"ha":508,"x_min":127,"x_max":444,"o":"m 444 1072 q 442 1007 446 1042 q 427 935 439 968 q 400 876 415 902 q 314 882 355 876 q 239 898 273 888 q 257 995 243 949 q 288 1080 271 1041 q 367 1078 329 1080 q 444 1072 405 1076 m 127 1 l 286 800 l 370 800 l 315 1 l 127 1 z "},"¢":{"ha":728,"x_min":112,"x_max":715,"o":"m 112 300 q 133 473 111 390 q 198 623 155 557 q 304 734 241 690 q 447 793 366 779 q 475 797 460 795 q 505 800 490 799 l 520 894 l 591 891 l 576 794 q 651 777 615 789 q 715 749 686 764 l 703 638 q 691 645 701 640 q 662 659 680 651 q 617 673 644 666 q 559 683 591 680 l 475 99 q 527 109 500 102 q 575 123 553 115 l 621 139 l 618 33 q 538 5 579 18 q 458 -11 498 -7 l 444 -102 l 374 -98 l 387 -13 q 274 11 324 -11 q 188 72 223 32 q 132 169 152 111 q 112 300 113 226 m 486 687 q 474 686 483 686 q 459 685 465 686 q 369 648 408 682 q 304 561 330 614 q 264 439 277 507 q 250 301 250 372 q 290 157 251 205 q 405 101 329 109 l 486 687 z "},"£":{"ha":774,"x_min":84,"x_max":732,"o":"m 477 785 q 395 771 429 785 q 339 733 361 757 q 307 679 317 710 q 297 612 297 648 q 301 566 297 588 q 313 525 306 543 q 328 491 319 506 q 343 466 336 476 l 622 466 l 612 391 l 345 391 q 315 268 335 320 q 275 182 296 216 q 238 129 255 147 q 218 107 222 111 l 616 107 l 602 0 l 84 0 l 96 109 q 122 137 105 117 q 159 189 140 156 q 178 223 168 203 q 197 268 188 243 q 214 323 206 293 q 228 391 222 354 l 113 391 l 123 465 l 222 465 q 185 542 197 501 q 172 621 173 582 q 194 722 172 672 q 255 812 216 772 q 348 876 294 852 q 466 901 402 901 q 566 890 522 901 q 643 866 610 880 q 698 836 676 851 q 732 810 720 821 l 674 707 q 642 729 662 715 q 597 755 623 743 q 541 776 572 767 q 477 785 511 785 z "},"¤":{"ha":911,"x_min":113,"x_max":891,"o":"m 679 703 q 667 764 679 735 q 635 813 655 792 q 588 846 615 833 q 532 858 562 858 q 455 839 493 858 q 388 790 418 821 q 341 719 359 759 q 323 637 323 680 q 335 574 323 603 q 367 525 347 546 q 415 492 388 504 q 473 481 443 481 q 549 500 512 481 q 615 551 586 519 q 661 622 644 582 q 679 703 679 661 m 755 829 q 771 781 766 807 q 777 725 777 755 q 704 514 777 610 l 814 376 l 724 290 l 612 429 q 452 378 534 378 q 319 419 375 378 l 182 290 l 113 376 l 250 504 q 225 616 225 557 q 297 825 224 730 l 191 958 l 281 1043 l 388 910 q 550 963 464 963 q 688 916 628 963 l 823 1043 l 891 958 l 755 829 z "},"¥":{"ha":786,"x_min":130,"x_max":886,"o":"m 438 572 l 744 1076 l 886 1076 l 534 513 l 696 513 l 684 425 l 502 425 l 481 337 l 673 337 l 661 250 l 469 250 l 435 0 l 291 0 l 325 250 l 130 250 l 142 337 l 337 337 l 340 425 l 155 425 l 166 513 l 332 513 l 134 1076 l 275 1076 l 438 572 z "},"¦":{"ha":400,"x_min":110,"x_max":399,"o":"m 110 -24 l 176 455 l 313 455 l 248 -24 l 110 -24 m 195 610 l 266 1087 l 399 1087 l 334 610 l 195 610 z "},"§":{"ha":713,"x_min":70,"x_max":678,"o":"m 176 832 q 194 926 175 882 q 249 1001 213 969 q 335 1051 284 1033 q 451 1069 387 1069 q 524 1059 488 1069 q 592 1035 561 1048 q 646 1006 623 1021 q 678 983 669 991 l 623 880 q 539 935 587 914 q 443 956 492 956 q 369 946 398 956 q 322 922 339 937 q 297 888 304 907 q 290 850 290 869 q 294 830 290 839 q 308 812 298 821 q 334 794 318 803 q 374 777 350 786 l 467 739 q 553 696 518 718 q 608 653 587 675 q 638 605 629 630 q 647 551 647 580 q 630 460 648 496 q 587 400 613 423 q 531 367 561 378 q 475 351 500 355 q 601 188 600 300 q 586 96 601 140 q 540 19 571 53 q 461 -37 509 -15 q 348 -66 413 -60 q 318 -68 333 -67 q 286 -68 302 -69 q 238 -62 264 -67 q 189 -49 213 -57 q 142 -31 164 -41 q 103 -9 119 -21 q 84 3 92 -3 q 70 16 75 9 l 127 122 q 157 97 142 106 q 188 78 170 87 q 224 62 205 69 q 264 50 243 54 q 305 45 285 45 q 393 57 359 45 q 446 89 427 70 q 471 131 465 109 q 478 173 478 153 q 472 206 478 192 q 455 232 467 220 q 425 252 443 243 q 383 271 407 261 l 287 308 q 212 342 242 325 q 163 380 182 360 q 137 424 145 400 q 129 477 130 448 q 148 573 129 535 q 195 633 168 610 q 253 665 222 655 q 304 678 283 675 q 244 710 269 693 q 204 745 220 726 q 182 786 189 764 q 176 832 176 808 m 398 607 q 281 580 320 607 q 242 495 242 553 q 372 415 243 415 q 450 425 419 415 q 498 452 480 435 q 523 488 516 468 q 530 528 530 508 q 517 570 530 554 q 486 593 505 585 q 444 604 467 602 q 398 607 420 607 z "},"¨":{"ha":711,"x_min":113,"x_max":603,"o":"m 289 195 q 279 154 288 174 q 257 120 271 135 q 226 96 243 105 q 190 87 208 87 q 159 94 174 87 q 135 111 145 100 q 119 136 125 121 q 113 168 113 151 q 121 210 113 190 q 144 245 130 230 q 176 270 158 261 q 215 279 195 279 q 268 257 248 279 q 289 200 288 235 l 289 195 m 603 194 q 593 154 602 173 q 571 119 585 134 q 540 96 557 104 q 504 87 522 87 q 450 110 471 87 q 428 168 429 133 q 436 209 428 189 q 459 244 445 229 q 491 269 473 260 q 529 279 509 279 q 582 256 562 279 q 603 199 602 233 l 603 194 z "},"©":{"ha":1261,"x_min":103,"x_max":1185,"o":"m 584 76 q 710 95 648 76 q 828 149 772 114 q 929 232 883 183 q 1009 341 976 281 q 1062 470 1043 401 q 1080 614 1080 538 q 1056 760 1079 689 q 985 886 1032 831 q 868 974 939 941 q 704 1007 798 1007 q 578 988 640 1007 q 461 934 516 969 q 359 849 406 899 q 278 740 312 800 q 225 609 244 679 q 208 463 207 539 q 236 308 208 378 q 313 185 263 237 q 431 105 362 134 q 584 76 500 76 m 716 1105 q 858 1085 793 1105 q 975 1033 923 1066 q 1066 953 1027 999 q 1132 853 1105 907 q 1171 742 1158 800 q 1185 625 1185 684 q 1175 510 1185 568 q 1142 394 1164 452 q 1085 281 1120 336 q 1004 174 1051 225 q 914 95 963 131 q 809 34 865 60 q 692 -6 753 8 q 568 -20 631 -20 q 386 14 470 -20 q 238 111 301 48 q 140 260 176 173 q 103 452 104 347 q 125 623 102 540 q 189 778 148 705 q 288 910 231 850 q 413 1014 345 970 q 558 1081 481 1057 q 716 1105 635 1105 m 459 480 q 473 385 458 425 q 525 310 488 334 q 620 287 562 287 q 707 300 663 287 q 802 337 751 313 l 786 242 q 691 204 735 216 q 607 191 648 191 q 487 214 536 191 q 408 275 438 237 q 365 363 378 313 q 351 467 352 413 q 375 636 351 559 q 446 771 400 714 q 555 859 492 827 q 696 891 619 891 q 767 883 731 891 q 831 863 803 875 q 849 855 841 859 q 865 846 857 850 l 857 754 q 842 763 854 756 q 809 776 829 769 q 761 788 789 783 q 700 795 734 794 q 673 795 686 796 q 646 792 659 795 q 563 755 597 783 q 505 685 528 727 q 471 590 482 643 q 459 480 460 538 z "},"ª":{"ha":755,"x_min":149,"x_max":673,"o":"m 541 562 q 336 453 452 453 q 205 493 249 453 q 161 611 161 533 q 180 709 161 665 q 232 786 198 753 q 313 836 265 818 q 419 853 360 853 q 457 851 436 853 q 498 844 477 848 q 536 836 518 840 q 566 826 554 831 q 575 896 572 872 q 577 936 577 920 q 572 979 577 962 q 553 1007 566 996 q 520 1022 541 1017 q 470 1026 500 1026 q 398 1016 433 1026 q 336 995 363 1006 q 293 974 309 983 q 278 965 277 964 l 254 1039 q 303 1065 277 1052 q 357 1088 329 1078 q 415 1104 385 1098 q 477 1111 445 1111 q 567 1101 530 1111 q 628 1069 604 1090 q 663 1013 652 1047 q 673 931 673 979 q 673 917 673 925 q 671 890 673 908 q 665 843 669 873 q 654 763 661 812 q 638 641 648 713 q 614 465 628 568 l 541 465 l 541 562 m 559 774 q 498 782 526 779 q 446 785 470 785 q 264 627 264 785 q 371 530 264 530 q 453 552 414 530 q 536 612 493 574 l 559 774 m 161 356 l 593 356 l 581 269 l 149 269 l 161 356 z "},"«":{"ha":1096,"x_min":122,"x_max":1006,"o":"m 985 577 l 673 393 l 936 205 l 915 43 l 536 323 l 554 458 l 1006 739 l 985 577 m 570 577 l 259 393 l 522 205 l 501 43 l 122 323 l 140 458 l 591 739 l 570 577 z "},"¬":{"ha":1083,"x_min":152,"x_max":969,"o":"m 969 762 l 893 225 l 856 225 l 926 722 l 152 722 l 158 762 l 969 762 z "},"­":{"ha":611,"x_min":105,"x_max":552,"o":"m 538 358 l 105 358 l 119 468 l 552 468 l 538 358 z "},"®":{"ha":868,"x_min":134,"x_max":834,"o":"m 516 737 q 522 728 517 735 q 531 714 526 722 q 541 701 536 707 q 546 694 545 694 l 606 583 l 538 549 q 520 589 529 570 q 505 627 512 608 l 460 728 l 432 728 l 410 564 l 344 564 l 397 957 l 468 957 q 592 936 552 957 q 633 867 633 916 q 603 781 633 811 q 516 737 572 751 m 522 1046 q 394 1017 453 1046 q 292 940 335 988 q 224 832 249 892 q 201 707 200 771 q 219 607 201 652 q 271 530 238 562 q 349 480 304 498 q 449 463 395 463 q 532 475 492 463 q 608 509 572 487 q 672 563 643 532 q 723 631 702 593 q 755 711 744 668 q 766 800 767 754 q 748 898 766 853 q 696 976 729 943 q 619 1028 664 1009 q 522 1046 574 1046 m 473 783 q 545 800 520 783 q 568 860 569 817 q 563 881 568 873 q 545 895 557 890 q 510 901 532 899 q 456 903 488 903 l 441 783 l 473 783 m 134 715 q 150 819 135 768 q 193 913 165 869 q 257 994 220 957 q 338 1057 294 1031 q 431 1099 382 1084 q 532 1114 480 1114 q 653 1090 597 1114 q 748 1026 708 1067 q 811 929 788 985 q 834 808 833 873 q 821 704 835 755 q 781 607 807 652 q 719 522 755 561 q 638 455 683 484 q 543 412 594 427 q 436 396 492 396 q 315 419 370 396 q 220 484 260 443 q 157 582 180 526 q 134 703 134 637 q 134 709 134 706 q 134 715 134 712 z "},"¯":{"ha":635,"x_min":60,"x_max":530,"o":"m 516 0 l 60 0 l 74 117 l 530 117 l 516 0 z "},"°":{"ha":465,"x_min":94,"x_max":410,"o":"m 267 603 q 224 593 244 603 q 189 568 204 584 q 166 530 174 551 q 157 486 157 509 q 180 425 158 450 q 240 401 203 401 q 281 410 262 401 q 316 436 301 420 q 339 473 330 452 q 347 518 347 494 q 325 579 347 555 q 267 603 303 603 m 94 477 q 108 549 94 515 q 148 609 123 583 q 206 649 173 634 q 275 663 239 663 q 329 653 304 663 q 372 625 354 643 q 400 583 390 607 q 410 530 410 558 q 397 456 411 491 q 359 396 383 422 q 302 356 334 371 q 233 341 270 341 q 178 351 203 341 q 134 379 153 361 q 105 422 116 397 q 94 477 94 447 z "},"±":{"ha":751,"x_min":119,"x_max":677,"o":"m 589 -28 l 119 -28 l 134 85 l 604 85 l 589 -28 m 662 372 l 469 372 l 439 144 l 326 144 l 358 372 l 165 372 l 180 482 l 372 482 l 404 711 l 515 711 l 484 482 l 677 482 l 662 372 z "},"²":{"ha":740,"x_min":85,"x_max":661,"o":"m 546 667 q 525 732 546 707 q 405 781 494 781 q 359 776 384 781 q 310 764 335 771 q 261 748 285 757 q 218 732 237 740 l 190 827 q 209 836 199 832 q 227 844 218 840 q 270 859 245 851 q 321 872 294 866 q 376 882 348 878 q 433 886 405 886 q 601 833 542 886 q 661 681 660 781 q 614 527 663 601 q 465 375 566 453 l 264 222 l 581 222 l 566 109 l 85 109 l 98 211 l 331 394 q 359 416 345 404 q 392 441 374 427 q 452 493 425 466 q 500 550 480 521 q 533 608 521 578 q 546 667 545 637 z "},"³":{"ha":718,"x_min":75,"x_max":664,"o":"m 340 514 q 443 530 403 514 q 505 570 482 546 q 537 623 528 595 q 545 677 545 652 q 510 756 545 732 q 400 779 476 779 q 353 775 378 779 q 303 765 328 771 q 256 751 279 759 q 216 736 233 744 l 191 835 l 210 844 q 243 858 222 850 q 292 873 264 866 q 350 885 319 880 q 414 890 381 890 q 503 882 459 890 q 583 851 547 873 q 641 794 618 830 q 664 703 663 758 q 645 595 664 639 q 597 523 626 551 q 534 481 568 495 q 470 462 500 467 q 523 441 495 455 q 574 404 551 427 q 613 347 597 380 q 628 268 628 313 q 603 151 628 203 q 534 60 578 98 q 431 3 490 23 q 304 -18 372 -18 q 229 -12 264 -18 q 164 3 193 -6 q 113 22 135 12 q 75 41 90 32 q 97 85 89 68 q 109 113 104 102 q 115 127 113 123 q 118 136 117 132 q 145 128 126 135 q 191 113 164 121 q 251 99 218 105 q 319 92 283 92 q 409 108 373 92 q 465 148 444 123 q 495 203 486 173 q 503 263 503 233 q 326 408 502 390 l 340 514 z "},"´":{"ha":530,"x_min":143,"x_max":458,"o":"m 244 87 l 143 87 l 271 520 l 458 520 l 244 87 z "},"µ":{"ha":777,"x_min":48,"x_max":738,"o":"m 142 -197 l 48 -183 l 177 753 l 275 753 q 245 542 258 629 q 225 396 233 454 q 213 302 218 337 q 207 249 209 268 q 204 222 205 230 q 204 209 204 214 q 231 107 204 139 q 316 75 258 75 q 390 86 355 75 q 454 114 425 97 q 505 150 483 130 q 543 184 528 169 l 621 753 l 738 753 l 632 3 l 545 -8 l 545 106 q 301 -22 425 -22 q 247 -15 269 -22 q 210 1 224 -8 q 187 22 195 11 q 175 42 179 33 l 142 -197 z "},"¶":{"ha":809,"x_min":95,"x_max":796,"o":"m 796 1075 l 645 0 l 517 0 l 653 973 l 568 973 l 431 0 l 300 0 l 382 586 q 274 596 326 586 q 182 629 222 606 q 119 692 142 652 q 95 791 95 732 q 113 903 95 857 q 160 981 130 949 q 230 1031 191 1013 q 314 1060 270 1050 q 405 1072 359 1069 q 495 1075 452 1075 l 796 1075 z "},"·":{"ha":357,"x_min":120,"x_max":300,"o":"m 220 552 q 251 546 237 552 q 277 528 266 539 q 294 501 288 516 q 300 468 300 486 q 292 427 300 446 q 270 393 283 408 q 239 369 256 378 q 203 360 222 360 q 170 367 185 360 q 144 385 155 374 q 126 412 133 397 q 120 446 120 428 q 128 486 120 467 q 150 519 136 505 q 181 543 163 534 q 220 552 199 552 z "},"¸":{"ha":339,"x_min":7,"x_max":318,"o":"m 7 -346 l 12 -286 q 57 -304 31 -294 q 111 -315 82 -313 q 126 -317 119 -317 q 142 -316 134 -317 q 181 -308 165 -315 q 207 -289 197 -300 q 221 -263 217 -277 q 225 -233 225 -248 q 181 -176 224 -200 q 49 -153 138 -153 l 97 26 l 174 26 q 132 -93 138 -66 q 168 -95 147 -93 q 209 -102 188 -97 q 249 -117 229 -108 q 284 -141 269 -127 q 309 -175 299 -155 q 318 -221 318 -195 l 318 -227 q 302 -299 317 -267 q 262 -354 287 -332 q 203 -388 237 -376 q 130 -400 169 -400 q 59 -390 90 -400 q 7 -366 28 -379 l 7 -346 z "},"¹":{"ha":562,"x_min":149,"x_max":443,"o":"m 212 110 l 306 777 l 171 723 l 149 815 l 302 871 l 443 871 l 336 110 l 212 110 z "},"º":{"ha":797,"x_min":144,"x_max":705,"o":"m 386 454 q 287 473 329 454 q 216 525 244 491 q 173 605 187 558 q 159 709 159 652 q 166 788 159 745 q 187 877 172 832 q 227 964 202 922 q 286 1039 251 1006 q 369 1091 321 1072 q 478 1111 416 1111 q 577 1092 535 1111 q 648 1040 620 1074 q 691 958 677 1006 q 705 853 705 911 q 697 764 705 810 q 673 673 690 718 q 631 589 656 629 q 570 519 606 549 q 489 472 534 490 q 386 454 443 454 m 398 539 q 471 555 439 539 q 526 596 503 570 q 564 654 549 621 q 589 721 580 686 q 602 789 598 755 q 606 851 606 823 q 572 979 606 932 q 467 1025 538 1025 q 395 1010 426 1025 q 340 969 363 995 q 301 911 317 944 q 276 844 286 879 q 262 775 266 809 q 258 712 258 741 q 292 585 258 630 q 398 539 326 539 m 157 349 l 589 349 l 576 262 l 144 262 l 157 349 z "},"»":{"ha":1069,"x_min":85,"x_max":972,"o":"m 574 577 l 597 737 l 972 457 l 953 323 l 500 43 l 522 205 l 838 393 l 574 577 m 160 577 l 183 737 l 558 457 l 539 323 l 85 43 l 108 205 l 424 393 l 160 577 z "},"¼":{"ha":1238,"x_min":139,"x_max":1131,"o":"m 139 -20 l 958 958 l 1044 896 l 222 -81 l 139 -20 m 1028 656 l 1122 632 l 1031 124 l 1131 124 l 1114 33 l 1015 33 l 984 -138 l 870 -151 l 903 33 l 563 33 l 562 116 l 1028 656 m 690 123 l 918 123 l 985 458 l 690 123 m 239 362 l 338 917 l 222 871 l 205 949 l 383 1017 l 474 997 l 361 362 l 239 362 z "},"½":{"ha":1390,"x_min":161,"x_max":1298,"o":"m 161 -20 l 981 958 l 1067 896 l 245 -81 l 161 -20 m 275 362 l 374 917 l 258 871 l 241 949 l 419 1017 l 510 997 l 397 362 l 275 362 m 985 170 q 1046 216 1014 192 q 1105 267 1078 240 q 1149 323 1132 294 q 1167 388 1167 353 q 1139 443 1166 425 q 1065 460 1112 460 q 1019 456 1044 460 q 966 446 993 452 q 913 433 939 440 q 867 420 887 426 l 875 526 l 913 540 q 994 559 950 551 q 1095 568 1038 568 q 1187 555 1149 568 q 1250 521 1225 543 q 1286 470 1275 499 q 1298 410 1298 441 q 1286 337 1298 372 q 1250 270 1275 303 q 1186 201 1225 236 q 1093 125 1147 165 l 958 24 l 1213 24 l 1194 -90 l 759 -90 l 777 9 l 985 170 z "},"¾":{"ha":1451,"x_min":163,"x_max":735,"o":"m 215 505 q 250 488 231 497 q 291 472 269 479 q 339 460 313 465 q 395 456 366 456 q 465 467 433 456 q 521 498 498 478 q 558 547 545 519 q 572 610 572 575 q 536 689 572 659 q 420 727 500 718 l 437 819 q 502 827 469 819 q 564 853 536 836 q 610 897 592 870 q 628 962 628 924 q 596 1024 628 1002 q 494 1045 564 1045 q 453 1042 475 1045 q 409 1034 431 1039 q 366 1022 387 1029 q 328 1006 345 1015 l 313 1093 q 315 1093 315 1093 q 340 1103 321 1096 q 385 1118 358 1110 q 446 1131 412 1125 q 515 1137 479 1137 q 588 1130 549 1137 q 659 1106 627 1123 q 713 1059 692 1088 q 735 984 735 1029 q 724 914 735 945 q 694 860 712 884 q 653 821 675 837 q 607 794 630 804 q 565 779 585 784 q 532 774 545 774 q 581 760 554 770 q 629 730 607 749 q 667 681 652 711 q 682 608 682 652 q 668 529 682 564 q 631 467 654 494 q 575 421 607 440 q 509 390 544 401 q 437 372 474 378 q 368 366 401 366 q 300 372 332 366 q 243 385 269 377 q 198 402 218 393 q 163 419 178 412 l 215 505 z "},"¿":{"ha":718,"x_min":102,"x_max":694,"o":"m 240 228 q 279 144 240 169 q 399 119 317 119 q 453 123 426 119 q 507 135 480 127 q 559 151 534 142 q 608 168 585 159 l 640 56 q 585 34 615 45 q 520 15 554 23 q 449 1 486 6 q 375 -4 412 -4 q 249 12 300 -4 q 164 56 197 28 q 117 123 132 84 q 102 208 102 162 q 121 316 102 266 q 173 409 141 366 q 245 486 205 451 q 327 548 286 521 q 408 594 368 575 q 476 625 447 614 l 494 744 l 623 744 l 602 557 q 576 546 591 553 q 546 532 562 539 q 481 499 516 517 q 413 460 447 481 q 347 413 379 438 q 292 358 315 387 q 254 296 268 329 q 240 228 239 264 m 694 1004 q 675 908 688 955 q 644 823 662 862 q 559 829 600 823 q 483 845 518 836 q 502 942 488 896 q 532 1026 515 987 q 617 1020 576 1026 q 694 1004 659 1014 z "},"À":{"ha":893,"x_min":18,"x_max":874,"o":"m 595 951 l 484 706 l 318 341 l 678 341 l 627 700 l 595 951 m 513 1076 l 709 1076 l 874 0 l 728 0 l 691 262 l 284 262 l 165 0 l 18 0 l 513 1076 m 680 1158 l 608 1158 l 452 1594 l 653 1594 l 680 1158 z "},"Á":{"ha":893,"x_min":18,"x_max":874,"o":"m 595 951 l 484 706 l 318 341 l 678 341 l 627 700 l 595 951 m 513 1076 l 709 1076 l 874 0 l 728 0 l 691 262 l 284 262 l 165 0 l 18 0 l 513 1076 m 540 1145 l 439 1145 l 566 1578 l 753 1578 l 540 1145 z "},"Â":{"ha":893,"x_min":18,"x_max":874,"o":"m 595 951 l 484 706 l 318 341 l 678 341 l 627 700 l 595 951 m 513 1076 l 709 1076 l 874 0 l 728 0 l 691 262 l 284 262 l 165 0 l 18 0 l 513 1076 m 632 1489 l 727 1489 l 813 1112 l 702 1112 l 659 1327 l 536 1112 l 412 1112 l 632 1489 z "},"Ã":{"ha":893,"x_min":18,"x_max":874,"o":"m 595 951 l 484 706 l 318 341 l 678 341 l 627 700 l 595 951 m 513 1076 l 709 1076 l 874 0 l 728 0 l 691 262 l 284 262 l 165 0 l 18 0 l 513 1076 m 725 1144 q 656 1158 690 1144 q 593 1187 623 1171 q 538 1217 563 1204 q 494 1231 513 1231 q 476 1229 484 1231 q 460 1219 467 1226 q 450 1198 454 1212 q 445 1162 446 1185 l 338 1162 q 351 1241 339 1207 q 384 1297 363 1275 q 433 1331 405 1320 q 494 1341 461 1341 q 559 1328 530 1341 q 616 1299 589 1315 q 666 1269 642 1282 q 714 1256 690 1256 q 734 1258 726 1256 q 749 1268 743 1261 q 759 1288 755 1275 q 763 1321 762 1301 l 871 1321 q 858 1239 869 1273 q 826 1185 846 1206 q 780 1154 806 1164 q 725 1144 754 1144 z "},"Ä":{"ha":893,"x_min":18,"x_max":874,"o":"m 595 951 l 484 706 l 318 341 l 678 341 l 627 700 l 595 951 m 513 1076 l 709 1076 l 874 0 l 728 0 l 691 262 l 284 262 l 165 0 l 18 0 l 513 1076 m 533 1253 q 524 1212 532 1232 q 501 1178 515 1193 q 470 1154 488 1163 q 434 1145 452 1145 q 404 1152 418 1145 q 379 1168 389 1158 q 363 1194 369 1179 q 357 1226 357 1208 q 366 1268 357 1248 q 388 1303 374 1288 q 420 1328 402 1319 q 459 1337 439 1337 q 512 1315 492 1337 q 533 1258 532 1293 l 533 1253 m 847 1252 q 838 1212 846 1231 q 815 1177 829 1192 q 784 1154 802 1162 q 748 1145 766 1145 q 694 1168 715 1145 q 672 1225 673 1191 q 681 1267 672 1246 q 703 1302 689 1287 q 735 1327 717 1318 q 773 1337 753 1337 q 826 1314 806 1337 q 847 1257 846 1291 l 847 1252 z "},"Å":{"ha":893,"x_min":18,"x_max":874,"o":"m 595 951 l 484 706 l 318 341 l 678 341 l 627 700 l 595 951 m 513 1076 l 709 1076 l 874 0 l 728 0 l 691 262 l 284 262 l 165 0 l 18 0 l 513 1076 m 617 1398 q 579 1390 597 1398 q 548 1366 562 1381 q 528 1332 535 1351 q 520 1292 520 1313 q 540 1236 521 1259 q 594 1214 559 1214 q 631 1223 614 1214 q 662 1246 649 1232 q 683 1281 675 1261 q 690 1321 690 1300 q 670 1376 690 1354 q 617 1398 650 1398 m 446 1280 q 461 1352 446 1318 q 500 1412 475 1386 q 558 1452 526 1437 q 627 1467 591 1467 q 682 1456 657 1467 q 726 1427 707 1446 q 754 1384 744 1409 q 766 1331 765 1359 q 752 1258 766 1292 q 712 1199 737 1224 q 655 1159 688 1174 q 585 1145 622 1145 q 530 1155 555 1145 q 486 1183 505 1165 q 457 1225 467 1200 q 446 1280 446 1250 z "},"Æ":{"ha":1318,"x_min":18,"x_max":1373,"o":"m 839 616 l 1258 616 l 1246 518 l 827 518 l 772 118 l 1255 118 l 1241 0 l 625 0 l 658 253 l 332 253 l 173 0 l 18 0 l 711 1073 l 1373 1073 l 1357 958 l 884 958 l 839 616 m 669 345 l 745 909 l 395 345 l 669 345 z "},"Ç":{"ha":807,"x_min":134,"x_max":920,"o":"m 134 367 q 148 551 134 460 q 192 723 163 642 q 263 872 220 804 q 363 990 307 940 q 492 1067 420 1040 q 648 1095 563 1095 q 717 1091 684 1095 q 782 1079 750 1087 q 848 1061 814 1072 q 920 1036 882 1050 l 869 918 q 759 956 811 941 q 652 971 707 971 q 536 948 589 971 q 443 885 484 926 q 372 788 402 844 q 323 667 342 732 q 294 527 303 601 q 284 378 284 454 q 341 165 284 234 q 510 96 398 96 q 566 102 536 96 q 628 119 595 109 q 693 142 660 129 q 758 170 726 155 l 783 56 q 714 25 749 40 q 644 -2 680 10 q 570 -20 608 -14 q 489 -27 531 -27 q 225 72 317 -27 q 134 367 134 172 m 378 -346 l 382 -286 q 428 -304 402 -294 q 481 -315 453 -313 q 497 -317 490 -317 q 513 -316 505 -317 q 552 -308 536 -315 q 578 -289 568 -300 q 592 -263 588 -277 q 596 -233 596 -248 q 552 -176 595 -200 q 420 -153 509 -153 l 468 26 l 545 26 q 503 -93 509 -66 q 538 -95 518 -93 q 579 -102 559 -97 q 620 -117 600 -108 q 655 -141 640 -127 q 680 -175 670 -155 q 689 -221 689 -195 l 689 -227 q 673 -299 688 -267 q 633 -354 658 -332 q 574 -388 608 -376 q 501 -400 540 -400 q 430 -390 460 -400 q 378 -366 399 -379 l 378 -346 z "},"È":{"ha":752,"x_min":85,"x_max":857,"o":"m 714 0 l 85 0 l 237 1076 l 857 1076 l 840 963 l 366 963 l 317 615 l 734 615 l 720 518 l 303 518 l 245 112 l 732 112 l 714 0 m 671 1158 l 599 1158 l 442 1594 l 644 1594 l 671 1158 z "},"É":{"ha":752,"x_min":85,"x_max":857,"o":"m 714 0 l 85 0 l 237 1076 l 857 1076 l 840 963 l 366 963 l 317 615 l 734 615 l 720 518 l 303 518 l 245 112 l 732 112 l 714 0 m 530 1145 l 429 1145 l 557 1578 l 744 1578 l 530 1145 z "},"Ê":{"ha":752,"x_min":85,"x_max":857,"o":"m 714 0 l 85 0 l 237 1076 l 857 1076 l 840 963 l 366 963 l 317 615 l 734 615 l 720 518 l 303 518 l 245 112 l 732 112 l 714 0 m 559 1506 l 654 1506 l 740 1128 l 629 1128 l 585 1344 l 463 1128 l 338 1128 l 559 1506 z "},"Ë":{"ha":752,"x_min":85,"x_max":957,"o":"m 714 0 l 85 0 l 237 1076 l 857 1076 l 840 963 l 366 963 l 317 615 l 734 615 l 720 518 l 303 518 l 245 112 l 732 112 l 714 0 m 643 1253 q 633 1212 642 1232 q 611 1178 625 1193 q 580 1154 597 1163 q 544 1145 562 1145 q 513 1152 528 1145 q 489 1168 499 1158 q 473 1194 479 1179 q 467 1226 467 1208 q 475 1268 467 1248 q 498 1303 484 1288 q 530 1328 512 1319 q 569 1337 549 1337 q 622 1315 602 1337 q 643 1258 642 1293 l 643 1253 m 957 1252 q 947 1212 956 1231 q 925 1177 939 1192 q 894 1154 911 1162 q 858 1145 876 1145 q 804 1168 825 1145 q 782 1225 783 1191 q 790 1267 782 1246 q 813 1302 799 1287 q 845 1327 827 1318 q 883 1337 863 1337 q 936 1314 916 1337 q 957 1257 956 1291 l 957 1252 z "},"Ì":{"ha":583,"x_min":84,"x_max":635,"o":"m 96 83 l 221 83 l 352 988 l 228 988 l 241 1076 l 635 1076 l 621 988 l 495 988 l 364 83 l 490 83 l 477 0 l 84 0 l 96 83 m 534 1158 l 463 1158 l 306 1594 l 507 1594 l 534 1158 z "},"Í":{"ha":583,"x_min":84,"x_max":635,"o":"m 96 83 l 221 83 l 352 988 l 228 988 l 241 1076 l 635 1076 l 621 988 l 495 988 l 364 83 l 490 83 l 477 0 l 84 0 l 96 83 m 394 1145 l 293 1145 l 420 1578 l 608 1578 l 394 1145 z "},"Î":{"ha":583,"x_min":84,"x_max":635,"o":"m 96 83 l 221 83 l 352 988 l 228 988 l 241 1076 l 635 1076 l 621 988 l 495 988 l 364 83 l 490 83 l 477 0 l 84 0 l 96 83 m 450 1507 l 545 1507 l 631 1129 l 520 1129 l 477 1345 l 354 1129 l 230 1129 l 450 1507 z "},"Ï":{"ha":583,"x_min":84,"x_max":821,"o":"m 96 83 l 221 83 l 352 988 l 228 988 l 241 1076 l 635 1076 l 621 988 l 495 988 l 364 83 l 490 83 l 477 0 l 84 0 l 96 83 m 507 1253 q 497 1212 506 1232 q 475 1178 488 1193 q 444 1154 461 1163 q 408 1145 426 1145 q 377 1152 391 1145 q 353 1168 363 1158 q 337 1194 342 1179 q 331 1226 331 1208 q 339 1268 331 1248 q 361 1303 347 1288 q 394 1328 376 1319 q 433 1337 412 1337 q 486 1315 465 1337 q 507 1258 506 1293 l 507 1253 m 821 1252 q 811 1212 820 1231 q 789 1177 802 1192 q 758 1154 775 1162 q 722 1145 740 1145 q 667 1168 688 1145 q 646 1225 646 1191 q 654 1267 646 1246 q 676 1302 663 1287 q 709 1327 690 1318 q 747 1337 727 1337 q 800 1314 779 1337 q 821 1257 820 1291 l 821 1252 z "},"Ð":{"ha":922,"x_min":71,"x_max":935,"o":"m 935 688 q 930 586 935 640 q 914 474 925 531 q 884 359 903 416 q 837 249 865 302 q 771 151 809 197 q 682 72 732 106 q 568 19 631 39 q 426 0 505 0 l 71 0 l 141 500 l 73 500 l 87 604 l 156 604 l 222 1074 l 578 1074 q 843 978 751 1074 q 935 688 935 883 m 787 686 q 773 809 787 758 q 731 893 759 860 q 661 941 703 926 q 562 956 619 956 l 353 956 l 302 604 l 532 604 l 518 500 l 288 500 l 234 115 l 441 115 q 567 143 513 115 q 659 217 621 171 q 722 322 697 263 q 761 445 747 382 q 781 571 776 509 q 787 686 787 633 z "},"Ñ":{"ha":1022,"x_min":87,"x_max":1074,"o":"m 922 0 l 727 0 l 603 307 l 357 924 l 228 0 l 87 0 l 239 1076 l 435 1076 l 558 770 l 804 151 l 933 1076 l 1074 1076 l 922 0 m 817 1144 q 748 1158 781 1144 q 685 1187 715 1171 q 629 1217 654 1204 q 585 1231 604 1231 q 567 1229 576 1231 q 552 1219 559 1226 q 541 1198 545 1212 q 536 1162 537 1185 l 429 1162 q 443 1241 431 1207 q 476 1297 455 1275 q 525 1331 496 1320 q 586 1341 553 1341 q 651 1328 621 1341 q 707 1299 681 1315 q 758 1269 734 1282 q 806 1256 782 1256 q 826 1258 817 1256 q 841 1268 835 1261 q 850 1288 847 1275 q 854 1321 854 1301 l 962 1321 q 949 1239 961 1273 q 918 1185 937 1206 q 872 1154 898 1164 q 817 1144 846 1144 z "},"Ò":{"ha":988,"x_min":134,"x_max":1001,"o":"m 1001 694 q 962 402 1001 534 q 854 174 924 269 q 690 26 785 79 q 483 -27 595 -27 q 338 -4 402 -27 q 228 68 273 20 q 158 189 182 116 q 134 361 134 262 q 151 561 134 466 q 200 738 168 656 q 278 885 232 819 q 380 998 323 951 q 505 1069 437 1044 q 648 1095 572 1095 q 807 1067 740 1095 q 917 987 873 1039 q 980 861 960 935 q 1001 694 1001 787 m 852 696 q 840 807 852 757 q 803 894 829 858 q 735 951 777 930 q 633 971 694 971 q 526 947 574 971 q 438 881 477 923 q 370 781 399 838 q 322 655 341 723 q 294 514 303 588 q 284 365 284 440 q 339 162 284 229 q 501 96 394 96 q 608 120 559 96 q 695 184 656 143 q 764 283 734 226 q 812 406 793 340 q 842 547 832 473 q 852 696 852 621 m 743 1158 l 671 1158 l 515 1594 l 716 1594 l 743 1158 z "},"Ó":{"ha":988,"x_min":134,"x_max":1001,"o":"m 1001 694 q 962 402 1001 534 q 854 174 924 269 q 690 26 785 79 q 483 -27 595 -27 q 338 -4 402 -27 q 228 68 273 20 q 158 189 182 116 q 134 361 134 262 q 151 561 134 466 q 200 738 168 656 q 278 885 232 819 q 380 998 323 951 q 505 1069 437 1044 q 648 1095 572 1095 q 807 1067 740 1095 q 917 987 873 1039 q 980 861 960 935 q 1001 694 1001 787 m 852 696 q 840 807 852 757 q 803 894 829 858 q 735 951 777 930 q 633 971 694 971 q 526 947 574 971 q 438 881 477 923 q 370 781 399 838 q 322 655 341 723 q 294 514 303 588 q 284 365 284 440 q 339 162 284 229 q 501 96 394 96 q 608 120 559 96 q 695 184 656 143 q 764 283 734 226 q 812 406 793 340 q 842 547 832 473 q 852 696 852 621 m 603 1145 l 502 1145 l 629 1578 l 817 1578 l 603 1145 z "},"Ô":{"ha":988,"x_min":134,"x_max":1001,"o":"m 1001 694 q 962 402 1001 534 q 854 174 924 269 q 690 26 785 79 q 483 -27 595 -27 q 338 -4 402 -27 q 228 68 273 20 q 158 189 182 116 q 134 361 134 262 q 151 561 134 466 q 200 738 168 656 q 278 885 232 819 q 380 998 323 951 q 505 1069 437 1044 q 648 1095 572 1095 q 807 1067 740 1095 q 917 987 873 1039 q 980 861 960 935 q 1001 694 1001 787 m 852 696 q 840 807 852 757 q 803 894 829 858 q 735 951 777 930 q 633 971 694 971 q 526 947 574 971 q 438 881 477 923 q 370 781 399 838 q 322 655 341 723 q 294 514 303 588 q 284 365 284 440 q 339 162 284 229 q 501 96 394 96 q 608 120 559 96 q 695 184 656 143 q 764 283 734 226 q 812 406 793 340 q 842 547 832 473 q 852 696 852 621 m 695 1489 l 790 1489 l 876 1112 l 765 1112 l 722 1327 l 599 1112 l 475 1112 l 695 1489 z "},"Õ":{"ha":988,"x_min":134,"x_max":1001,"o":"m 1001 694 q 962 402 1001 534 q 854 174 924 269 q 690 26 785 79 q 483 -27 595 -27 q 338 -4 402 -27 q 228 68 273 20 q 158 189 182 116 q 134 361 134 262 q 151 561 134 466 q 200 738 168 656 q 278 885 232 819 q 380 998 323 951 q 505 1069 437 1044 q 648 1095 572 1095 q 807 1067 740 1095 q 917 987 873 1039 q 980 861 960 935 q 1001 694 1001 787 m 852 696 q 840 807 852 757 q 803 894 829 858 q 735 951 777 930 q 633 971 694 971 q 526 947 574 971 q 438 881 477 923 q 370 781 399 838 q 322 655 341 723 q 294 514 303 588 q 284 365 284 440 q 339 162 284 229 q 501 96 394 96 q 608 120 559 96 q 695 184 656 143 q 764 283 734 226 q 812 406 793 340 q 842 547 832 473 q 852 696 852 621 m 788 1144 q 720 1158 753 1144 q 656 1187 686 1171 q 601 1217 626 1204 q 557 1231 576 1231 q 539 1229 547 1231 q 524 1219 530 1226 q 513 1198 517 1212 q 508 1162 509 1185 l 401 1162 q 414 1241 402 1207 q 447 1297 427 1275 q 496 1331 468 1320 q 557 1341 524 1341 q 623 1328 593 1341 q 679 1299 652 1315 q 729 1269 705 1282 q 777 1256 753 1256 q 798 1258 789 1256 q 812 1268 806 1261 q 822 1288 819 1275 q 826 1321 825 1301 l 934 1321 q 921 1239 932 1273 q 889 1185 909 1206 q 843 1154 869 1164 q 788 1144 817 1144 z "},"Ö":{"ha":988,"x_min":134,"x_max":1001,"o":"m 1001 694 q 962 402 1001 534 q 854 174 924 269 q 690 26 785 79 q 483 -27 595 -27 q 338 -4 402 -27 q 228 68 273 20 q 158 189 182 116 q 134 361 134 262 q 151 561 134 466 q 200 738 168 656 q 278 885 232 819 q 380 998 323 951 q 505 1069 437 1044 q 648 1095 572 1095 q 807 1067 740 1095 q 917 987 873 1039 q 980 861 960 935 q 1001 694 1001 787 m 852 696 q 840 807 852 757 q 803 894 829 858 q 735 951 777 930 q 633 971 694 971 q 526 947 574 971 q 438 881 477 923 q 370 781 399 838 q 322 655 341 723 q 294 514 303 588 q 284 365 284 440 q 339 162 284 229 q 501 96 394 96 q 608 120 559 96 q 695 184 656 143 q 764 283 734 226 q 812 406 793 340 q 842 547 832 473 q 852 696 852 621 m 596 1253 q 587 1212 595 1232 q 564 1178 578 1193 q 533 1154 551 1163 q 497 1145 515 1145 q 467 1152 481 1145 q 442 1168 452 1158 q 426 1194 432 1179 q 420 1226 420 1208 q 429 1268 420 1248 q 451 1303 437 1288 q 484 1328 465 1319 q 522 1337 502 1337 q 575 1315 555 1337 q 596 1258 595 1293 l 596 1253 m 910 1252 q 901 1212 909 1231 q 878 1177 892 1192 q 847 1154 865 1162 q 811 1145 829 1145 q 757 1168 778 1145 q 735 1225 736 1191 q 744 1267 735 1246 q 766 1302 752 1287 q 798 1327 780 1318 q 836 1337 817 1337 q 889 1314 869 1337 q 910 1257 909 1291 l 910 1252 z "},"×":{"ha":830,"x_min":125,"x_max":767,"o":"m 523 370 l 698 143 l 605 63 l 433 286 l 199 65 l 125 150 l 365 376 l 189 605 l 281 685 l 454 460 l 693 686 l 767 602 l 523 370 z "},"Ø":{"ha":988,"x_min":135,"x_max":1000,"o":"m 859 699 q 842 828 858 772 q 785 922 825 885 l 428 102 q 463 95 444 97 q 503 93 481 93 q 613 117 563 93 q 702 182 663 140 q 772 281 742 224 q 821 405 802 338 q 850 547 840 473 q 859 699 859 622 m 1000 694 q 964 402 1002 534 q 858 174 926 269 q 695 26 789 79 q 488 -27 600 -27 q 378 -15 429 -27 l 340 -104 l 263 -71 l 300 15 q 179 142 222 58 q 135 361 136 227 q 151 561 134 466 q 198 738 167 656 q 275 885 230 819 q 377 998 320 951 q 501 1069 434 1044 q 644 1095 568 1095 q 762 1080 711 1095 l 804 1177 l 880 1146 l 838 1049 q 961 911 922 1001 q 1000 694 999 821 m 632 975 q 523 951 572 975 q 434 884 473 926 q 365 783 394 842 q 315 657 335 725 q 286 514 296 589 q 277 363 277 439 q 297 230 278 283 q 354 142 315 176 l 712 963 q 632 975 677 975 z "},"Ù":{"ha":958,"x_min":125,"x_max":1020,"o":"m 490 89 q 609 109 559 89 q 693 174 659 128 q 751 296 728 220 q 791 485 774 372 l 875 1076 l 1020 1076 l 937 488 q 872 235 916 334 q 769 77 829 136 q 634 -4 709 19 q 475 -27 559 -27 q 327 -2 391 -27 q 217 73 262 23 q 149 196 172 123 q 125 367 125 270 q 125 384 125 375 q 126 405 125 393 q 129 430 127 416 q 133 465 130 445 q 145 557 138 504 q 162 684 152 611 q 185 854 172 758 q 216 1076 199 950 l 361 1076 q 330 851 344 949 q 307 679 317 753 q 289 550 296 604 q 277 454 281 495 q 272 418 274 433 q 270 391 271 403 q 269 371 269 380 q 269 354 269 362 q 280 245 269 294 q 317 162 291 197 q 385 108 342 127 q 490 89 427 89 m 745 1158 l 673 1158 l 516 1594 l 718 1594 l 745 1158 z "},"Ú":{"ha":958,"x_min":125,"x_max":1020,"o":"m 490 89 q 609 109 559 89 q 693 174 659 128 q 751 296 728 220 q 791 485 774 372 l 875 1076 l 1020 1076 l 937 488 q 872 235 916 334 q 769 77 829 136 q 634 -4 709 19 q 475 -27 559 -27 q 327 -2 391 -27 q 217 73 262 23 q 149 196 172 123 q 125 367 125 270 q 125 384 125 375 q 126 405 125 393 q 129 430 127 416 q 133 465 130 445 q 145 557 138 504 q 162 684 152 611 q 185 854 172 758 q 216 1076 199 950 l 361 1076 q 330 851 344 949 q 307 679 317 753 q 289 550 296 604 q 277 454 281 495 q 272 418 274 433 q 270 391 271 403 q 269 371 269 380 q 269 354 269 362 q 280 245 269 294 q 317 162 291 197 q 385 108 342 127 q 490 89 427 89 m 604 1145 l 503 1145 l 631 1578 l 818 1578 l 604 1145 z "},"Û":{"ha":958,"x_min":125,"x_max":1020,"o":"m 490 89 q 609 109 559 89 q 693 174 659 128 q 751 296 728 220 q 791 485 774 372 l 875 1076 l 1020 1076 l 937 488 q 872 235 916 334 q 769 77 829 136 q 634 -4 709 19 q 475 -27 559 -27 q 327 -2 391 -27 q 217 73 262 23 q 149 196 172 123 q 125 367 125 270 q 125 384 125 375 q 126 405 125 393 q 129 430 127 416 q 133 465 130 445 q 145 557 138 504 q 162 684 152 611 q 185 854 172 758 q 216 1076 199 950 l 361 1076 q 330 851 344 949 q 307 679 317 753 q 289 550 296 604 q 277 454 281 495 q 272 418 274 433 q 270 391 271 403 q 269 371 269 380 q 269 354 269 362 q 280 245 269 294 q 317 162 291 197 q 385 108 342 127 q 490 89 427 89 m 696 1489 l 791 1489 l 878 1112 l 766 1112 l 723 1327 l 600 1112 l 476 1112 l 696 1489 z "},"Ü":{"ha":958,"x_min":125,"x_max":1020,"o":"m 490 89 q 609 109 559 89 q 693 174 659 128 q 751 296 728 220 q 791 485 774 372 l 875 1076 l 1020 1076 l 937 488 q 872 235 916 334 q 769 77 829 136 q 634 -4 709 19 q 475 -27 559 -27 q 327 -2 391 -27 q 217 73 262 23 q 149 196 172 123 q 125 367 125 270 q 125 384 125 375 q 126 405 125 393 q 129 430 127 416 q 133 465 130 445 q 145 557 138 504 q 162 684 152 611 q 185 854 172 758 q 216 1076 199 950 l 361 1076 q 330 851 344 949 q 307 679 317 753 q 289 550 296 604 q 277 454 281 495 q 272 418 274 433 q 270 391 271 403 q 269 371 269 380 q 269 354 269 362 q 280 245 269 294 q 317 162 291 197 q 385 108 342 127 q 490 89 427 89 m 597 1253 q 588 1212 597 1232 q 566 1178 579 1193 q 534 1154 552 1163 q 498 1145 517 1145 q 468 1152 482 1145 q 444 1168 454 1158 q 428 1194 433 1179 q 422 1226 422 1208 q 430 1268 422 1248 q 452 1303 438 1288 q 485 1328 467 1319 q 524 1337 503 1337 q 576 1315 556 1337 q 597 1258 597 1293 l 597 1253 m 911 1252 q 902 1212 911 1231 q 880 1177 893 1192 q 848 1154 866 1162 q 812 1145 831 1145 q 758 1168 779 1145 q 736 1225 737 1191 q 745 1267 736 1246 q 767 1302 753 1287 q 800 1327 781 1318 q 838 1337 818 1337 q 890 1314 870 1337 q 911 1257 911 1291 l 911 1252 z "},"Ý":{"ha":785,"x_min":142,"x_max":927,"o":"m 446 484 l 779 1073 l 927 1073 l 498 336 l 452 0 l 309 0 l 357 352 l 142 1073 l 280 1073 l 446 484 m 503 1145 l 402 1145 l 530 1578 l 717 1578 l 503 1145 z "},"Þ":{"ha":893,"x_min":87,"x_max":886,"o":"m 237 1076 l 383 1076 l 371 985 l 480 985 q 666 971 589 985 q 792 926 743 957 q 863 848 841 896 q 886 734 886 801 q 853 553 886 629 q 756 430 821 478 q 594 359 692 381 q 367 336 497 336 l 279 336 l 233 0 l 87 0 l 237 1076 m 745 705 q 741 755 747 733 q 718 807 735 785 q 668 842 701 828 q 586 862 635 855 q 465 868 536 868 l 354 868 l 296 456 l 382 456 q 552 469 483 456 q 663 511 621 481 q 725 588 706 541 q 745 705 744 636 z "},"ß":{"ha":912,"x_min":87,"x_max":858,"o":"m 402 620 q 540 634 485 620 q 627 675 595 648 q 673 742 660 703 q 687 831 687 781 q 647 932 687 899 q 522 964 608 964 q 430 939 465 964 q 373 874 395 914 q 342 786 352 835 q 326 690 332 738 l 229 0 l 87 0 l 181 677 q 216 836 193 762 q 280 963 239 909 q 385 1048 321 1017 q 539 1079 448 1079 q 662 1059 610 1079 q 747 1006 713 1040 q 796 928 780 972 q 812 835 812 884 q 798 733 812 779 q 754 654 784 688 q 679 599 725 620 q 569 574 633 578 q 684 549 631 568 q 775 500 736 531 q 836 426 814 469 q 858 328 858 383 q 838 187 858 249 q 781 79 817 125 q 694 0 744 33 q 586 -54 644 -33 q 461 -86 527 -75 q 329 -100 396 -97 l 332 25 q 518 60 444 35 q 637 125 593 86 q 701 217 682 165 q 720 330 720 269 q 636 472 720 427 q 387 516 553 516 l 402 620 z "},"à":{"ha":763,"x_min":103,"x_max":772,"o":"m 772 711 l 669 0 l 566 0 l 562 129 q 521 70 545 96 q 469 25 498 43 q 408 -4 441 6 q 340 -14 375 -14 q 231 8 275 -14 q 157 69 186 31 q 116 160 129 108 q 103 272 103 212 q 117 386 103 326 q 157 503 131 446 q 220 612 183 560 q 303 702 257 663 q 402 764 349 741 q 516 787 456 787 q 580 781 547 787 q 644 766 613 775 q 700 746 674 757 q 741 727 725 736 l 772 711 m 238 281 q 272 137 238 181 q 377 92 307 92 q 437 103 408 92 q 489 132 465 115 q 532 168 513 149 q 562 204 551 188 l 630 660 q 618 665 628 661 q 592 672 608 668 q 558 679 577 675 q 522 682 540 682 q 453 667 487 682 q 387 625 418 652 q 328 561 355 598 q 281 479 301 524 q 250 384 261 435 q 238 281 238 334 m 555 888 l 483 888 l 326 1324 l 528 1324 l 555 888 z "},"á":{"ha":763,"x_min":103,"x_max":772,"o":"m 772 711 l 669 0 l 566 0 l 562 129 q 521 70 545 96 q 469 25 498 43 q 408 -4 441 6 q 340 -14 375 -14 q 231 8 275 -14 q 157 69 186 31 q 116 160 129 108 q 103 272 103 212 q 117 386 103 326 q 157 503 131 446 q 220 612 183 560 q 303 702 257 663 q 402 764 349 741 q 516 787 456 787 q 580 781 547 787 q 644 766 613 775 q 700 746 674 757 q 741 727 725 736 l 772 711 m 238 281 q 272 137 238 181 q 377 92 307 92 q 437 103 408 92 q 489 132 465 115 q 532 168 513 149 q 562 204 551 188 l 630 660 q 618 665 628 661 q 592 672 608 668 q 558 679 577 675 q 522 682 540 682 q 453 667 487 682 q 387 625 418 652 q 328 561 355 598 q 281 479 301 524 q 250 384 261 435 q 238 281 238 334 m 526 874 l 425 874 l 553 1308 l 740 1308 l 526 874 z "},"â":{"ha":763,"x_min":103,"x_max":772,"o":"m 772 711 l 669 0 l 566 0 l 562 129 q 521 70 545 96 q 469 25 498 43 q 408 -4 441 6 q 340 -14 375 -14 q 231 8 275 -14 q 157 69 186 31 q 116 160 129 108 q 103 272 103 212 q 117 386 103 326 q 157 503 131 446 q 220 612 183 560 q 303 702 257 663 q 402 764 349 741 q 516 787 456 787 q 580 781 547 787 q 644 766 613 775 q 700 746 674 757 q 741 727 725 736 l 772 711 m 238 281 q 272 137 238 181 q 377 92 307 92 q 437 103 408 92 q 489 132 465 115 q 532 168 513 149 q 562 204 551 188 l 630 660 q 618 665 628 661 q 592 672 608 668 q 558 679 577 675 q 522 682 540 682 q 453 667 487 682 q 387 625 418 652 q 328 561 355 598 q 281 479 301 524 q 250 384 261 435 q 238 281 238 334 m 527 1219 l 622 1219 l 708 841 l 597 841 l 553 1057 l 431 841 l 307 841 l 527 1219 z "},"ã":{"ha":763,"x_min":103,"x_max":786,"o":"m 772 711 l 669 0 l 566 0 l 562 129 q 521 70 545 96 q 469 25 498 43 q 408 -4 441 6 q 340 -14 375 -14 q 231 8 275 -14 q 157 69 186 31 q 116 160 129 108 q 103 272 103 212 q 117 386 103 326 q 157 503 131 446 q 220 612 183 560 q 303 702 257 663 q 402 764 349 741 q 516 787 456 787 q 580 781 547 787 q 644 766 613 775 q 700 746 674 757 q 741 727 725 736 l 772 711 m 238 281 q 272 137 238 181 q 377 92 307 92 q 437 103 408 92 q 489 132 465 115 q 532 168 513 149 q 562 204 551 188 l 630 660 q 618 665 628 661 q 592 672 608 668 q 558 679 577 675 q 522 682 540 682 q 453 667 487 682 q 387 625 418 652 q 328 561 355 598 q 281 479 301 524 q 250 384 261 435 q 238 281 238 334 m 640 873 q 572 887 605 873 q 508 917 538 901 q 453 947 478 933 q 409 960 428 960 q 391 958 399 960 q 376 948 382 956 q 365 928 369 941 q 360 891 361 914 l 253 891 q 267 970 254 937 q 299 1027 279 1004 q 348 1060 320 1049 q 410 1071 376 1071 q 475 1058 445 1071 q 531 1028 505 1044 q 582 999 557 1012 q 629 985 606 985 q 650 988 641 985 q 665 997 659 990 q 674 1017 671 1004 q 678 1050 677 1030 l 786 1050 q 773 969 785 1002 q 741 914 761 935 q 695 883 722 893 q 640 873 669 873 z "},"ä":{"ha":763,"x_min":103,"x_max":772,"o":"m 772 711 l 669 0 l 566 0 l 562 129 q 521 70 545 96 q 469 25 498 43 q 408 -4 441 6 q 340 -14 375 -14 q 231 8 275 -14 q 157 69 186 31 q 116 160 129 108 q 103 272 103 212 q 117 386 103 326 q 157 503 131 446 q 220 612 183 560 q 303 702 257 663 q 402 764 349 741 q 516 787 456 787 q 580 781 547 787 q 644 766 613 775 q 700 746 674 757 q 741 727 725 736 l 772 711 m 238 281 q 272 137 238 181 q 377 92 307 92 q 437 103 408 92 q 489 132 465 115 q 532 168 513 149 q 562 204 551 188 l 630 660 q 618 665 628 661 q 592 672 608 668 q 558 679 577 675 q 522 682 540 682 q 453 667 487 682 q 387 625 418 652 q 328 561 355 598 q 281 479 301 524 q 250 384 261 435 q 238 281 238 334 m 434 983 q 425 942 433 961 q 402 907 416 922 q 371 884 389 892 q 335 875 353 875 q 304 881 319 875 q 280 898 290 887 q 264 923 270 909 q 258 956 258 938 q 267 997 258 977 q 289 1033 275 1017 q 321 1058 303 1048 q 360 1067 340 1067 q 413 1044 393 1067 q 434 987 433 1022 l 434 983 m 748 981 q 739 941 747 960 q 716 907 730 922 q 685 883 703 892 q 649 874 667 874 q 595 897 616 874 q 573 955 574 920 q 582 996 573 976 q 604 1032 590 1017 q 636 1057 618 1047 q 674 1066 654 1066 q 727 1043 707 1066 q 748 986 747 1020 l 748 981 z "},"å":{"ha":763,"x_min":103,"x_max":772,"o":"m 772 711 l 669 0 l 566 0 l 562 129 q 521 70 545 96 q 469 25 498 43 q 408 -4 441 6 q 340 -14 375 -14 q 231 8 275 -14 q 157 69 186 31 q 116 160 129 108 q 103 272 103 212 q 117 386 103 326 q 157 503 131 446 q 220 612 183 560 q 303 702 257 663 q 402 764 349 741 q 516 787 456 787 q 580 781 547 787 q 644 766 613 775 q 700 746 674 757 q 741 727 725 736 l 772 711 m 238 281 q 272 137 238 181 q 377 92 307 92 q 437 103 408 92 q 489 132 465 115 q 532 168 513 149 q 562 204 551 188 l 630 660 q 618 665 628 661 q 592 672 608 668 q 558 679 577 675 q 522 682 540 682 q 453 667 487 682 q 387 625 418 652 q 328 561 355 598 q 281 479 301 524 q 250 384 261 435 q 238 281 238 334 m 577 1128 q 539 1119 557 1128 q 508 1095 522 1110 q 488 1061 495 1080 q 480 1021 480 1042 q 500 966 481 988 q 554 943 519 943 q 591 952 574 943 q 622 976 609 961 q 643 1010 635 991 q 650 1050 650 1029 q 630 1105 650 1083 q 577 1128 610 1128 m 406 1009 q 421 1082 406 1048 q 460 1141 435 1116 q 518 1181 486 1166 q 587 1196 551 1196 q 642 1186 617 1196 q 686 1157 667 1175 q 714 1113 704 1138 q 726 1060 725 1088 q 712 987 726 1021 q 672 928 697 954 q 615 889 648 903 q 545 874 582 874 q 490 884 515 874 q 446 912 465 895 q 417 955 427 930 q 406 1009 406 979 z "},"æ":{"ha":1183,"x_min":103,"x_max":1196,"o":"m 1101 64 q 975 6 1042 26 q 849 -14 909 -14 q 699 20 758 -14 q 608 118 641 54 q 551 66 585 90 q 481 25 518 43 q 407 -3 444 7 q 340 -14 370 -14 q 232 8 277 -14 q 158 67 187 29 q 116 158 130 106 q 103 272 103 210 q 117 388 103 328 q 157 506 131 448 q 220 614 183 563 q 305 704 258 665 q 408 765 352 743 q 526 787 463 787 q 623 778 581 787 q 695 756 665 768 q 742 733 725 744 q 765 720 760 722 q 858 770 808 752 q 966 788 907 788 q 1138 722 1080 788 q 1196 527 1196 656 q 1194 499 1196 514 q 1177 469 1191 484 q 1133 438 1162 454 q 1049 410 1103 423 q 913 385 996 396 q 713 365 831 373 q 707 319 709 341 q 705 279 705 298 q 751 137 705 184 q 879 90 798 90 q 980 112 932 90 q 1078 170 1029 133 l 1101 64 m 238 276 q 273 136 239 179 q 377 92 307 92 q 433 102 404 92 q 490 127 463 112 q 541 160 517 142 q 580 195 564 178 q 574 236 576 215 q 572 281 572 257 q 581 376 572 328 q 604 471 589 425 q 642 562 619 518 q 692 643 664 606 q 679 650 690 644 q 646 663 667 656 q 594 676 625 670 q 526 682 564 682 q 419 649 471 682 q 327 560 368 616 q 262 431 287 505 q 238 276 238 357 m 726 451 q 873 468 813 460 q 972 484 933 476 q 1033 499 1011 492 q 1064 512 1054 506 q 1075 525 1074 519 q 1077 535 1077 530 q 1045 646 1077 609 q 955 684 1013 684 q 874 668 911 684 q 807 622 837 652 q 757 548 778 591 q 726 451 736 505 z "},"ç":{"ha":660,"x_min":104,"x_max":727,"o":"m 104 288 q 136 494 104 401 q 223 651 169 586 q 350 752 278 717 q 498 787 421 787 q 623 768 568 787 q 727 709 678 748 l 674 606 q 644 633 663 619 q 602 657 625 646 q 553 674 579 667 q 503 681 528 681 q 409 661 450 681 q 339 605 369 640 q 291 524 310 570 q 260 425 271 477 q 249 355 252 389 q 245 291 245 321 q 284 141 244 191 q 400 92 325 92 q 475 103 439 92 q 543 130 512 114 q 574 150 559 139 q 606 172 590 161 l 625 71 q 499 8 561 29 q 368 -14 437 -13 q 263 5 312 -13 q 179 60 215 23 q 123 153 144 96 q 104 288 103 210 m 264 -347 l 269 -286 q 314 -304 288 -295 q 368 -316 339 -314 q 384 -317 376 -317 q 399 -317 391 -317 q 438 -309 422 -316 q 464 -290 454 -301 q 478 -263 474 -278 q 482 -234 482 -249 q 438 -177 481 -201 q 306 -153 395 -153 l 354 25 l 431 25 q 389 -94 395 -67 q 425 -96 404 -94 q 466 -103 445 -98 q 506 -118 486 -109 q 541 -142 526 -127 q 566 -176 556 -156 q 575 -222 575 -195 l 575 -227 q 559 -300 574 -268 q 519 -355 544 -332 q 460 -389 494 -377 q 387 -401 426 -401 q 316 -390 347 -401 q 264 -366 286 -380 l 264 -347 z "},"è":{"ha":709,"x_min":103,"x_max":739,"o":"m 267 451 q 415 468 355 460 q 514 484 475 476 q 574 499 553 492 q 605 512 595 506 q 617 525 615 519 q 618 535 618 530 q 586 647 618 609 q 496 684 554 684 q 416 668 453 684 q 349 622 378 652 q 299 548 319 591 q 267 451 278 505 m 643 64 q 517 6 583 26 q 391 -14 450 -14 q 267 7 321 -14 q 177 65 214 27 q 122 158 140 103 q 103 282 103 213 q 115 402 103 342 q 149 519 126 463 q 205 624 172 575 q 281 710 238 673 q 378 767 325 746 q 495 788 432 788 q 680 721 621 788 q 739 527 739 654 q 736 499 739 514 q 719 469 733 484 q 675 438 705 454 q 591 410 645 423 q 455 385 537 396 q 254 365 373 373 q 249 319 251 341 q 247 279 247 298 q 293 137 247 184 q 420 90 339 90 q 522 112 473 90 q 619 170 570 133 l 643 64 m 533 888 l 461 888 l 304 1324 l 506 1324 l 533 888 z "},"é":{"ha":709,"x_min":103,"x_max":739,"o":"m 267 451 q 415 468 355 460 q 514 484 475 476 q 574 499 553 492 q 605 512 595 506 q 617 525 615 519 q 618 535 618 530 q 586 647 618 609 q 496 684 554 684 q 416 668 453 684 q 349 622 378 652 q 299 548 319 591 q 267 451 278 505 m 643 64 q 517 6 583 26 q 391 -14 450 -14 q 267 7 321 -14 q 177 65 214 27 q 122 158 140 103 q 103 282 103 213 q 115 402 103 342 q 149 519 126 463 q 205 624 172 575 q 281 710 238 673 q 378 767 325 746 q 495 788 432 788 q 680 721 621 788 q 739 527 739 654 q 736 499 739 514 q 719 469 733 484 q 675 438 705 454 q 591 410 645 423 q 455 385 537 396 q 254 365 373 373 q 249 319 251 341 q 247 279 247 298 q 293 137 247 184 q 420 90 339 90 q 522 112 473 90 q 619 170 570 133 l 643 64 m 505 874 l 404 874 l 531 1308 l 718 1308 l 505 874 z "},"ê":{"ha":709,"x_min":103,"x_max":739,"o":"m 267 451 q 415 468 355 460 q 514 484 475 476 q 574 499 553 492 q 605 512 595 506 q 617 525 615 519 q 618 535 618 530 q 586 647 618 609 q 496 684 554 684 q 416 668 453 684 q 349 622 378 652 q 299 548 319 591 q 267 451 278 505 m 643 64 q 517 6 583 26 q 391 -14 450 -14 q 267 7 321 -14 q 177 65 214 27 q 122 158 140 103 q 103 282 103 213 q 115 402 103 342 q 149 519 126 463 q 205 624 172 575 q 281 710 238 673 q 378 767 325 746 q 495 788 432 788 q 680 721 621 788 q 739 527 739 654 q 736 499 739 514 q 719 469 733 484 q 675 438 705 454 q 591 410 645 423 q 455 385 537 396 q 254 365 373 373 q 249 319 251 341 q 247 279 247 298 q 293 137 247 184 q 420 90 339 90 q 522 112 473 90 q 619 170 570 133 l 643 64 m 505 1219 l 600 1219 l 686 841 l 575 841 l 532 1057 l 409 841 l 285 841 l 505 1219 z "},"ë":{"ha":709,"x_min":103,"x_max":739,"o":"m 267 451 q 415 468 355 460 q 514 484 475 476 q 574 499 553 492 q 605 512 595 506 q 617 525 615 519 q 618 535 618 530 q 586 647 618 609 q 496 684 554 684 q 416 668 453 684 q 349 622 378 652 q 299 548 319 591 q 267 451 278 505 m 643 64 q 517 6 583 26 q 391 -14 450 -14 q 267 7 321 -14 q 177 65 214 27 q 122 158 140 103 q 103 282 103 213 q 115 402 103 342 q 149 519 126 463 q 205 624 172 575 q 281 710 238 673 q 378 767 325 746 q 495 788 432 788 q 680 721 621 788 q 739 527 739 654 q 736 499 739 514 q 719 469 733 484 q 675 438 705 454 q 591 410 645 423 q 455 385 537 396 q 254 365 373 373 q 249 319 251 341 q 247 279 247 298 q 293 137 247 184 q 420 90 339 90 q 522 112 473 90 q 619 170 570 133 l 643 64 m 412 983 q 403 942 412 961 q 380 907 394 922 q 349 884 367 892 q 313 875 332 875 q 283 881 297 875 q 258 898 269 887 q 242 923 248 909 q 237 956 237 938 q 245 997 237 977 q 267 1033 253 1017 q 300 1058 281 1048 q 338 1067 318 1067 q 391 1044 371 1067 q 412 987 412 1022 l 412 983 m 726 981 q 717 941 726 960 q 694 907 708 922 q 663 883 681 892 q 627 874 646 874 q 573 897 594 874 q 551 955 552 920 q 560 996 551 976 q 582 1032 568 1017 q 614 1057 596 1047 q 652 1066 633 1066 q 705 1043 685 1066 q 726 986 726 1020 l 726 981 z "},"ì":{"ha":406,"x_min":124,"x_max":372,"o":"m 262 0 l 124 0 l 234 786 l 372 786 l 262 0 m 351 851 l 285 838 l 136 1240 l 324 1286 l 351 851 z "},"í":{"ha":406,"x_min":124,"x_max":582,"o":"m 262 0 l 124 0 l 234 786 l 372 786 l 262 0 m 317 827 l 260 841 l 415 1269 l 582 1221 l 317 827 z "},"î":{"ha":380,"x_min":103,"x_max":505,"o":"m 256 0 l 119 0 l 228 774 l 367 774 l 256 0 m 323 1211 l 418 1211 l 505 833 l 393 833 l 350 1049 l 227 833 l 103 833 l 323 1211 z "},"ï":{"ha":406,"x_min":69,"x_max":559,"o":"m 262 0 l 124 0 l 234 786 l 372 786 l 262 0 m 244 947 q 235 907 243 926 q 212 873 226 888 q 181 849 199 858 q 145 840 163 840 q 115 846 129 840 q 91 863 101 852 q 75 889 81 874 q 69 920 69 903 q 78 962 69 941 q 100 998 86 982 q 132 1023 114 1013 q 170 1032 151 1032 q 223 1009 203 1032 q 245 952 243 987 q 244 950 245 951 q 244 947 244 949 m 559 946 q 549 906 558 925 q 527 871 541 886 q 496 848 513 857 q 460 839 478 839 q 429 845 444 839 q 405 862 415 851 q 389 887 395 873 q 383 920 383 902 q 392 961 383 941 q 414 997 400 981 q 446 1021 428 1012 q 484 1031 465 1031 q 514 1025 500 1031 q 537 1008 528 1019 q 553 982 547 997 q 559 951 559 968 l 559 946 z "},"ð":{"ha":801,"x_min":104,"x_max":808,"o":"m 238 302 q 239 256 237 277 q 243 217 240 235 q 368 99 266 99 q 444 117 408 99 q 511 171 481 136 q 562 258 541 206 q 593 376 583 309 q 600 437 597 406 q 604 502 602 469 q 584 579 600 549 q 546 628 568 610 q 498 653 524 646 q 450 661 472 661 q 373 644 406 661 q 318 598 341 627 q 279 533 294 570 q 255 456 264 496 q 242 376 246 416 q 238 302 239 336 m 104 281 q 112 397 103 338 q 140 510 121 456 q 186 613 159 565 q 251 696 214 661 q 333 751 288 731 q 432 772 378 772 q 495 763 465 772 q 550 739 525 754 q 594 705 574 724 q 625 666 613 686 q 545 909 613 783 l 405 859 l 383 933 l 503 977 q 396 1099 450 1054 l 466 1189 q 551 1113 513 1154 q 623 1021 590 1072 l 787 1080 l 808 1006 l 663 953 q 722 783 702 871 q 743 596 743 694 q 720 357 745 468 q 646 164 696 246 q 522 34 596 81 q 348 -13 447 -13 q 237 10 283 -13 q 161 72 191 33 q 118 165 132 112 q 104 281 104 219 z "},"ñ":{"ha":789,"x_min":87,"x_max":796,"o":"m 564 0 q 591 192 579 111 q 611 333 602 274 q 625 432 619 392 q 633 501 630 473 q 636 528 635 519 q 636 543 636 536 q 631 601 636 575 q 613 644 625 626 q 580 671 601 662 q 529 681 559 681 q 471 670 503 681 q 408 643 439 659 q 351 610 377 627 q 311 578 325 592 l 229 0 l 87 0 l 197 774 l 300 774 l 306 654 q 358 703 327 679 q 427 745 390 726 q 502 775 463 764 q 576 787 541 787 q 780 572 780 787 q 780 558 780 565 q 778 542 779 551 q 776 521 777 533 q 772 492 774 509 q 763 415 768 458 q 749 312 757 371 q 730 176 741 252 q 705 0 719 99 l 564 0 m 650 873 q 582 887 615 873 q 518 917 549 901 q 463 947 488 933 q 419 960 438 960 q 401 958 410 960 q 386 948 393 956 q 375 928 379 941 q 370 891 371 914 l 263 891 q 277 970 264 937 q 310 1027 289 1004 q 358 1060 330 1049 q 420 1071 387 1071 q 485 1058 455 1071 q 541 1028 515 1044 q 592 999 568 1012 q 640 985 616 985 q 660 988 651 985 q 675 997 669 990 q 684 1017 681 1004 q 688 1050 688 1030 l 796 1050 q 783 969 795 1002 q 751 914 771 935 q 706 883 732 893 q 650 873 680 873 z "},"ò":{"ha":783,"x_min":104,"x_max":787,"o":"m 104 291 q 114 407 104 348 q 145 522 124 467 q 199 625 167 576 q 277 710 232 673 q 378 767 321 746 q 506 787 435 787 q 640 763 586 787 q 726 696 694 738 q 773 600 759 654 q 787 486 787 545 q 758 294 787 385 q 677 135 730 203 q 550 26 625 66 q 384 -14 475 -14 q 268 7 319 -14 q 180 67 216 28 q 123 163 143 106 q 104 291 104 220 m 401 92 q 484 110 447 92 q 548 156 520 127 q 594 224 575 185 q 626 305 614 262 q 644 392 638 348 q 649 477 649 437 q 641 558 649 521 q 614 623 633 595 q 565 665 595 650 q 490 681 535 681 q 406 662 443 681 q 341 613 369 644 q 294 542 313 582 q 263 459 275 502 q 247 373 252 416 q 241 294 241 330 q 250 214 241 251 q 276 150 258 177 q 326 108 295 123 q 401 92 356 92 m 558 888 l 486 888 l 330 1324 l 531 1324 l 558 888 z "},"ó":{"ha":783,"x_min":104,"x_max":787,"o":"m 104 291 q 114 407 104 348 q 145 522 124 467 q 199 625 167 576 q 277 710 232 673 q 378 767 321 746 q 506 787 435 787 q 640 763 586 787 q 726 696 694 738 q 773 600 759 654 q 787 486 787 545 q 758 294 787 385 q 677 135 730 203 q 550 26 625 66 q 384 -14 475 -14 q 268 7 319 -14 q 180 67 216 28 q 123 163 143 106 q 104 291 104 220 m 401 92 q 484 110 447 92 q 548 156 520 127 q 594 224 575 185 q 626 305 614 262 q 644 392 638 348 q 649 477 649 437 q 641 558 649 521 q 614 623 633 595 q 565 665 595 650 q 490 681 535 681 q 406 662 443 681 q 341 613 369 644 q 294 542 313 582 q 263 459 275 502 q 247 373 252 416 q 241 294 241 330 q 250 214 241 251 q 276 150 258 177 q 326 108 295 123 q 401 92 356 92 m 530 874 l 429 874 l 556 1308 l 743 1308 l 530 874 z "},"ô":{"ha":783,"x_min":104,"x_max":787,"o":"m 104 291 q 114 407 104 348 q 145 522 124 467 q 199 625 167 576 q 277 710 232 673 q 378 767 321 746 q 506 787 435 787 q 640 763 586 787 q 726 696 694 738 q 773 600 759 654 q 787 486 787 545 q 758 294 787 385 q 677 135 730 203 q 550 26 625 66 q 384 -14 475 -14 q 268 7 319 -14 q 180 67 216 28 q 123 163 143 106 q 104 291 104 220 m 401 92 q 484 110 447 92 q 548 156 520 127 q 594 224 575 185 q 626 305 614 262 q 644 392 638 348 q 649 477 649 437 q 641 558 649 521 q 614 623 633 595 q 565 665 595 650 q 490 681 535 681 q 406 662 443 681 q 341 613 369 644 q 294 542 313 582 q 263 459 275 502 q 247 373 252 416 q 241 294 241 330 q 250 214 241 251 q 276 150 258 177 q 326 108 295 123 q 401 92 356 92 m 530 1219 l 625 1219 l 711 841 l 600 841 l 557 1057 l 434 841 l 310 841 l 530 1219 z "},"õ":{"ha":783,"x_min":104,"x_max":790,"o":"m 104 291 q 114 407 104 348 q 145 522 124 467 q 199 625 167 576 q 277 710 232 673 q 378 767 321 746 q 506 787 435 787 q 640 763 586 787 q 726 696 694 738 q 773 600 759 654 q 787 486 787 545 q 758 294 787 385 q 677 135 730 203 q 550 26 625 66 q 384 -14 475 -14 q 268 7 319 -14 q 180 67 216 28 q 123 163 143 106 q 104 291 104 220 m 401 92 q 484 110 447 92 q 548 156 520 127 q 594 224 575 185 q 626 305 614 262 q 644 392 638 348 q 649 477 649 437 q 641 558 649 521 q 614 623 633 595 q 565 665 595 650 q 490 681 535 681 q 406 662 443 681 q 341 613 369 644 q 294 542 313 582 q 263 459 275 502 q 247 373 252 416 q 241 294 241 330 q 250 214 241 251 q 276 150 258 177 q 326 108 295 123 q 401 92 356 92 m 644 873 q 576 887 609 873 q 512 917 543 901 q 457 947 482 933 q 413 960 432 960 q 395 958 404 960 q 380 948 387 956 q 369 928 373 941 q 364 891 365 914 l 257 891 q 271 970 258 937 q 303 1027 283 1004 q 352 1060 324 1049 q 414 1071 380 1071 q 479 1058 449 1071 q 535 1028 509 1044 q 586 999 562 1012 q 633 985 610 985 q 654 988 645 985 q 669 997 663 990 q 678 1017 675 1004 q 682 1050 682 1030 l 790 1050 q 777 969 789 1002 q 745 914 765 935 q 700 883 726 893 q 644 873 673 873 z "},"ö":{"ha":783,"x_min":104,"x_max":787,"o":"m 104 291 q 114 407 104 348 q 145 522 124 467 q 199 625 167 576 q 277 710 232 673 q 378 767 321 746 q 506 787 435 787 q 640 763 586 787 q 726 696 694 738 q 773 600 759 654 q 787 486 787 545 q 758 294 787 385 q 677 135 730 203 q 550 26 625 66 q 384 -14 475 -14 q 268 7 319 -14 q 180 67 216 28 q 123 163 143 106 q 104 291 104 220 m 401 92 q 484 110 447 92 q 548 156 520 127 q 594 224 575 185 q 626 305 614 262 q 644 392 638 348 q 649 477 649 437 q 641 558 649 521 q 614 623 633 595 q 565 665 595 650 q 490 681 535 681 q 406 662 443 681 q 341 613 369 644 q 294 542 313 582 q 263 459 275 502 q 247 373 252 416 q 241 294 241 330 q 250 214 241 251 q 276 150 258 177 q 326 108 295 123 q 401 92 356 92 m 437 983 q 428 942 437 961 q 406 907 419 922 q 374 884 392 892 q 338 875 357 875 q 308 881 322 875 q 283 898 294 887 q 268 923 273 909 q 262 956 262 938 q 270 997 262 977 q 292 1033 278 1017 q 325 1058 307 1048 q 363 1067 343 1067 q 416 1044 396 1067 q 437 987 437 1022 l 437 983 m 751 981 q 742 941 751 960 q 720 907 733 922 q 688 883 706 892 q 652 874 671 874 q 598 897 619 874 q 576 955 577 920 q 585 996 576 976 q 607 1032 593 1017 q 640 1057 621 1047 q 677 1066 658 1066 q 730 1043 710 1066 q 751 986 751 1020 l 751 981 z "},"÷":{"ha":570,"x_min":106,"x_max":395,"o":"m 167 437 l 199 643 l 395 643 l 363 437 l 167 437 m 106 0 l 138 207 l 334 207 l 303 0 l 106 0 z "},"ø":{"ha":746,"x_min":104,"x_max":749,"o":"m 351 90 q 371 86 361 87 q 391 85 381 85 q 484 110 446 85 q 549 174 523 134 q 591 264 576 214 q 614 365 606 314 q 620 421 618 395 q 621 467 621 448 q 576 627 621 578 l 351 90 m 104 290 q 110 384 103 332 q 134 489 117 435 q 179 592 151 542 q 249 682 207 642 q 348 745 291 721 q 479 768 404 768 q 570 755 526 768 l 618 873 l 667 851 l 620 734 q 714 631 683 697 q 748 478 745 564 q 748 441 749 460 q 747 404 748 422 q 730 304 742 355 q 697 208 718 254 q 646 121 676 162 q 577 51 616 81 q 487 4 537 21 q 375 -14 437 -14 q 313 -7 341 -14 l 265 -123 l 214 -100 l 259 8 q 190 52 219 24 q 142 115 161 79 q 114 195 123 151 q 104 290 104 239 m 531 657 q 471 669 498 669 q 382 648 420 669 q 316 592 344 627 q 272 511 289 557 q 245 414 254 465 q 235 347 237 380 q 232 288 232 315 q 300 110 233 160 l 531 657 z "},"ù":{"ha":795,"x_min":121,"x_max":806,"o":"m 336 774 q 330 734 334 765 q 320 661 326 704 q 307 565 314 617 q 293 461 300 513 q 280 361 286 409 q 269 278 273 313 q 265 249 267 260 q 264 235 264 238 q 274 163 263 192 q 311 111 285 128 q 375 92 336 93 q 480 117 430 93 q 582 189 531 142 l 665 774 l 806 774 l 697 0 l 594 0 q 590 59 592 31 q 586 118 587 87 q 473 20 532 54 q 349 -14 414 -14 q 121 213 121 -14 q 125 261 121 222 q 137 354 130 300 q 149 440 142 395 q 160 529 155 485 q 172 613 166 572 q 181 687 177 654 q 189 743 186 720 q 194 774 193 766 l 336 774 m 573 885 l 501 885 l 345 1321 l 546 1321 l 573 885 z "},"ú":{"ha":795,"x_min":121,"x_max":806,"o":"m 336 774 q 330 734 334 765 q 320 661 326 704 q 307 565 314 617 q 293 461 300 513 q 280 361 286 409 q 269 278 273 313 q 265 249 267 260 q 264 235 264 238 q 274 163 263 192 q 311 111 285 128 q 375 92 336 93 q 480 117 430 93 q 582 189 531 142 l 665 774 l 806 774 l 697 0 l 594 0 q 590 59 592 31 q 586 118 587 87 q 473 20 532 54 q 349 -14 414 -14 q 121 213 121 -14 q 125 261 121 222 q 137 354 130 300 q 149 440 142 395 q 160 529 155 485 q 172 613 166 572 q 181 687 177 654 q 189 743 186 720 q 194 774 193 766 l 336 774 m 545 871 l 444 871 l 572 1305 l 759 1305 l 545 871 z "},"û":{"ha":795,"x_min":121,"x_max":806,"o":"m 336 774 q 330 734 334 765 q 320 661 326 704 q 307 565 314 617 q 293 461 300 513 q 280 361 286 409 q 269 278 273 313 q 265 249 267 260 q 264 235 264 238 q 274 163 263 192 q 311 111 285 128 q 375 92 336 93 q 480 117 430 93 q 582 189 531 142 l 665 774 l 806 774 l 697 0 l 594 0 q 590 59 592 31 q 586 118 587 87 q 473 20 532 54 q 349 -14 414 -14 q 121 213 121 -14 q 125 261 121 222 q 137 354 130 300 q 149 440 142 395 q 160 529 155 485 q 172 613 166 572 q 181 687 177 654 q 189 743 186 720 q 194 774 193 766 l 336 774 m 483 1232 l 578 1232 l 664 854 l 553 854 l 509 1069 l 387 854 l 262 854 l 483 1232 z "},"ü":{"ha":795,"x_min":121,"x_max":806,"o":"m 336 774 q 330 734 334 765 q 320 661 326 704 q 307 565 314 617 q 293 461 300 513 q 280 361 286 409 q 269 278 273 313 q 265 249 267 260 q 264 235 264 238 q 274 163 263 192 q 311 111 285 128 q 375 92 336 93 q 480 117 430 93 q 582 189 531 142 l 665 774 l 806 774 l 697 0 l 594 0 q 590 59 592 31 q 586 118 587 87 q 473 20 532 54 q 349 -14 414 -14 q 121 213 121 -14 q 125 261 121 222 q 137 354 130 300 q 149 440 142 395 q 160 529 155 485 q 172 613 166 572 q 181 687 177 654 q 189 743 186 720 q 194 774 193 766 l 336 774 m 394 996 q 385 955 393 974 q 362 920 376 935 q 331 897 349 905 q 295 888 313 888 q 264 894 279 888 q 240 911 250 900 q 224 936 230 922 q 218 968 218 951 q 227 1010 218 990 q 249 1046 235 1030 q 281 1070 263 1061 q 320 1080 300 1080 q 373 1057 353 1080 q 394 1000 393 1035 l 394 996 m 708 994 q 699 954 707 973 q 676 920 690 935 q 645 896 663 905 q 609 887 627 887 q 555 910 576 887 q 533 968 534 933 q 542 1009 533 989 q 564 1045 550 1029 q 596 1069 578 1060 q 634 1079 614 1079 q 687 1056 667 1079 q 708 999 707 1033 l 708 994 z "},"ý":{"ha":698,"x_min":43,"x_max":788,"o":"m 43 -210 q 88 -199 67 -205 q 126 -186 109 -194 q 224 -108 183 -162 q 298 23 265 -54 l 281 98 l 126 774 l 260 774 l 379 189 l 638 774 l 779 774 l 435 41 q 388 -58 413 -7 q 330 -154 362 -109 q 256 -237 297 -200 q 161 -294 214 -274 q 117 -307 140 -302 q 68 -315 94 -313 l 43 -210 m 574 887 l 473 887 l 601 1320 l 788 1320 l 574 887 z "},"þ":{"ha":787,"x_min":77,"x_max":791,"o":"m 791 473 q 782 369 791 424 q 756 259 774 313 q 711 156 739 205 q 646 70 684 107 q 558 9 608 32 q 448 -13 509 -13 q 265 64 316 -13 l 213 -307 l 77 -325 l 272 1058 l 404 1058 l 349 664 q 448 741 393 713 q 559 769 502 769 q 668 745 624 769 q 740 679 712 720 q 779 584 767 637 q 791 473 791 530 m 463 102 q 534 121 504 102 q 586 171 564 140 q 623 241 608 201 q 645 321 637 280 q 657 403 654 363 q 661 476 661 444 q 540 654 661 654 q 482 644 511 654 q 427 618 453 633 q 377 586 400 604 q 338 553 355 568 l 285 180 q 306 162 291 175 q 343 136 320 149 q 396 113 366 123 q 463 102 426 102 z "},"ÿ":{"ha":698,"x_min":43,"x_max":779,"o":"m 43 -210 q 88 -199 67 -205 q 126 -186 109 -194 q 224 -108 183 -162 q 298 23 265 -54 l 281 98 l 126 774 l 260 774 l 379 189 l 638 774 l 779 774 l 435 41 q 388 -58 413 -7 q 330 -154 362 -109 q 256 -237 297 -200 q 161 -294 214 -274 q 117 -307 140 -302 q 68 -315 94 -313 l 43 -210 m 342 996 q 332 955 341 974 q 310 920 323 935 q 279 897 296 905 q 243 888 261 888 q 212 894 227 888 q 188 911 198 900 q 172 936 178 922 q 166 968 166 951 q 174 1010 166 990 q 197 1046 182 1030 q 229 1070 211 1061 q 268 1080 248 1080 q 321 1057 300 1080 q 342 1000 341 1035 l 342 996 m 656 994 q 646 954 655 973 q 624 920 637 935 q 593 896 610 905 q 557 887 575 887 q 503 910 524 887 q 481 968 481 933 q 489 1009 481 989 q 512 1045 498 1029 q 544 1069 526 1060 q 582 1079 562 1079 q 635 1056 614 1079 q 656 999 655 1033 l 656 994 z "},"Ā":{"ha":893,"x_min":18,"x_max":931,"o":"m 595 951 l 484 706 l 318 341 l 678 341 l 627 700 l 595 951 m 513 1076 l 709 1076 l 874 0 l 728 0 l 691 262 l 284 262 l 165 0 l 18 0 l 513 1076 m 916 1173 l 460 1173 l 476 1288 l 931 1288 l 916 1173 z "},"ā":{"ha":763,"x_min":103,"x_max":774,"o":"m 772 711 l 669 0 l 566 0 l 562 129 q 521 70 545 96 q 469 25 498 43 q 408 -4 441 6 q 340 -14 375 -14 q 231 8 275 -14 q 157 69 186 31 q 116 160 129 108 q 103 272 103 212 q 117 386 103 326 q 157 503 131 446 q 220 612 183 560 q 303 702 257 663 q 402 764 349 741 q 516 787 456 787 q 580 781 547 787 q 644 766 613 775 q 700 746 674 757 q 741 727 725 736 l 772 711 m 238 281 q 272 137 238 181 q 377 92 307 92 q 437 103 408 92 q 489 132 465 115 q 532 168 513 149 q 562 204 551 188 l 630 660 q 618 665 628 661 q 592 672 608 668 q 558 679 577 675 q 522 682 540 682 q 453 667 487 682 q 387 625 418 652 q 328 561 355 598 q 281 479 301 524 q 250 384 261 435 q 238 281 238 334 m 759 878 l 303 878 l 319 993 l 774 993 l 759 878 z "},"Ă":{"ha":893,"x_min":18,"x_max":893,"o":"m 595 951 l 484 706 l 318 341 l 678 341 l 627 700 l 595 951 m 513 1076 l 709 1076 l 874 0 l 728 0 l 691 262 l 284 262 l 165 0 l 18 0 l 513 1076 m 893 1333 q 891 1321 892 1327 q 888 1310 890 1316 q 822 1196 871 1236 q 685 1156 772 1156 q 567 1191 604 1156 q 529 1291 530 1225 q 529 1311 528 1300 q 532 1333 530 1322 l 623 1333 q 621 1313 621 1322 q 624 1287 620 1298 q 636 1267 629 1276 q 699 1236 652 1236 q 769 1261 742 1236 q 804 1333 796 1286 l 893 1333 z "},"ă":{"ha":763,"x_min":103,"x_max":772,"o":"m 772 711 l 669 0 l 566 0 l 562 129 q 521 70 545 96 q 469 25 498 43 q 408 -4 441 6 q 340 -14 375 -14 q 231 8 275 -14 q 157 69 186 31 q 116 160 129 108 q 103 272 103 212 q 117 386 103 326 q 157 503 131 446 q 220 612 183 560 q 303 702 257 663 q 402 764 349 741 q 516 787 456 787 q 580 781 547 787 q 644 766 613 775 q 700 746 674 757 q 741 727 725 736 l 772 711 m 238 281 q 272 137 238 181 q 377 92 307 92 q 437 103 408 92 q 489 132 465 115 q 532 168 513 149 q 562 204 551 188 l 630 660 q 618 665 628 661 q 592 672 608 668 q 558 679 577 675 q 522 682 540 682 q 453 667 487 682 q 387 625 418 652 q 328 561 355 598 q 281 479 301 524 q 250 384 261 435 q 238 281 238 334 m 736 1038 q 734 1026 735 1032 q 731 1015 733 1021 q 665 901 714 941 q 528 861 616 861 q 410 896 447 861 q 372 996 373 930 q 373 1016 372 1005 q 375 1038 374 1027 l 466 1038 q 464 1018 464 1027 q 468 992 463 1003 q 479 972 472 981 q 542 941 496 941 q 612 966 585 941 q 647 1038 640 991 l 736 1038 z "},"Ą":{"ha":893,"x_min":18,"x_max":874,"o":"m 595 951 l 484 706 l 318 341 l 678 341 l 627 700 l 595 951 m 513 1076 l 709 1076 l 874 0 l 728 0 l 691 262 l 284 262 l 165 0 l 18 0 l 513 1076 m 840 -352 q 802 -361 823 -357 q 762 -367 785 -364 q 715 -370 740 -370 q 651 -363 684 -370 q 592 -338 618 -356 q 550 -289 566 -321 q 533 -208 533 -258 q 542 -160 533 -183 q 564 -118 550 -138 q 595 -80 577 -98 q 631 -48 613 -62 q 730 13 675 -14 l 802 13 q 714 -58 753 -20 q 682 -92 698 -73 q 653 -130 666 -110 q 633 -170 641 -149 q 626 -210 626 -190 q 635 -249 626 -234 q 659 -273 644 -264 q 693 -285 674 -281 q 732 -288 712 -288 q 771 -286 751 -288 q 806 -280 790 -283 q 840 -272 823 -277 l 840 -352 z "},"ą":{"ha":763,"x_min":103,"x_max":772,"o":"m 772 711 l 669 0 l 566 0 l 562 129 q 521 70 545 96 q 469 25 498 43 q 408 -4 441 6 q 340 -14 375 -14 q 231 8 275 -14 q 157 69 186 31 q 116 160 129 108 q 103 272 103 212 q 117 386 103 326 q 157 503 131 446 q 220 612 183 560 q 303 702 257 663 q 402 764 349 741 q 516 787 456 787 q 580 781 547 787 q 644 766 613 775 q 700 746 674 757 q 741 727 725 736 l 772 711 m 238 281 q 272 137 238 181 q 377 92 307 92 q 437 103 408 92 q 489 132 465 115 q 532 168 513 149 q 562 204 551 188 l 630 660 q 618 665 628 661 q 592 672 608 668 q 558 679 577 675 q 522 682 540 682 q 453 667 487 682 q 387 625 418 652 q 328 561 355 598 q 281 479 301 524 q 250 384 261 435 q 238 281 238 334 m 688 -352 q 650 -361 671 -357 q 610 -367 633 -364 q 564 -370 588 -370 q 499 -363 532 -370 q 440 -338 467 -356 q 398 -289 414 -321 q 381 -208 381 -258 q 390 -160 381 -183 q 412 -118 398 -138 q 443 -80 425 -98 q 479 -48 461 -62 q 578 13 523 -14 l 650 13 q 562 -58 601 -20 q 530 -92 546 -73 q 502 -130 514 -110 q 481 -170 489 -149 q 474 -210 474 -190 q 483 -249 474 -234 q 507 -273 492 -264 q 541 -285 522 -281 q 580 -288 560 -288 q 619 -286 600 -288 q 654 -280 638 -283 q 688 -272 671 -277 l 688 -352 z "},"Ć":{"ha":807,"x_min":134,"x_max":1017,"o":"m 134 367 q 148 551 134 460 q 192 723 163 642 q 263 872 220 804 q 363 990 307 940 q 492 1067 420 1040 q 648 1095 563 1095 q 717 1091 684 1095 q 782 1079 750 1087 q 848 1061 814 1072 q 920 1036 882 1050 l 869 918 q 759 956 811 941 q 652 971 707 971 q 536 948 589 971 q 443 885 484 926 q 372 788 402 844 q 323 667 342 732 q 294 527 303 601 q 284 378 284 454 q 341 165 284 234 q 510 96 398 96 q 566 102 536 96 q 628 119 595 109 q 693 142 660 129 q 758 170 726 155 l 783 56 q 714 25 749 40 q 644 -2 680 10 q 570 -20 608 -14 q 489 -27 531 -27 q 225 72 317 -27 q 134 367 134 172 m 803 1182 l 702 1182 l 829 1615 l 1017 1615 l 803 1182 z "},"ć":{"ha":660,"x_min":104,"x_max":792,"o":"m 104 288 q 136 494 104 401 q 223 651 169 586 q 350 752 278 717 q 498 787 421 787 q 623 768 568 787 q 727 709 678 748 l 674 606 q 644 633 663 619 q 602 657 625 646 q 553 674 579 667 q 503 681 528 681 q 409 661 450 681 q 339 605 369 640 q 291 524 310 570 q 260 425 271 477 q 249 355 252 389 q 245 291 245 321 q 284 141 244 191 q 400 92 325 92 q 475 103 439 92 q 543 130 512 114 q 574 150 559 139 q 606 172 590 161 l 625 71 q 499 8 561 29 q 368 -14 437 -13 q 263 5 312 -13 q 179 60 215 23 q 123 153 144 96 q 104 288 103 210 m 578 887 l 477 887 l 605 1320 l 792 1320 l 578 887 z "},"Ĉ":{"ha":807,"x_min":134,"x_max":920,"o":"m 134 367 q 148 551 134 460 q 192 723 163 642 q 263 872 220 804 q 363 990 307 940 q 492 1067 420 1040 q 648 1095 563 1095 q 717 1091 684 1095 q 782 1079 750 1087 q 848 1061 814 1072 q 920 1036 882 1050 l 869 918 q 759 956 811 941 q 652 971 707 971 q 536 948 589 971 q 443 885 484 926 q 372 788 402 844 q 323 667 342 732 q 294 527 303 601 q 284 378 284 454 q 341 165 284 234 q 510 96 398 96 q 566 102 536 96 q 628 119 595 109 q 693 142 660 129 q 758 170 726 155 l 783 56 q 714 25 749 40 q 644 -2 680 10 q 570 -20 608 -14 q 489 -27 531 -27 q 225 72 317 -27 q 134 367 134 172 m 659 1527 l 754 1527 l 840 1149 l 729 1149 l 686 1364 l 563 1149 l 439 1149 l 659 1527 z "},"ĉ":{"ha":660,"x_min":104,"x_max":727,"o":"m 104 288 q 136 494 104 401 q 223 651 169 586 q 350 752 278 717 q 498 787 421 787 q 623 768 568 787 q 727 709 678 748 l 674 606 q 644 633 663 619 q 602 657 625 646 q 553 674 579 667 q 503 681 528 681 q 409 661 450 681 q 339 605 369 640 q 291 524 310 570 q 260 425 271 477 q 249 355 252 389 q 245 291 245 321 q 284 141 244 191 q 400 92 325 92 q 475 103 439 92 q 543 130 512 114 q 574 150 559 139 q 606 172 590 161 l 625 71 q 499 8 561 29 q 368 -14 437 -13 q 263 5 312 -13 q 179 60 215 23 q 123 153 144 96 q 104 288 103 210 m 435 1232 l 530 1232 l 616 854 l 505 854 l 461 1069 l 338 854 l 214 854 l 435 1232 z "},"Ċ":{"ha":807,"x_min":134,"x_max":920,"o":"m 134 367 q 148 551 134 460 q 192 723 163 642 q 263 872 220 804 q 363 990 307 940 q 492 1067 420 1040 q 648 1095 563 1095 q 717 1091 684 1095 q 782 1079 750 1087 q 848 1061 814 1072 q 920 1036 882 1050 l 869 918 q 759 956 811 941 q 652 971 707 971 q 536 948 589 971 q 443 885 484 926 q 372 788 402 844 q 323 667 342 732 q 294 527 303 601 q 284 378 284 454 q 341 165 284 234 q 510 96 398 96 q 566 102 536 96 q 628 119 595 109 q 693 142 660 129 q 758 170 726 155 l 783 56 q 714 25 749 40 q 644 -2 680 10 q 570 -20 608 -14 q 489 -27 531 -27 q 225 72 317 -27 q 134 367 134 172 m 810 1198 l 607 1198 l 638 1419 l 840 1419 l 810 1198 z "},"ċ":{"ha":660,"x_min":104,"x_max":727,"o":"m 104 288 q 136 494 104 401 q 223 651 169 586 q 350 752 278 717 q 498 787 421 787 q 623 768 568 787 q 727 709 678 748 l 674 606 q 644 633 663 619 q 602 657 625 646 q 553 674 579 667 q 503 681 528 681 q 409 661 450 681 q 339 605 369 640 q 291 524 310 570 q 260 425 271 477 q 249 355 252 389 q 245 291 245 321 q 284 141 244 191 q 400 92 325 92 q 475 103 439 92 q 543 130 512 114 q 574 150 559 139 q 606 172 590 161 l 625 71 q 499 8 561 29 q 368 -14 437 -13 q 263 5 312 -13 q 179 60 215 23 q 123 153 144 96 q 104 288 103 210 m 586 903 l 382 903 l 414 1124 l 616 1124 l 586 903 z "},"Č":{"ha":807,"x_min":134,"x_max":989,"o":"m 134 367 q 148 551 134 460 q 192 723 163 642 q 263 872 220 804 q 363 990 307 940 q 492 1067 420 1040 q 648 1095 563 1095 q 717 1091 684 1095 q 782 1079 750 1087 q 848 1061 814 1072 q 920 1036 882 1050 l 869 918 q 759 956 811 941 q 652 971 707 971 q 536 948 589 971 q 443 885 484 926 q 372 788 402 844 q 323 667 342 732 q 294 527 303 601 q 284 378 284 454 q 341 165 284 234 q 510 96 398 96 q 566 102 536 96 q 628 119 595 109 q 693 142 660 129 q 758 170 726 155 l 783 56 q 714 25 749 40 q 644 -2 680 10 q 570 -20 608 -14 q 489 -27 531 -27 q 225 72 317 -27 q 134 367 134 172 m 762 1168 l 667 1168 l 587 1547 l 698 1547 l 742 1331 l 865 1547 l 989 1547 l 762 1168 z "},"č":{"ha":660,"x_min":104,"x_max":764,"o":"m 104 288 q 136 494 104 401 q 223 651 169 586 q 350 752 278 717 q 498 787 421 787 q 623 768 568 787 q 727 709 678 748 l 674 606 q 644 633 663 619 q 602 657 625 646 q 553 674 579 667 q 503 681 528 681 q 409 661 450 681 q 339 605 369 640 q 291 524 310 570 q 260 425 271 477 q 249 355 252 389 q 245 291 245 321 q 284 141 244 191 q 400 92 325 92 q 475 103 439 92 q 543 130 512 114 q 574 150 559 139 q 606 172 590 161 l 625 71 q 499 8 561 29 q 368 -14 437 -13 q 263 5 312 -13 q 179 60 215 23 q 123 153 144 96 q 104 288 103 210 m 538 873 l 443 873 l 363 1252 l 473 1252 l 517 1036 l 640 1252 l 764 1252 l 538 873 z "},"Ď":{"ha":930,"x_min":85,"x_max":943,"o":"m 795 673 q 739 893 795 823 q 567 963 684 963 l 369 963 l 247 112 l 455 112 q 578 139 526 112 q 668 210 631 165 q 731 312 706 254 q 770 433 755 370 q 789 557 784 495 q 795 673 795 620 m 943 674 q 935 534 943 609 q 904 384 926 458 q 846 239 883 309 q 754 117 810 170 q 622 32 699 64 q 443 0 545 0 l 85 0 l 238 1076 l 581 1076 q 736 1052 669 1076 q 850 978 804 1027 q 920 853 896 929 q 943 674 943 778 m 637 1168 l 542 1168 l 462 1547 l 572 1547 l 616 1331 l 739 1547 l 863 1547 l 637 1168 z "},"ď":{"ha":1272,"x_min":102,"x_max":1113,"o":"m 441 787 q 505 776 476 787 q 557 748 534 765 q 597 710 581 731 q 625 671 614 690 l 686 1107 l 826 1124 l 665 0 l 570 0 l 564 121 q 516 68 543 93 q 460 25 490 43 q 398 -3 431 7 q 332 -14 366 -14 q 225 9 269 -14 q 154 73 181 33 q 115 166 127 113 q 102 281 102 220 q 111 391 102 333 q 138 505 120 449 q 184 612 157 562 q 250 702 212 663 q 335 764 288 741 q 441 787 383 787 m 237 302 q 237 266 236 284 q 240 229 237 247 q 252 176 243 201 q 274 132 260 151 q 310 103 288 113 q 361 92 331 92 q 421 102 392 92 q 476 127 451 112 q 523 160 502 142 q 557 193 543 178 q 575 327 568 270 q 589 425 583 384 q 599 494 595 466 q 605 539 603 522 q 609 568 608 557 q 612 585 611 578 q 596 604 610 588 q 561 636 583 619 q 509 667 539 654 q 441 681 479 681 q 372 661 402 681 q 319 609 342 641 q 282 536 297 576 q 257 453 267 495 q 242 371 247 411 q 237 302 238 332 m 889 858 l 909 1079 l 1113 1079 l 1093 859 q 1073 785 1088 817 q 1034 732 1058 754 q 979 695 1010 710 q 912 671 948 681 l 881 739 q 948 783 922 753 q 982 858 975 813 l 889 858 z "},"Đ":{"ha":930,"x_min":76,"x_max":943,"o":"m 795 673 q 739 893 795 823 q 567 963 684 963 l 369 963 l 247 112 l 455 112 q 578 139 526 112 q 668 210 631 165 q 731 312 706 254 q 770 433 755 370 q 789 557 784 495 q 795 673 795 620 m 943 674 q 935 534 943 609 q 904 384 926 458 q 846 239 883 309 q 754 117 810 170 q 622 32 699 64 q 443 0 545 0 l 85 0 l 238 1076 l 581 1076 q 736 1052 669 1076 q 850 978 804 1027 q 920 853 896 929 q 943 674 943 778 m 532 524 l 76 524 l 92 638 l 547 638 l 532 524 z "},"đ":{"ha":762,"x_min":102,"x_max":879,"o":"m 441 787 q 505 776 476 787 q 557 748 534 765 q 597 710 581 731 q 625 671 614 690 l 686 1107 l 826 1124 l 665 0 l 570 0 l 564 121 q 516 68 543 93 q 460 25 490 43 q 398 -3 431 7 q 332 -14 366 -14 q 225 9 269 -14 q 154 73 181 33 q 115 166 127 113 q 102 281 102 220 q 111 391 102 333 q 138 505 120 449 q 184 612 157 562 q 250 702 212 663 q 335 764 288 741 q 441 787 383 787 m 237 302 q 237 266 236 284 q 240 229 237 247 q 252 176 243 201 q 274 132 260 151 q 310 103 288 113 q 361 92 331 92 q 421 102 392 92 q 476 127 451 112 q 523 160 502 142 q 557 193 543 178 q 575 327 568 270 q 589 425 583 384 q 599 494 595 466 q 605 539 603 522 q 609 568 608 557 q 612 585 611 578 q 596 604 610 588 q 561 636 583 619 q 509 667 539 654 q 441 681 479 681 q 372 661 402 681 q 319 609 342 641 q 282 536 297 576 q 257 453 267 495 q 242 371 247 411 q 237 302 238 332 m 865 871 l 450 871 l 465 976 l 879 976 l 865 871 z "},"Ē":{"ha":752,"x_min":85,"x_max":857,"o":"m 714 0 l 85 0 l 237 1076 l 857 1076 l 840 963 l 366 963 l 317 615 l 734 615 l 720 518 l 303 518 l 245 112 l 732 112 l 714 0 m 792 1173 l 336 1173 l 353 1288 l 808 1288 l 792 1173 z "},"ē":{"ha":724,"x_min":103,"x_max":758,"o":"m 267 451 q 415 468 355 460 q 514 484 475 476 q 574 499 553 492 q 605 512 595 506 q 617 525 615 519 q 618 535 618 530 q 586 647 618 609 q 496 684 554 684 q 416 668 453 684 q 349 622 378 652 q 299 548 319 591 q 267 451 278 505 m 643 64 q 517 6 583 26 q 391 -14 450 -14 q 267 7 321 -14 q 177 65 214 27 q 122 158 140 103 q 103 282 103 213 q 115 402 103 342 q 149 519 126 463 q 205 624 172 575 q 281 710 238 673 q 378 767 325 746 q 495 788 432 788 q 680 721 621 788 q 739 527 739 654 q 736 499 739 514 q 719 469 733 484 q 675 438 705 454 q 591 410 645 423 q 455 385 537 396 q 254 365 373 373 q 249 319 251 341 q 247 279 247 298 q 293 137 247 184 q 420 90 339 90 q 522 112 473 90 q 619 170 570 133 l 643 64 m 742 878 l 286 878 l 302 993 l 758 993 l 742 878 z "},"Ĕ":{"ha":752,"x_min":85,"x_max":857,"o":"m 714 0 l 85 0 l 237 1076 l 857 1076 l 840 963 l 366 963 l 317 615 l 734 615 l 720 518 l 303 518 l 245 112 l 732 112 l 714 0 m 770 1333 q 767 1321 768 1327 q 764 1310 766 1316 q 698 1196 747 1236 q 562 1156 649 1156 q 443 1191 480 1156 q 406 1291 406 1225 q 406 1311 405 1300 q 408 1333 407 1322 l 499 1333 q 497 1313 497 1322 q 501 1287 496 1298 q 513 1267 505 1276 q 575 1236 529 1236 q 646 1261 618 1236 q 680 1333 673 1286 l 770 1333 z "},"ĕ":{"ha":724,"x_min":103,"x_max":739,"o":"m 267 451 q 415 468 355 460 q 514 484 475 476 q 574 499 553 492 q 605 512 595 506 q 617 525 615 519 q 618 535 618 530 q 586 647 618 609 q 496 684 554 684 q 416 668 453 684 q 349 622 378 652 q 299 548 319 591 q 267 451 278 505 m 643 64 q 517 6 583 26 q 391 -14 450 -14 q 267 7 321 -14 q 177 65 214 27 q 122 158 140 103 q 103 282 103 213 q 115 402 103 342 q 149 519 126 463 q 205 624 172 575 q 281 710 238 673 q 378 767 325 746 q 495 788 432 788 q 680 721 621 788 q 739 527 739 654 q 736 499 739 514 q 719 469 733 484 q 675 438 705 454 q 591 410 645 423 q 455 385 537 396 q 254 365 373 373 q 249 319 251 341 q 247 279 247 298 q 293 137 247 184 q 420 90 339 90 q 522 112 473 90 q 619 170 570 133 l 643 64 m 720 1038 q 717 1026 718 1032 q 714 1015 716 1021 q 648 901 697 941 q 511 861 599 861 q 393 896 430 861 q 355 996 356 930 q 356 1016 355 1005 q 358 1038 357 1027 l 449 1038 q 447 1018 447 1027 q 451 992 446 1003 q 463 972 455 981 q 525 941 479 941 q 595 966 568 941 q 630 1038 623 991 l 720 1038 z "},"Ė":{"ha":752,"x_min":85,"x_max":857,"o":"m 714 0 l 85 0 l 237 1076 l 857 1076 l 840 963 l 366 963 l 317 615 l 734 615 l 720 518 l 303 518 l 245 112 l 732 112 l 714 0 m 642 1198 l 438 1198 l 469 1419 l 671 1419 l 642 1198 z "},"ė":{"ha":724,"x_min":103,"x_max":739,"o":"m 267 451 q 415 468 355 460 q 514 484 475 476 q 574 499 553 492 q 605 512 595 506 q 617 525 615 519 q 618 535 618 530 q 586 647 618 609 q 496 684 554 684 q 416 668 453 684 q 349 622 378 652 q 299 548 319 591 q 267 451 278 505 m 643 64 q 517 6 583 26 q 391 -14 450 -14 q 267 7 321 -14 q 177 65 214 27 q 122 158 140 103 q 103 282 103 213 q 115 402 103 342 q 149 519 126 463 q 205 624 172 575 q 281 710 238 673 q 378 767 325 746 q 495 788 432 788 q 680 721 621 788 q 739 527 739 654 q 736 499 739 514 q 719 469 733 484 q 675 438 705 454 q 591 410 645 423 q 455 385 537 396 q 254 365 373 373 q 249 319 251 341 q 247 279 247 298 q 293 137 247 184 q 420 90 339 90 q 522 112 473 90 q 619 170 570 133 l 643 64 m 591 903 l 388 903 l 419 1124 l 621 1124 l 591 903 z "},"Ę":{"ha":752,"x_min":85,"x_max":857,"o":"m 714 0 l 85 0 l 237 1076 l 857 1076 l 840 963 l 366 963 l 317 615 l 734 615 l 720 518 l 303 518 l 245 112 l 732 112 l 714 0 m 622 -352 q 585 -361 605 -357 q 545 -367 567 -364 q 498 -370 522 -370 q 433 -363 466 -370 q 375 -338 401 -356 q 332 -289 349 -321 q 315 -208 315 -258 q 324 -160 315 -183 q 346 -118 332 -138 q 377 -80 359 -98 q 414 -48 395 -62 q 513 13 457 -14 l 585 13 q 496 -58 535 -20 q 464 -92 480 -73 q 436 -130 448 -110 q 416 -170 423 -149 q 408 -210 408 -190 q 417 -249 408 -234 q 441 -273 427 -264 q 475 -285 456 -281 q 514 -288 494 -288 q 553 -286 534 -288 q 588 -280 572 -283 q 622 -272 606 -277 l 622 -352 z "},"ę":{"ha":724,"x_min":103,"x_max":739,"o":"m 267 451 q 415 468 355 460 q 514 484 475 476 q 574 499 553 492 q 605 512 595 506 q 617 525 615 519 q 618 535 618 530 q 586 647 618 609 q 496 684 554 684 q 416 668 453 684 q 349 622 378 652 q 299 548 319 591 q 267 451 278 505 m 643 64 q 517 6 583 26 q 391 -14 450 -14 q 267 7 321 -14 q 177 65 214 27 q 122 158 140 103 q 103 282 103 213 q 115 402 103 342 q 149 519 126 463 q 205 624 172 575 q 281 710 238 673 q 378 767 325 746 q 495 788 432 788 q 680 721 621 788 q 739 527 739 654 q 736 499 739 514 q 719 469 733 484 q 675 438 705 454 q 591 410 645 423 q 455 385 537 396 q 254 365 373 373 q 249 319 251 341 q 247 279 247 298 q 293 137 247 184 q 420 90 339 90 q 522 112 473 90 q 619 170 570 133 l 643 64 m 572 -352 q 534 -361 555 -357 q 494 -367 517 -364 q 448 -370 472 -370 q 383 -363 416 -370 q 325 -338 351 -356 q 282 -289 298 -321 q 265 -208 265 -258 q 274 -160 265 -183 q 296 -118 282 -138 q 327 -80 309 -98 q 363 -48 345 -62 q 463 13 407 -14 l 534 13 q 446 -58 485 -20 q 414 -92 430 -73 q 386 -130 398 -110 q 366 -170 373 -149 q 358 -210 358 -190 q 367 -249 358 -234 q 391 -273 376 -264 q 425 -285 406 -281 q 464 -288 444 -288 q 503 -286 484 -288 q 538 -280 522 -283 q 572 -272 555 -277 l 572 -352 z "},"Ě":{"ha":752,"x_min":85,"x_max":857,"o":"m 714 0 l 85 0 l 237 1076 l 857 1076 l 840 963 l 366 963 l 317 615 l 734 615 l 720 518 l 303 518 l 245 112 l 732 112 l 714 0 m 593 1168 l 498 1168 l 418 1547 l 529 1547 l 573 1331 l 696 1547 l 820 1547 l 593 1168 z "},"ě":{"ha":724,"x_min":103,"x_max":770,"o":"m 267 451 q 415 468 355 460 q 514 484 475 476 q 574 499 553 492 q 605 512 595 506 q 617 525 615 519 q 618 535 618 530 q 586 647 618 609 q 496 684 554 684 q 416 668 453 684 q 349 622 378 652 q 299 548 319 591 q 267 451 278 505 m 643 64 q 517 6 583 26 q 391 -14 450 -14 q 267 7 321 -14 q 177 65 214 27 q 122 158 140 103 q 103 282 103 213 q 115 402 103 342 q 149 519 126 463 q 205 624 172 575 q 281 710 238 673 q 378 767 325 746 q 495 788 432 788 q 680 721 621 788 q 739 527 739 654 q 736 499 739 514 q 719 469 733 484 q 675 438 705 454 q 591 410 645 423 q 455 385 537 396 q 254 365 373 373 q 249 319 251 341 q 247 279 247 298 q 293 137 247 184 q 420 90 339 90 q 522 112 473 90 q 619 170 570 133 l 643 64 m 543 873 l 448 873 l 368 1252 l 479 1252 l 523 1036 l 646 1252 l 770 1252 l 543 873 z "},"Ĝ":{"ha":950,"x_min":134,"x_max":954,"o":"m 134 376 q 146 540 134 456 q 185 704 159 624 q 254 854 212 783 q 356 979 296 926 q 493 1064 415 1033 q 669 1095 571 1095 q 806 1073 734 1095 q 954 1003 878 1052 l 901 896 q 775 950 833 930 q 659 971 717 971 q 528 943 585 971 q 430 869 472 916 q 360 763 388 823 q 315 637 332 702 q 290 506 298 572 q 283 383 283 440 q 298 252 283 307 q 343 163 313 197 q 416 112 372 128 q 517 96 460 96 q 616 109 572 96 q 693 143 661 121 q 746 194 726 165 q 774 254 767 222 q 775 262 775 258 q 777 270 776 266 l 802 458 l 555 458 l 570 562 l 944 562 l 865 0 l 781 0 l 779 111 q 741 64 764 89 q 682 20 717 40 q 600 -14 647 -1 q 493 -27 553 -27 q 226 72 319 -27 q 134 376 134 172 m 700 1527 l 795 1527 l 881 1149 l 770 1149 l 726 1364 l 604 1149 l 479 1149 l 700 1527 z "},"ĝ":{"ha":751,"x_min":37,"x_max":850,"o":"m 286 530 q 297 474 286 498 q 327 435 309 451 q 367 411 345 419 q 411 402 389 403 q 498 417 462 405 q 556 451 534 430 q 590 502 579 473 q 600 570 600 532 q 589 620 600 598 q 559 657 578 642 q 515 679 541 671 q 461 687 490 687 q 381 676 414 687 q 326 644 347 665 q 295 595 305 624 q 286 530 286 566 m 153 -89 q 203 -165 153 -142 q 359 -189 252 -189 q 537 -158 478 -189 q 596 -61 596 -127 q 583 -15 596 -34 q 547 17 569 4 q 496 37 525 29 q 437 50 468 45 l 277 72 q 186 -8 218 33 q 153 -89 153 -50 m 721 568 q 652 399 721 465 q 446 300 583 332 l 275 262 q 206 218 213 248 q 238 185 212 197 q 299 166 264 174 q 373 155 334 159 q 444 146 412 151 q 564 119 513 134 q 648 79 614 103 q 699 22 682 56 q 715 -60 715 -12 q 700 -137 715 -103 q 658 -197 685 -172 q 595 -242 631 -223 q 516 -272 558 -260 q 429 -289 475 -283 q 338 -294 383 -294 q 214 -281 269 -294 q 119 -245 159 -269 q 58 -190 79 -222 q 37 -119 37 -157 q 57 -32 39 -67 q 102 29 75 3 q 130 52 115 41 q 159 73 145 63 q 183 89 173 82 q 197 98 194 96 q 186 103 197 98 q 160 116 174 107 q 132 137 146 125 q 115 163 119 149 q 104 229 102 192 q 139 299 106 271 q 239 343 172 326 l 309 361 q 257 378 283 366 q 209 413 231 391 q 174 463 188 434 q 161 530 161 492 q 180 630 161 583 q 237 712 199 677 q 328 767 274 747 q 453 787 382 787 q 552 775 509 787 q 634 736 595 764 q 702 764 671 753 q 763 780 732 774 q 806 789 785 786 q 850 794 827 792 l 846 677 l 679 677 q 711 615 702 641 q 721 568 721 589 m 463 1232 l 558 1232 l 644 854 l 533 854 l 490 1069 l 367 854 l 243 854 l 463 1232 z "},"Ğ":{"ha":950,"x_min":134,"x_max":954,"o":"m 134 376 q 146 540 134 456 q 185 704 159 624 q 254 854 212 783 q 356 979 296 926 q 493 1064 415 1033 q 669 1095 571 1095 q 806 1073 734 1095 q 954 1003 878 1052 l 901 896 q 775 950 833 930 q 659 971 717 971 q 528 943 585 971 q 430 869 472 916 q 360 763 388 823 q 315 637 332 702 q 290 506 298 572 q 283 383 283 440 q 298 252 283 307 q 343 163 313 197 q 416 112 372 128 q 517 96 460 96 q 616 109 572 96 q 693 143 661 121 q 746 194 726 165 q 774 254 767 222 q 775 262 775 258 q 777 270 776 266 l 802 458 l 555 458 l 570 562 l 944 562 l 865 0 l 781 0 l 779 111 q 741 64 764 89 q 682 20 717 40 q 600 -14 647 -1 q 493 -27 553 -27 q 226 72 319 -27 q 134 376 134 172 m 842 1333 q 840 1321 841 1327 q 837 1310 839 1316 q 771 1196 820 1236 q 634 1156 722 1156 q 516 1191 553 1156 q 478 1291 479 1225 q 478 1311 477 1300 q 481 1333 479 1322 l 572 1333 q 570 1313 570 1322 q 573 1287 569 1298 q 585 1267 578 1276 q 648 1236 602 1236 q 718 1261 691 1236 q 753 1333 745 1286 l 842 1333 z "},"ğ":{"ha":751,"x_min":37,"x_max":850,"o":"m 286 530 q 297 474 286 498 q 327 435 309 451 q 367 411 345 419 q 411 402 389 403 q 498 417 462 405 q 556 451 534 430 q 590 502 579 473 q 600 570 600 532 q 589 620 600 598 q 559 657 578 642 q 515 679 541 671 q 461 687 490 687 q 381 676 414 687 q 326 644 347 665 q 295 595 305 624 q 286 530 286 566 m 153 -89 q 203 -165 153 -142 q 359 -189 252 -189 q 537 -158 478 -189 q 596 -61 596 -127 q 583 -15 596 -34 q 547 17 569 4 q 496 37 525 29 q 437 50 468 45 l 277 72 q 186 -8 218 33 q 153 -89 153 -50 m 721 568 q 652 399 721 465 q 446 300 583 332 l 275 262 q 206 218 213 248 q 238 185 212 197 q 299 166 264 174 q 373 155 334 159 q 444 146 412 151 q 564 119 513 134 q 648 79 614 103 q 699 22 682 56 q 715 -60 715 -12 q 700 -137 715 -103 q 658 -197 685 -172 q 595 -242 631 -223 q 516 -272 558 -260 q 429 -289 475 -283 q 338 -294 383 -294 q 214 -281 269 -294 q 119 -245 159 -269 q 58 -190 79 -222 q 37 -119 37 -157 q 57 -32 39 -67 q 102 29 75 3 q 130 52 115 41 q 159 73 145 63 q 183 89 173 82 q 197 98 194 96 q 186 103 197 98 q 160 116 174 107 q 132 137 146 125 q 115 163 119 149 q 104 229 102 192 q 139 299 106 271 q 239 343 172 326 l 309 361 q 257 378 283 366 q 209 413 231 391 q 174 463 188 434 q 161 530 161 492 q 180 630 161 583 q 237 712 199 677 q 328 767 274 747 q 453 787 382 787 q 552 775 509 787 q 634 736 595 764 q 702 764 671 753 q 763 780 732 774 q 806 789 785 786 q 850 794 827 792 l 846 677 l 679 677 q 711 615 702 641 q 721 568 721 589 m 743 1038 q 740 1026 741 1032 q 737 1015 739 1021 q 671 901 720 941 q 534 861 622 861 q 416 896 453 861 q 378 996 379 930 q 379 1016 378 1005 q 381 1038 380 1027 l 472 1038 q 470 1018 470 1027 q 474 992 469 1003 q 486 972 478 981 q 548 941 502 941 q 618 966 591 941 q 653 1038 646 991 l 743 1038 z "},"Ġ":{"ha":950,"x_min":134,"x_max":954,"o":"m 134 376 q 146 540 134 456 q 185 704 159 624 q 254 854 212 783 q 356 979 296 926 q 493 1064 415 1033 q 669 1095 571 1095 q 806 1073 734 1095 q 954 1003 878 1052 l 901 896 q 775 950 833 930 q 659 971 717 971 q 528 943 585 971 q 430 869 472 916 q 360 763 388 823 q 315 637 332 702 q 290 506 298 572 q 283 383 283 440 q 298 252 283 307 q 343 163 313 197 q 416 112 372 128 q 517 96 460 96 q 616 109 572 96 q 693 143 661 121 q 746 194 726 165 q 774 254 767 222 q 775 262 775 258 q 777 270 776 266 l 802 458 l 555 458 l 570 562 l 944 562 l 865 0 l 781 0 l 779 111 q 741 64 764 89 q 682 20 717 40 q 600 -14 647 -1 q 493 -27 553 -27 q 226 72 319 -27 q 134 376 134 172 m 783 1198 l 579 1198 l 610 1419 l 812 1419 l 783 1198 z "},"ġ":{"ha":751,"x_min":37,"x_max":850,"o":"m 286 530 q 297 474 286 498 q 327 435 309 451 q 367 411 345 419 q 411 402 389 403 q 498 417 462 405 q 556 451 534 430 q 590 502 579 473 q 600 570 600 532 q 589 620 600 598 q 559 657 578 642 q 515 679 541 671 q 461 687 490 687 q 381 676 414 687 q 326 644 347 665 q 295 595 305 624 q 286 530 286 566 m 153 -89 q 203 -165 153 -142 q 359 -189 252 -189 q 537 -158 478 -189 q 596 -61 596 -127 q 583 -15 596 -34 q 547 17 569 4 q 496 37 525 29 q 437 50 468 45 l 277 72 q 186 -8 218 33 q 153 -89 153 -50 m 721 568 q 652 399 721 465 q 446 300 583 332 l 275 262 q 206 218 213 248 q 238 185 212 197 q 299 166 264 174 q 373 155 334 159 q 444 146 412 151 q 564 119 513 134 q 648 79 614 103 q 699 22 682 56 q 715 -60 715 -12 q 700 -137 715 -103 q 658 -197 685 -172 q 595 -242 631 -223 q 516 -272 558 -260 q 429 -289 475 -283 q 338 -294 383 -294 q 214 -281 269 -294 q 119 -245 159 -269 q 58 -190 79 -222 q 37 -119 37 -157 q 57 -32 39 -67 q 102 29 75 3 q 130 52 115 41 q 159 73 145 63 q 183 89 173 82 q 197 98 194 96 q 186 103 197 98 q 160 116 174 107 q 132 137 146 125 q 115 163 119 149 q 104 229 102 192 q 139 299 106 271 q 239 343 172 326 l 309 361 q 257 378 283 366 q 209 413 231 391 q 174 463 188 434 q 161 530 161 492 q 180 630 161 583 q 237 712 199 677 q 328 767 274 747 q 453 787 382 787 q 552 775 509 787 q 634 736 595 764 q 702 764 671 753 q 763 780 732 774 q 806 789 785 786 q 850 794 827 792 l 846 677 l 679 677 q 711 615 702 641 q 721 568 721 589 m 614 903 l 411 903 l 442 1124 l 644 1124 l 614 903 z "},"Ģ":{"ha":950,"x_min":134,"x_max":954,"o":"m 134 376 q 146 540 134 456 q 185 704 159 624 q 254 854 212 783 q 356 979 296 926 q 493 1064 415 1033 q 669 1095 571 1095 q 806 1073 734 1095 q 954 1003 878 1052 l 901 896 q 775 950 833 930 q 659 971 717 971 q 528 943 585 971 q 430 869 472 916 q 360 763 388 823 q 315 637 332 702 q 290 506 298 572 q 283 383 283 440 q 298 252 283 307 q 343 163 313 197 q 416 112 372 128 q 517 96 460 96 q 616 109 572 96 q 693 143 661 121 q 746 194 726 165 q 774 254 767 222 q 775 262 775 258 q 777 270 776 266 l 802 458 l 555 458 l 570 562 l 944 562 l 865 0 l 781 0 l 779 111 q 741 64 764 89 q 682 20 717 40 q 600 -14 647 -1 q 493 -27 553 -27 q 226 72 319 -27 q 134 376 134 172 m 349 -321 l 380 -100 l 583 -100 l 553 -319 q 533 -393 549 -362 q 494 -447 517 -425 q 439 -483 470 -469 q 372 -508 408 -498 l 341 -440 q 408 -396 380 -427 q 442 -321 436 -366 l 349 -321 z "},"ģ":{"ha":751,"x_min":37,"x_max":850,"o":"m 286 530 q 297 474 286 498 q 327 435 309 451 q 367 411 345 419 q 411 402 389 403 q 498 417 462 405 q 556 451 534 430 q 590 502 579 473 q 600 570 600 532 q 589 620 600 598 q 559 657 578 642 q 515 679 541 671 q 461 687 490 687 q 381 676 414 687 q 326 644 347 665 q 295 595 305 624 q 286 530 286 566 m 153 -89 q 203 -165 153 -142 q 359 -189 252 -189 q 537 -158 478 -189 q 596 -61 596 -127 q 583 -15 596 -34 q 547 17 569 4 q 496 37 525 29 q 437 50 468 45 l 277 72 q 186 -8 218 33 q 153 -89 153 -50 m 721 568 q 652 399 721 465 q 446 300 583 332 l 275 262 q 206 218 213 248 q 238 185 212 197 q 299 166 264 174 q 373 155 334 159 q 444 146 412 151 q 564 119 513 134 q 648 79 614 103 q 699 22 682 56 q 715 -60 715 -12 q 700 -137 715 -103 q 658 -197 685 -172 q 595 -242 631 -223 q 516 -272 558 -260 q 429 -289 475 -283 q 338 -294 383 -294 q 214 -281 269 -294 q 119 -245 159 -269 q 58 -190 79 -222 q 37 -119 37 -157 q 57 -32 39 -67 q 102 29 75 3 q 130 52 115 41 q 159 73 145 63 q 183 89 173 82 q 197 98 194 96 q 186 103 197 98 q 160 116 174 107 q 132 137 146 125 q 115 163 119 149 q 104 229 102 192 q 139 299 106 271 q 239 343 172 326 l 309 361 q 257 378 283 366 q 209 413 231 391 q 174 463 188 434 q 161 530 161 492 q 180 630 161 583 q 237 712 199 677 q 328 767 274 747 q 453 787 382 787 q 552 775 509 787 q 634 736 595 764 q 702 764 671 753 q 763 780 732 774 q 806 789 785 786 q 850 794 827 792 l 846 677 l 679 677 q 711 615 702 641 q 721 568 721 589 m 568 1059 l 551 838 l 347 838 l 366 1057 q 384 1131 369 1100 q 422 1184 399 1162 q 477 1221 446 1206 q 544 1246 508 1236 l 575 1177 q 506 1129 530 1157 q 475 1059 481 1102 l 568 1059 z "},"Ĥ":{"ha":966,"x_min":85,"x_max":1021,"o":"m 722 0 l 795 511 l 303 511 l 231 0 l 85 0 l 239 1076 l 384 1076 l 317 608 l 808 608 l 876 1076 l 1021 1076 l 867 0 l 722 0 m 662 1527 l 757 1527 l 843 1149 l 732 1149 l 688 1364 l 566 1149 l 441 1149 l 662 1527 z "},"ĥ":{"ha":795,"x_min":87,"x_max":787,"o":"m 387 1126 l 321 661 q 381 716 353 692 q 440 756 410 740 q 501 780 469 772 q 570 787 532 787 q 661 774 621 787 q 728 734 701 761 q 770 666 755 707 q 785 569 785 625 q 783 526 785 548 q 777 479 781 504 l 710 0 l 569 0 l 637 480 q 640 510 639 494 q 642 543 642 526 q 614 647 642 612 q 530 681 587 681 q 460 670 494 681 q 397 645 426 660 q 345 612 368 629 q 311 583 323 595 l 228 0 l 87 0 l 243 1109 l 387 1126 m 606 1232 l 701 1232 l 787 854 l 675 854 l 632 1069 l 509 854 l 385 854 l 606 1232 z "},"Ħ":{"ha":966,"x_min":85,"x_max":1089,"o":"m 1074 834 l 109 834 l 125 949 l 1089 949 l 1074 834 m 722 0 l 795 511 l 303 511 l 231 0 l 85 0 l 239 1076 l 384 1076 l 317 608 l 808 608 l 876 1076 l 1021 1076 l 867 0 l 722 0 z "},"ħ":{"ha":795,"x_min":87,"x_max":785,"o":"m 387 1126 l 321 661 q 381 716 353 692 q 440 756 410 740 q 501 780 469 772 q 570 787 532 787 q 661 774 621 787 q 728 734 701 761 q 770 666 755 707 q 785 569 785 625 q 783 526 785 548 q 777 479 781 504 l 710 0 l 569 0 l 637 480 q 640 510 639 494 q 642 543 642 526 q 614 647 642 612 q 530 681 587 681 q 460 670 494 681 q 397 645 426 660 q 345 612 368 629 q 311 583 323 595 l 228 0 l 87 0 l 243 1109 l 387 1126 m 579 878 l 123 878 l 140 993 l 595 993 l 579 878 z "},"Ĩ":{"ha":583,"x_min":84,"x_max":710,"o":"m 96 83 l 221 83 l 352 988 l 228 988 l 241 1076 l 635 1076 l 621 988 l 495 988 l 364 83 l 490 83 l 477 0 l 84 0 l 96 83 m 564 1162 q 496 1175 529 1162 q 432 1205 463 1189 q 377 1235 402 1221 q 333 1249 352 1249 q 315 1246 323 1249 q 300 1237 307 1244 q 289 1216 293 1230 q 284 1179 285 1202 l 177 1179 q 191 1259 178 1225 q 223 1315 203 1293 q 272 1348 244 1337 q 334 1359 300 1359 q 399 1346 369 1359 q 455 1316 429 1333 q 506 1287 481 1300 q 553 1274 530 1274 q 574 1276 565 1274 q 589 1285 583 1278 q 598 1305 595 1293 q 602 1339 602 1318 l 710 1339 q 697 1257 709 1291 q 665 1202 685 1223 q 620 1172 646 1181 q 564 1162 593 1162 z "},"ĩ":{"ha":380,"x_min":40,"x_max":573,"o":"m 256 0 l 119 0 l 228 774 l 367 774 l 256 0 m 427 825 q 359 838 392 825 q 295 868 326 852 q 240 898 265 884 q 196 911 215 911 q 178 909 186 911 q 163 900 170 907 q 152 879 156 892 q 147 842 148 865 l 40 842 q 54 922 41 888 q 86 978 66 956 q 135 1011 107 1000 q 197 1022 163 1022 q 262 1009 232 1022 q 318 979 292 996 q 369 950 345 963 q 416 937 393 937 q 437 939 428 937 q 452 948 446 941 q 461 968 458 956 q 465 1002 465 981 l 573 1002 q 560 920 572 954 q 528 865 548 886 q 483 834 509 844 q 427 825 456 825 z "},"Ī":{"ha":583,"x_min":84,"x_max":696,"o":"m 96 83 l 221 83 l 352 988 l 228 988 l 241 1076 l 635 1076 l 621 988 l 495 988 l 364 83 l 490 83 l 477 0 l 84 0 l 96 83 m 681 1173 l 225 1173 l 241 1288 l 696 1288 l 681 1173 z "},"ī":{"ha":380,"x_min":62,"x_max":533,"o":"m 256 0 l 119 0 l 228 774 l 367 774 l 256 0 m 517 844 l 62 844 l 78 959 l 533 959 l 517 844 z "},"Ĭ":{"ha":583,"x_min":84,"x_max":659,"o":"m 96 83 l 221 83 l 352 988 l 228 988 l 241 1076 l 635 1076 l 621 988 l 495 988 l 364 83 l 490 83 l 477 0 l 84 0 l 96 83 m 659 1333 q 656 1321 657 1327 q 653 1310 655 1316 q 587 1196 636 1236 q 450 1156 538 1156 q 332 1191 369 1156 q 294 1291 295 1225 q 295 1311 294 1300 q 297 1333 296 1322 l 388 1333 q 386 1313 386 1322 q 390 1287 385 1298 q 401 1267 394 1276 q 464 1236 418 1236 q 534 1261 507 1236 q 569 1333 562 1286 l 659 1333 z "},"Į":{"ha":583,"x_min":84,"x_max":635,"o":"m 96 83 l 221 83 l 352 988 l 228 988 l 241 1076 l 635 1076 l 621 988 l 495 988 l 364 83 l 490 83 l 477 0 l 84 0 l 96 83 m 511 -352 q 473 -361 494 -357 q 433 -367 456 -364 q 387 -370 411 -370 q 322 -363 355 -370 q 263 -338 290 -356 q 221 -289 237 -321 q 204 -208 204 -258 q 213 -160 204 -183 q 235 -118 221 -138 q 266 -80 248 -98 q 302 -48 284 -62 q 401 13 346 -14 l 473 13 q 385 -58 424 -20 q 353 -92 369 -73 q 325 -130 337 -110 q 304 -170 312 -149 q 297 -210 297 -190 q 306 -249 297 -234 q 330 -273 315 -264 q 364 -285 345 -281 q 403 -288 383 -288 q 442 -286 422 -288 q 477 -280 461 -283 q 511 -272 494 -277 l 511 -352 z "},"į":{"ha":366,"x_min":119,"x_max":413,"o":"m 413 1009 q 404 969 412 988 q 384 937 397 951 q 355 916 372 924 q 319 907 338 907 q 269 929 288 907 q 250 981 250 950 q 258 1020 250 1002 q 279 1054 266 1039 q 309 1077 292 1068 q 345 1086 326 1086 q 394 1065 376 1086 q 413 1014 413 1045 l 413 1009 m 256 0 l 119 0 l 228 774 l 367 774 l 256 0 z "},"İ":{"ha":583,"x_min":84,"x_max":635,"o":"m 96 83 l 221 83 l 352 988 l 228 988 l 241 1076 l 635 1076 l 621 988 l 495 988 l 364 83 l 490 83 l 477 0 l 84 0 l 96 83 m 547 1139 l 343 1139 l 374 1360 l 576 1360 l 547 1139 z "},"ı":{"ha":380,"x_min":119,"x_max":367,"o":"m 256 0 l 119 0 l 228 774 l 367 774 l 256 0 z "},"Ĵ":{"ha":452,"x_min":41,"x_max":652,"o":"m 41 43 q 131 67 94 54 q 193 97 168 81 q 234 134 218 113 q 259 180 249 154 q 274 239 269 206 q 285 312 279 271 l 393 1076 l 537 1076 l 436 354 q 415 233 427 288 q 386 134 404 178 q 342 56 368 90 q 278 -2 316 22 q 188 -40 240 -26 q 66 -61 136 -55 l 41 43 m 471 1480 l 566 1480 l 652 1103 l 541 1103 l 498 1318 l 375 1103 l 251 1103 l 471 1480 z "},"ĵ":{"ha":412,"x_min":20,"x_max":541,"o":"m 20 -153 q 86 -100 60 -127 q 131 -40 113 -73 q 159 34 149 -7 q 178 127 170 75 l 267 774 l 410 774 l 318 113 q 283 -19 308 41 q 223 -127 259 -80 q 142 -205 188 -174 q 45 -250 97 -237 l 20 -153 m 359 1232 l 454 1232 l 541 854 l 429 854 l 386 1069 l 263 854 l 139 854 l 359 1232 z "},"Ķ":{"ha":829,"x_min":87,"x_max":958,"o":"m 806 1076 l 958 1076 l 547 542 l 601 443 l 848 0 l 690 0 l 415 498 l 302 498 l 233 0 l 87 0 l 238 1076 l 383 1076 l 315 591 l 433 591 l 806 1076 m 328 -321 l 359 -100 l 562 -100 l 532 -319 q 512 -393 528 -362 q 473 -447 496 -425 q 418 -483 449 -469 q 351 -508 387 -498 l 320 -440 q 387 -396 359 -427 q 421 -321 415 -366 l 328 -321 z "},"ķ":{"ha":707,"x_min":87,"x_max":801,"o":"m 264 287 l 222 0 l 87 0 l 244 1109 l 383 1124 l 284 423 l 645 774 l 801 774 l 430 414 l 692 0 l 550 0 l 334 342 l 264 287 m 250 -321 l 281 -100 l 483 -100 l 453 -319 q 433 -393 449 -362 q 394 -447 418 -425 q 339 -483 370 -469 q 273 -508 308 -498 l 241 -440 q 309 -396 281 -427 q 342 -321 336 -366 l 250 -321 z "},"Ĺ":{"ha":711,"x_min":87,"x_max":772,"o":"m 690 0 l 87 0 l 238 1076 l 383 1076 l 248 112 l 704 112 l 690 0 m 559 1182 l 458 1182 l 585 1615 l 772 1615 l 559 1182 z "},"ĺ":{"ha":347,"x_min":102,"x_max":600,"o":"m 399 1124 l 238 0 l 102 0 l 260 1107 l 399 1124 m 386 1161 l 285 1161 l 412 1594 l 600 1594 l 386 1161 z "},"Ļ":{"ha":711,"x_min":87,"x_max":704,"o":"m 690 0 l 87 0 l 238 1076 l 383 1076 l 248 112 l 704 112 l 690 0 m 201 -321 l 233 -100 l 435 -100 l 405 -319 q 385 -393 401 -362 q 346 -447 370 -425 q 291 -483 322 -469 q 224 -508 260 -498 l 193 -440 q 260 -396 233 -427 q 294 -321 288 -366 l 201 -321 z "},"ļ":{"ha":347,"x_min":48,"x_max":399,"o":"m 399 1124 l 238 0 l 102 0 l 260 1107 l 399 1124 m 56 -321 l 87 -100 l 290 -100 l 260 -319 q 240 -393 256 -362 q 201 -447 224 -425 q 146 -483 177 -469 q 79 -508 115 -498 l 48 -440 q 115 -396 87 -427 q 149 -321 143 -366 l 56 -321 z "},"Ľ":{"ha":711,"x_min":87,"x_max":704,"o":"m 690 0 l 87 0 l 238 1076 l 383 1076 l 248 112 l 704 112 l 690 0 m 449 854 l 469 1075 l 673 1075 l 652 855 q 633 781 648 812 q 594 728 618 750 q 539 691 570 706 q 472 667 508 677 l 441 735 q 508 779 481 749 q 542 854 534 809 l 449 854 z "},"ľ":{"ha":857,"x_min":102,"x_max":699,"o":"m 399 1124 l 238 0 l 102 0 l 260 1107 l 399 1124 m 475 858 l 495 1079 l 699 1079 l 678 859 q 659 785 674 817 q 620 732 644 754 q 565 695 596 710 q 498 671 534 681 l 467 739 q 534 783 507 753 q 568 858 560 813 l 475 858 z "},"Ŀ":{"ha":705,"x_min":87,"x_max":704,"o":"m 690 0 l 87 0 l 238 1076 l 383 1076 l 248 112 l 704 112 l 690 0 m 663 746 l 460 746 l 491 967 l 693 967 l 663 746 z "},"ŀ":{"ha":332,"x_min":102,"x_max":399,"o":"m 399 1124 l 238 0 l 102 0 l 260 1107 l 399 1124 z "},"Ł":{"ha":711,"x_min":45,"x_max":704,"o":"m 690 0 l 87 0 l 238 1076 l 383 1076 l 248 112 l 704 112 l 690 0 m 46 529 l 45 633 l 578 633 l 580 529 l 46 529 z "},"ł":{"ha":347,"x_min":-1,"x_max":534,"o":"m 399 1124 l 238 0 l 102 0 l 260 1107 l 399 1124 m 1 741 l -1 846 l 533 846 l 534 741 l 1 741 z "},"Ń":{"ha":1022,"x_min":87,"x_max":1074,"o":"m 922 0 l 727 0 l 603 307 l 357 924 l 228 0 l 87 0 l 239 1076 l 435 1076 l 558 770 l 804 151 l 933 1076 l 1074 1076 l 922 0 m 744 1182 l 643 1182 l 770 1615 l 958 1615 l 744 1182 z "},"ń":{"ha":792,"x_min":87,"x_max":780,"o":"m 564 0 q 591 192 579 111 q 611 333 602 274 q 625 432 619 392 q 633 501 630 473 q 636 528 635 519 q 636 543 636 536 q 631 601 636 575 q 613 644 625 626 q 580 671 601 662 q 529 681 559 681 q 471 670 503 681 q 408 643 439 659 q 351 610 377 627 q 311 578 325 592 l 229 0 l 87 0 l 197 774 l 300 774 l 306 654 q 358 703 327 679 q 427 745 390 726 q 502 775 463 764 q 576 787 541 787 q 780 572 780 787 q 780 558 780 565 q 778 542 779 551 q 776 521 777 533 q 772 492 774 509 q 763 415 768 458 q 749 312 757 371 q 730 176 741 252 q 705 0 719 99 l 564 0 m 557 878 l 456 878 l 584 1312 l 771 1312 l 557 878 z "},"Ņ":{"ha":1022,"x_min":87,"x_max":1074,"o":"m 922 0 l 727 0 l 603 307 l 357 924 l 228 0 l 87 0 l 239 1076 l 435 1076 l 558 770 l 804 151 l 933 1076 l 1074 1076 l 922 0 m 387 -321 l 418 -100 l 620 -100 l 590 -319 q 570 -393 586 -362 q 531 -447 555 -425 q 476 -483 507 -469 q 410 -508 445 -498 l 378 -440 q 446 -396 418 -427 q 479 -321 473 -366 l 387 -321 z "},"ņ":{"ha":789,"x_min":87,"x_max":780,"o":"m 564 0 q 591 192 579 111 q 611 333 602 274 q 625 432 619 392 q 633 501 630 473 q 636 528 635 519 q 636 543 636 536 q 631 601 636 575 q 613 644 625 626 q 580 671 601 662 q 529 681 559 681 q 471 670 503 681 q 408 643 439 659 q 351 610 377 627 q 311 578 325 592 l 229 0 l 87 0 l 197 774 l 300 774 l 306 654 q 358 703 327 679 q 427 745 390 726 q 502 775 463 764 q 576 787 541 787 q 780 572 780 787 q 780 558 780 565 q 778 542 779 551 q 776 521 777 533 q 772 492 774 509 q 763 415 768 458 q 749 312 757 371 q 730 176 741 252 q 705 0 719 99 l 564 0 m 239 -321 l 271 -100 l 473 -100 l 443 -319 q 423 -393 439 -362 q 384 -447 408 -425 q 329 -483 360 -469 q 262 -508 298 -498 l 231 -440 q 298 -396 271 -427 q 332 -321 326 -366 l 239 -321 z "},"Ň":{"ha":1022,"x_min":87,"x_max":1074,"o":"m 922 0 l 727 0 l 603 307 l 357 924 l 228 0 l 87 0 l 239 1076 l 435 1076 l 558 770 l 804 151 l 933 1076 l 1074 1076 l 922 0 m 703 1168 l 608 1168 l 528 1547 l 639 1547 l 683 1331 l 806 1547 l 930 1547 l 703 1168 z "},"ň":{"ha":792,"x_min":87,"x_max":780,"o":"m 564 0 q 591 192 579 111 q 611 333 602 274 q 625 432 619 392 q 633 501 630 473 q 636 528 635 519 q 636 543 636 536 q 631 601 636 575 q 613 644 625 626 q 580 671 601 662 q 529 681 559 681 q 471 670 503 681 q 408 643 439 659 q 351 610 377 627 q 311 578 325 592 l 229 0 l 87 0 l 197 774 l 300 774 l 306 654 q 358 703 327 679 q 427 745 390 726 q 502 775 463 764 q 576 787 541 787 q 780 572 780 787 q 780 558 780 565 q 778 542 779 551 q 776 521 777 533 q 772 492 774 509 q 763 415 768 458 q 749 312 757 371 q 730 176 741 252 q 705 0 719 99 l 564 0 m 511 865 l 416 865 l 336 1243 l 447 1243 l 491 1027 l 614 1243 l 738 1243 l 511 865 z "},"Ŋ":{"ha":1022,"x_min":87,"x_max":1074,"o":"m 529 -296 q 640 -263 597 -281 q 709 -220 683 -245 q 747 -162 734 -195 q 768 -83 760 -129 l 603 307 l 357 924 l 228 0 l 87 0 l 239 1076 l 435 1076 l 558 770 l 804 151 l 933 1076 l 1074 1076 l 922 0 q 900 -117 912 -64 q 870 -212 888 -170 q 826 -287 852 -254 q 763 -342 800 -319 q 673 -380 725 -366 q 553 -400 622 -394 l 529 -296 z "},"ŋ":{"ha":789,"x_min":87,"x_max":780,"o":"m 423 -153 q 489 -100 463 -127 q 534 -40 516 -73 q 562 34 551 -7 q 581 127 573 75 q 602 276 593 213 q 617 383 610 338 q 627 456 623 428 q 633 501 631 485 q 636 528 635 519 q 636 543 636 536 q 631 601 636 575 q 613 644 625 626 q 580 671 601 662 q 529 681 559 681 q 471 670 503 681 q 408 643 439 659 q 351 610 377 627 q 311 578 325 592 l 229 0 l 87 0 l 197 774 l 300 774 l 306 654 q 358 703 327 679 q 427 745 390 726 q 502 775 463 764 q 576 787 541 787 q 780 572 780 787 q 780 558 780 565 q 778 542 779 551 q 776 521 777 533 q 772 492 774 509 q 765 435 770 469 q 755 363 761 401 q 745 284 750 324 q 734 209 739 243 q 726 148 730 174 q 721 113 722 122 q 686 -19 711 41 q 626 -127 662 -80 q 545 -205 591 -174 q 448 -250 500 -237 l 423 -153 z "},"Ō":{"ha":988,"x_min":134,"x_max":1001,"o":"m 1001 694 q 962 402 1001 534 q 854 174 924 269 q 690 26 785 79 q 483 -27 595 -27 q 338 -4 402 -27 q 228 68 273 20 q 158 189 182 116 q 134 361 134 262 q 151 561 134 466 q 200 738 168 656 q 278 885 232 819 q 380 998 323 951 q 505 1069 437 1044 q 648 1095 572 1095 q 807 1067 740 1095 q 917 987 873 1039 q 980 861 960 935 q 1001 694 1001 787 m 852 696 q 840 807 852 757 q 803 894 829 858 q 735 951 777 930 q 633 971 694 971 q 526 947 574 971 q 438 881 477 923 q 370 781 399 838 q 322 655 341 723 q 294 514 303 588 q 284 365 284 440 q 339 162 284 229 q 501 96 394 96 q 608 120 559 96 q 695 184 656 143 q 764 283 734 226 q 812 406 793 340 q 842 547 832 473 q 852 696 852 621 m 888 1173 l 433 1173 l 449 1288 l 904 1288 l 888 1173 z "},"ō":{"ha":783,"x_min":104,"x_max":787,"o":"m 104 291 q 114 407 104 348 q 145 522 124 467 q 199 625 167 576 q 277 710 232 673 q 378 767 321 746 q 506 787 435 787 q 640 763 586 787 q 726 696 694 738 q 773 600 759 654 q 787 486 787 545 q 758 294 787 385 q 677 135 730 203 q 550 26 625 66 q 384 -14 475 -14 q 268 7 319 -14 q 180 67 216 28 q 123 163 143 106 q 104 291 104 220 m 401 92 q 484 110 447 92 q 548 156 520 127 q 594 224 575 185 q 626 305 614 262 q 644 392 638 348 q 649 477 649 437 q 641 558 649 521 q 614 623 633 595 q 565 665 595 650 q 490 681 535 681 q 406 662 443 681 q 341 613 369 644 q 294 542 313 582 q 263 459 275 502 q 247 373 252 416 q 241 294 241 330 q 250 214 241 251 q 276 150 258 177 q 326 108 295 123 q 401 92 356 92 m 766 878 l 311 878 l 327 993 l 782 993 l 766 878 z "},"Ŏ":{"ha":988,"x_min":134,"x_max":1001,"o":"m 1001 694 q 962 402 1001 534 q 854 174 924 269 q 690 26 785 79 q 483 -27 595 -27 q 338 -4 402 -27 q 228 68 273 20 q 158 189 182 116 q 134 361 134 262 q 151 561 134 466 q 200 738 168 656 q 278 885 232 819 q 380 998 323 951 q 505 1069 437 1044 q 648 1095 572 1095 q 807 1067 740 1095 q 917 987 873 1039 q 980 861 960 935 q 1001 694 1001 787 m 852 696 q 840 807 852 757 q 803 894 829 858 q 735 951 777 930 q 633 971 694 971 q 526 947 574 971 q 438 881 477 923 q 370 781 399 838 q 322 655 341 723 q 294 514 303 588 q 284 365 284 440 q 339 162 284 229 q 501 96 394 96 q 608 120 559 96 q 695 184 656 143 q 764 283 734 226 q 812 406 793 340 q 842 547 832 473 q 852 696 852 621 m 866 1333 q 864 1321 865 1327 q 861 1310 863 1316 q 794 1196 844 1236 q 658 1156 745 1156 q 539 1191 576 1156 q 502 1291 503 1225 q 502 1311 501 1300 q 505 1333 503 1322 l 595 1333 q 593 1313 593 1322 q 597 1287 593 1298 q 609 1267 602 1276 q 671 1236 625 1236 q 742 1261 715 1236 q 777 1333 769 1286 l 866 1333 z "},"ŏ":{"ha":783,"x_min":104,"x_max":787,"o":"m 104 291 q 114 407 104 348 q 145 522 124 467 q 199 625 167 576 q 277 710 232 673 q 378 767 321 746 q 506 787 435 787 q 640 763 586 787 q 726 696 694 738 q 773 600 759 654 q 787 486 787 545 q 758 294 787 385 q 677 135 730 203 q 550 26 625 66 q 384 -14 475 -14 q 268 7 319 -14 q 180 67 216 28 q 123 163 143 106 q 104 291 104 220 m 401 92 q 484 110 447 92 q 548 156 520 127 q 594 224 575 185 q 626 305 614 262 q 644 392 638 348 q 649 477 649 437 q 641 558 649 521 q 614 623 633 595 q 565 665 595 650 q 490 681 535 681 q 406 662 443 681 q 341 613 369 644 q 294 542 313 582 q 263 459 275 502 q 247 373 252 416 q 241 294 241 330 q 250 214 241 251 q 276 150 258 177 q 326 108 295 123 q 401 92 356 92 m 744 1038 q 742 1026 743 1032 q 739 1015 741 1021 q 672 901 722 941 q 536 861 623 861 q 417 896 454 861 q 380 996 380 930 q 380 1016 379 1005 q 382 1038 381 1027 l 473 1038 q 471 1018 471 1027 q 475 992 471 1003 q 487 972 479 981 q 549 941 503 941 q 620 966 593 941 q 654 1038 647 991 l 744 1038 z "},"Ő":{"ha":988,"x_min":134,"x_max":1088,"o":"m 1001 694 q 962 402 1001 534 q 854 174 924 269 q 690 26 785 79 q 483 -27 595 -27 q 338 -4 402 -27 q 228 68 273 20 q 158 189 182 116 q 134 361 134 262 q 151 561 134 466 q 200 738 168 656 q 278 885 232 819 q 380 998 323 951 q 505 1069 437 1044 q 648 1095 572 1095 q 807 1067 740 1095 q 917 987 873 1039 q 980 861 960 935 q 1001 694 1001 787 m 852 696 q 840 807 852 757 q 803 894 829 858 q 735 951 777 930 q 633 971 694 971 q 526 947 574 971 q 438 881 477 923 q 370 781 399 838 q 322 655 341 723 q 294 514 303 588 q 284 365 284 440 q 339 162 284 229 q 501 96 394 96 q 608 120 559 96 q 695 184 656 143 q 764 283 734 226 q 812 406 793 340 q 842 547 832 473 q 852 696 852 621 m 545 1182 l 444 1182 l 572 1615 l 759 1615 l 545 1182 m 807 1182 l 706 1182 l 901 1615 l 1088 1615 l 807 1182 z "},"ő":{"ha":783,"x_min":104,"x_max":966,"o":"m 104 291 q 114 407 104 348 q 145 522 124 467 q 199 625 167 576 q 277 710 232 673 q 378 767 321 746 q 506 787 435 787 q 640 763 586 787 q 726 696 694 738 q 773 600 759 654 q 787 486 787 545 q 758 294 787 385 q 677 135 730 203 q 550 26 625 66 q 384 -14 475 -14 q 268 7 319 -14 q 180 67 216 28 q 123 163 143 106 q 104 291 104 220 m 401 92 q 484 110 447 92 q 548 156 520 127 q 594 224 575 185 q 626 305 614 262 q 644 392 638 348 q 649 477 649 437 q 641 558 649 521 q 614 623 633 595 q 565 665 595 650 q 490 681 535 681 q 406 662 443 681 q 341 613 369 644 q 294 542 313 582 q 263 459 275 502 q 247 373 252 416 q 241 294 241 330 q 250 214 241 251 q 276 150 258 177 q 326 108 295 123 q 401 92 356 92 m 423 887 l 322 887 l 450 1320 l 637 1320 l 423 887 m 685 887 l 584 887 l 779 1320 l 966 1320 l 685 887 z "},"Œ":{"ha":1672,"x_min":134,"x_max":1537,"o":"m 1396 0 l 768 0 l 788 138 q 736 64 770 96 q 661 13 703 33 q 574 -17 620 -7 q 488 -27 529 -27 q 338 -3 404 -27 q 227 72 273 22 q 158 199 182 122 q 134 380 134 275 q 151 575 134 482 q 199 748 168 668 q 275 891 230 827 q 375 1001 319 956 q 497 1070 431 1046 q 637 1095 564 1095 q 727 1084 684 1095 q 804 1052 769 1073 q 864 998 838 1030 q 902 922 889 966 l 918 1076 l 1537 1076 l 1520 963 l 1047 963 l 998 615 l 1415 615 l 1402 518 l 985 518 l 928 112 l 1414 112 l 1396 0 m 847 681 q 836 797 847 744 q 799 889 825 850 q 730 949 773 928 q 625 971 688 971 q 519 948 567 971 q 434 884 472 925 q 368 788 396 844 q 321 667 340 732 q 293 529 302 602 q 284 382 284 456 q 505 96 284 96 q 609 119 562 96 q 695 182 657 142 q 762 277 733 222 q 809 397 790 332 q 838 534 828 462 q 847 681 847 606 z "},"œ":{"ha":1241,"x_min":103,"x_max":1255,"o":"m 781 358 q 777 306 778 330 q 778 260 777 281 q 792 187 780 217 q 825 138 804 157 q 876 110 846 119 q 943 101 906 101 q 1137 174 1044 101 l 1164 68 q 1100 33 1134 48 q 1031 7 1065 18 q 966 -8 998 -3 q 909 -14 935 -14 q 826 -2 865 -14 q 755 31 786 9 q 706 83 725 52 q 683 155 686 115 q 574 45 631 83 q 449 -5 516 7 q 404 -10 427 -9 q 359 -10 382 -12 q 254 15 301 -7 q 173 75 207 37 q 121 169 140 114 q 103 291 103 223 q 112 397 103 341 q 139 509 120 454 q 190 614 159 564 q 265 703 220 665 q 370 765 310 742 q 506 787 429 787 q 598 773 558 787 q 668 734 639 758 q 714 680 697 710 q 738 616 732 649 q 795 694 762 661 q 866 747 829 726 q 942 778 903 768 q 1017 787 981 787 q 1197 727 1139 787 q 1255 545 1255 666 q 1250 479 1255 509 q 1237 425 1244 450 q 1031 376 1145 392 q 781 358 918 359 m 401 96 q 483 116 447 98 q 547 163 519 134 q 594 230 574 192 q 625 309 613 267 q 643 393 637 350 q 648 477 648 437 q 640 557 648 521 q 613 621 632 594 q 565 663 595 648 q 490 677 534 677 q 405 659 442 677 q 340 610 368 641 q 294 540 313 580 q 263 458 275 500 q 246 372 251 415 q 241 294 241 330 q 249 215 241 251 q 276 153 257 179 q 325 111 294 126 q 401 96 356 96 m 793 444 q 872 445 830 444 q 957 447 913 446 q 1045 453 1001 449 q 1128 463 1088 456 q 1138 511 1135 492 q 1141 545 1141 530 q 1111 648 1141 612 q 1025 683 1080 683 q 867 620 925 683 q 793 444 810 556 z "},"Ŕ":{"ha":873,"x_min":85,"x_max":899,"o":"m 653 0 q 667 106 661 60 q 678 186 673 152 q 686 243 682 220 q 691 282 689 266 q 694 309 693 298 q 696 327 695 319 q 687 391 696 365 q 651 449 677 429 q 578 477 625 468 q 506 491 547 487 q 409 495 464 495 l 302 495 l 230 0 l 85 0 l 239 1076 l 502 1076 q 605 1073 557 1076 q 695 1063 654 1071 q 777 1040 740 1055 q 841 998 814 1024 q 883 935 868 972 q 899 846 899 898 q 871 708 899 764 q 799 615 843 651 q 702 562 755 579 q 598 545 649 545 q 702 524 657 538 q 777 484 747 509 q 824 423 808 459 q 840 337 840 387 q 839 318 840 331 q 834 273 838 304 q 820 164 829 229 q 798 0 811 98 l 653 0 m 395 593 q 542 600 474 593 q 660 631 610 607 q 738 699 709 654 q 766 820 766 744 q 745 897 766 869 q 688 940 724 925 q 604 959 652 955 q 503 963 556 963 l 368 963 l 315 593 l 395 593 m 655 1182 l 554 1182 l 682 1615 l 869 1615 l 655 1182 z "},"ŕ":{"ha":490,"x_min":87,"x_max":709,"o":"m 306 615 q 355 685 328 654 q 411 739 382 717 q 469 773 440 761 q 521 786 497 785 q 556 785 539 787 q 578 783 574 783 l 564 656 q 546 660 560 658 q 519 663 532 663 q 455 649 487 663 q 395 616 424 636 q 340 572 366 595 q 297 527 315 548 l 222 0 l 87 0 l 197 774 l 300 774 l 306 615 m 496 887 l 395 887 l 522 1320 l 709 1320 l 496 887 z "},"Ŗ":{"ha":873,"x_min":85,"x_max":899,"o":"m 653 0 q 667 106 661 60 q 678 186 673 152 q 686 243 682 220 q 691 282 689 266 q 694 309 693 298 q 696 327 695 319 q 687 391 696 365 q 651 449 677 429 q 578 477 625 468 q 506 491 547 487 q 409 495 464 495 l 302 495 l 230 0 l 85 0 l 239 1076 l 502 1076 q 605 1073 557 1076 q 695 1063 654 1071 q 777 1040 740 1055 q 841 998 814 1024 q 883 935 868 972 q 899 846 899 898 q 871 708 899 764 q 799 615 843 651 q 702 562 755 579 q 598 545 649 545 q 702 524 657 538 q 777 484 747 509 q 824 423 808 459 q 840 337 840 387 q 839 318 840 331 q 834 273 838 304 q 820 164 829 229 q 798 0 811 98 l 653 0 m 395 593 q 542 600 474 593 q 660 631 610 607 q 738 699 709 654 q 766 820 766 744 q 745 897 766 869 q 688 940 724 925 q 604 959 652 955 q 503 963 556 963 l 368 963 l 315 593 l 395 593 m 298 -321 l 329 -100 l 531 -100 l 501 -319 q 481 -393 497 -362 q 442 -447 466 -425 q 387 -483 418 -469 q 321 -508 356 -498 l 290 -440 q 357 -396 329 -427 q 391 -321 385 -366 l 298 -321 z "},"ŗ":{"ha":490,"x_min":87,"x_max":578,"o":"m 306 615 q 355 685 328 654 q 411 739 382 717 q 469 773 440 761 q 521 786 497 785 q 556 785 539 787 q 578 783 574 783 l 564 656 q 546 660 560 658 q 519 663 532 663 q 455 649 487 663 q 395 616 424 636 q 340 572 366 595 q 297 527 315 548 l 222 0 l 87 0 l 197 774 l 300 774 l 306 615 m 138 -321 l 170 -100 l 372 -100 l 342 -319 q 322 -393 338 -362 q 283 -447 307 -425 q 228 -483 259 -469 q 161 -508 197 -498 l 130 -440 q 197 -396 170 -427 q 231 -321 225 -366 l 138 -321 z "},"Ř":{"ha":873,"x_min":85,"x_max":899,"o":"m 653 0 q 667 106 661 60 q 678 186 673 152 q 686 243 682 220 q 691 282 689 266 q 694 309 693 298 q 696 327 695 319 q 687 391 696 365 q 651 449 677 429 q 578 477 625 468 q 506 491 547 487 q 409 495 464 495 l 302 495 l 230 0 l 85 0 l 239 1076 l 502 1076 q 605 1073 557 1076 q 695 1063 654 1071 q 777 1040 740 1055 q 841 998 814 1024 q 883 935 868 972 q 899 846 899 898 q 871 708 899 764 q 799 615 843 651 q 702 562 755 579 q 598 545 649 545 q 702 524 657 538 q 777 484 747 509 q 824 423 808 459 q 840 337 840 387 q 839 318 840 331 q 834 273 838 304 q 820 164 829 229 q 798 0 811 98 l 653 0 m 395 593 q 542 600 474 593 q 660 631 610 607 q 738 699 709 654 q 766 820 766 744 q 745 897 766 869 q 688 940 724 925 q 604 959 652 955 q 503 963 556 963 l 368 963 l 315 593 l 395 593 m 614 1168 l 519 1168 l 439 1547 l 550 1547 l 594 1331 l 717 1547 l 841 1547 l 614 1168 z "},"ř":{"ha":490,"x_min":87,"x_max":682,"o":"m 306 615 q 355 685 328 654 q 411 739 382 717 q 469 773 440 761 q 521 786 497 785 q 556 785 539 787 q 578 783 574 783 l 564 656 q 546 660 560 658 q 519 663 532 663 q 455 649 487 663 q 395 616 424 636 q 340 572 366 595 q 297 527 315 548 l 222 0 l 87 0 l 197 774 l 300 774 l 306 615 m 455 873 l 360 873 l 280 1252 l 391 1252 l 435 1036 l 557 1252 l 682 1252 l 455 873 z "},"Ś":{"ha":840,"x_min":106,"x_max":856,"o":"m 819 895 q 777 920 804 907 q 717 945 750 933 q 646 964 684 956 q 574 971 609 971 q 458 959 506 971 q 381 924 411 947 q 337 870 351 902 q 323 799 323 838 q 332 752 323 772 q 356 718 340 733 q 396 691 372 703 q 452 667 420 679 l 611 605 q 696 562 659 586 q 758 507 733 538 q 796 437 783 476 q 809 349 809 398 q 785 207 809 275 q 709 86 760 138 q 581 4 659 35 q 396 -27 503 -27 q 303 -20 349 -27 q 219 -3 258 -14 q 151 19 180 7 q 106 43 121 31 l 136 168 q 189 139 161 152 q 248 116 216 125 q 315 101 279 106 q 393 96 351 96 q 595 151 529 96 q 662 321 662 206 q 654 371 662 349 q 631 410 646 393 q 594 440 616 427 q 544 465 572 454 l 373 537 q 289 580 327 556 q 205 663 233 614 q 178 772 178 711 q 209 908 178 848 q 292 1009 240 968 q 410 1073 343 1051 q 549 1095 477 1095 q 640 1089 596 1095 q 723 1073 684 1084 q 795 1049 762 1063 q 852 1019 827 1035 l 819 895 m 642 1182 l 541 1182 l 669 1615 l 856 1615 l 642 1182 z "},"ś":{"ha":627,"x_min":56,"x_max":727,"o":"m 127 574 q 148 665 127 625 q 205 732 168 705 q 292 773 241 760 q 400 787 342 787 q 469 781 435 787 q 534 763 503 774 q 594 737 566 751 q 644 709 622 723 l 600 614 q 562 635 585 623 q 512 656 539 646 q 456 673 486 667 q 398 680 427 680 q 291 658 330 680 q 251 591 251 635 q 255 559 251 572 q 268 536 259 546 q 292 517 277 526 q 329 500 307 509 l 424 461 q 491 429 458 447 q 549 388 524 412 q 589 334 574 364 q 604 263 604 303 q 580 146 604 198 q 515 59 556 95 q 421 5 475 24 q 308 -14 367 -14 q 225 -6 264 -14 q 155 13 186 1 q 98 39 123 24 q 56 68 73 54 l 99 158 q 133 136 112 148 q 180 115 153 125 q 238 99 206 106 q 305 93 269 93 q 373 102 342 93 q 426 130 404 112 q 460 175 448 148 q 473 236 473 201 q 468 264 473 252 q 453 288 463 277 q 425 309 442 299 q 382 330 408 319 l 283 372 q 215 407 244 389 q 166 449 185 425 q 137 503 146 473 q 127 574 127 533 m 513 887 l 412 887 l 540 1320 l 727 1320 l 513 887 z "},"Ŝ":{"ha":840,"x_min":106,"x_max":852,"o":"m 819 895 q 777 920 804 907 q 717 945 750 933 q 646 964 684 956 q 574 971 609 971 q 458 959 506 971 q 381 924 411 947 q 337 870 351 902 q 323 799 323 838 q 332 752 323 772 q 356 718 340 733 q 396 691 372 703 q 452 667 420 679 l 611 605 q 696 562 659 586 q 758 507 733 538 q 796 437 783 476 q 809 349 809 398 q 785 207 809 275 q 709 86 760 138 q 581 4 659 35 q 396 -27 503 -27 q 303 -20 349 -27 q 219 -3 258 -14 q 151 19 180 7 q 106 43 121 31 l 136 168 q 189 139 161 152 q 248 116 216 125 q 315 101 279 106 q 393 96 351 96 q 595 151 529 96 q 662 321 662 206 q 654 371 662 349 q 631 410 646 393 q 594 440 616 427 q 544 465 572 454 l 373 537 q 289 580 327 556 q 205 663 233 614 q 178 772 178 711 q 209 908 178 848 q 292 1009 240 968 q 410 1073 343 1051 q 549 1095 477 1095 q 640 1089 596 1095 q 723 1073 684 1084 q 795 1049 762 1063 q 852 1019 827 1035 l 819 895 m 498 1527 l 593 1527 l 680 1149 l 568 1149 l 525 1364 l 402 1149 l 278 1149 l 498 1527 z "},"ŝ":{"ha":627,"x_min":56,"x_max":644,"o":"m 127 574 q 148 665 127 625 q 205 732 168 705 q 292 773 241 760 q 400 787 342 787 q 469 781 435 787 q 534 763 503 774 q 594 737 566 751 q 644 709 622 723 l 600 614 q 562 635 585 623 q 512 656 539 646 q 456 673 486 667 q 398 680 427 680 q 291 658 330 680 q 251 591 251 635 q 255 559 251 572 q 268 536 259 546 q 292 517 277 526 q 329 500 307 509 l 424 461 q 491 429 458 447 q 549 388 524 412 q 589 334 574 364 q 604 263 604 303 q 580 146 604 198 q 515 59 556 95 q 421 5 475 24 q 308 -14 367 -14 q 225 -6 264 -14 q 155 13 186 1 q 98 39 123 24 q 56 68 73 54 l 99 158 q 133 136 112 148 q 180 115 153 125 q 238 99 206 106 q 305 93 269 93 q 373 102 342 93 q 426 130 404 112 q 460 175 448 148 q 473 236 473 201 q 468 264 473 252 q 453 288 463 277 q 425 309 442 299 q 382 330 408 319 l 283 372 q 215 407 244 389 q 166 449 185 425 q 137 503 146 473 q 127 574 127 533 m 370 1232 l 465 1232 l 551 854 l 439 854 l 396 1069 l 273 854 l 149 854 l 370 1232 z "},"Ş":{"ha":840,"x_min":106,"x_max":852,"o":"m 819 895 q 777 920 804 907 q 717 945 750 933 q 646 964 684 956 q 574 971 609 971 q 458 959 506 971 q 381 924 411 947 q 337 870 351 902 q 323 799 323 838 q 332 752 323 772 q 356 718 340 733 q 396 691 372 703 q 452 667 420 679 l 611 605 q 696 562 659 586 q 758 507 733 538 q 796 437 783 476 q 809 349 809 398 q 785 207 809 275 q 709 86 760 138 q 581 4 659 35 q 396 -27 503 -27 q 303 -20 349 -27 q 219 -3 258 -14 q 151 19 180 7 q 106 43 121 31 l 136 168 q 189 139 161 152 q 248 116 216 125 q 315 101 279 106 q 393 96 351 96 q 595 151 529 96 q 662 321 662 206 q 654 371 662 349 q 631 410 646 393 q 594 440 616 427 q 544 465 572 454 l 373 537 q 289 580 327 556 q 205 663 233 614 q 178 772 178 711 q 209 908 178 848 q 292 1009 240 968 q 410 1073 343 1051 q 549 1095 477 1095 q 640 1089 596 1095 q 723 1073 684 1084 q 795 1049 762 1063 q 852 1019 827 1035 l 819 895 m 323 -346 l 328 -286 q 373 -304 347 -294 q 427 -315 398 -313 q 443 -317 435 -317 q 458 -316 450 -317 q 497 -308 481 -315 q 523 -289 513 -300 q 537 -263 533 -277 q 541 -233 541 -248 q 497 -176 541 -200 q 365 -153 454 -153 l 413 26 l 490 26 q 448 -93 454 -66 q 484 -95 463 -93 q 525 -102 504 -97 q 565 -117 545 -108 q 600 -141 585 -127 q 625 -175 615 -155 q 634 -221 634 -195 l 634 -227 q 618 -299 633 -267 q 578 -354 603 -332 q 519 -388 553 -376 q 446 -400 485 -400 q 375 -390 406 -400 q 323 -366 345 -379 l 323 -346 z "},"ş":{"ha":627,"x_min":56,"x_max":644,"o":"m 127 574 q 148 665 127 625 q 205 732 168 705 q 292 773 241 760 q 400 787 342 787 q 469 781 435 787 q 534 763 503 774 q 594 737 566 751 q 644 709 622 723 l 600 614 q 562 635 585 623 q 512 656 539 646 q 456 673 486 667 q 398 680 427 680 q 291 658 330 680 q 251 591 251 635 q 255 559 251 572 q 268 536 259 546 q 292 517 277 526 q 329 500 307 509 l 424 461 q 491 429 458 447 q 549 388 524 412 q 589 334 574 364 q 604 263 604 303 q 580 146 604 198 q 515 59 556 95 q 421 5 475 24 q 308 -14 367 -14 q 225 -6 264 -14 q 155 13 186 1 q 98 39 123 24 q 56 68 73 54 l 99 158 q 133 136 112 148 q 180 115 153 125 q 238 99 206 106 q 305 93 269 93 q 373 102 342 93 q 426 130 404 112 q 460 175 448 148 q 473 236 473 201 q 468 264 473 252 q 453 288 463 277 q 425 309 442 299 q 382 330 408 319 l 283 372 q 215 407 244 389 q 166 449 185 425 q 137 503 146 473 q 127 574 127 533 m 195 -346 l 199 -286 q 244 -304 218 -294 q 298 -315 269 -313 q 314 -317 306 -317 q 329 -316 321 -317 q 369 -308 353 -315 q 394 -289 385 -300 q 408 -263 404 -277 q 412 -233 412 -248 q 368 -176 412 -200 q 236 -153 325 -153 l 284 26 l 361 26 q 319 -93 326 -66 q 355 -95 334 -93 q 396 -102 375 -97 q 436 -117 416 -108 q 471 -141 456 -127 q 496 -175 486 -155 q 505 -221 505 -195 l 505 -227 q 489 -299 504 -267 q 449 -354 474 -332 q 390 -388 424 -376 q 317 -400 356 -400 q 246 -390 277 -400 q 195 -366 216 -379 l 195 -346 z "},"Š":{"ha":840,"x_min":106,"x_max":852,"o":"m 819 895 q 777 920 804 907 q 717 945 750 933 q 646 964 684 956 q 574 971 609 971 q 458 959 506 971 q 381 924 411 947 q 337 870 351 902 q 323 799 323 838 q 332 752 323 772 q 356 718 340 733 q 396 691 372 703 q 452 667 420 679 l 611 605 q 696 562 659 586 q 758 507 733 538 q 796 437 783 476 q 809 349 809 398 q 785 207 809 275 q 709 86 760 138 q 581 4 659 35 q 396 -27 503 -27 q 303 -20 349 -27 q 219 -3 258 -14 q 151 19 180 7 q 106 43 121 31 l 136 168 q 189 139 161 152 q 248 116 216 125 q 315 101 279 106 q 393 96 351 96 q 595 151 529 96 q 662 321 662 206 q 654 371 662 349 q 631 410 646 393 q 594 440 616 427 q 544 465 572 454 l 373 537 q 289 580 327 556 q 205 663 233 614 q 178 772 178 711 q 209 908 178 848 q 292 1009 240 968 q 410 1073 343 1051 q 549 1095 477 1095 q 640 1089 596 1095 q 723 1073 684 1084 q 795 1049 762 1063 q 852 1019 827 1035 l 819 895 m 602 1168 l 507 1168 l 427 1547 l 537 1547 l 581 1331 l 704 1547 l 828 1547 l 602 1168 z "},"š":{"ha":627,"x_min":56,"x_max":699,"o":"m 127 574 q 148 665 127 625 q 205 732 168 705 q 292 773 241 760 q 400 787 342 787 q 469 781 435 787 q 534 763 503 774 q 594 737 566 751 q 644 709 622 723 l 600 614 q 562 635 585 623 q 512 656 539 646 q 456 673 486 667 q 398 680 427 680 q 291 658 330 680 q 251 591 251 635 q 255 559 251 572 q 268 536 259 546 q 292 517 277 526 q 329 500 307 509 l 424 461 q 491 429 458 447 q 549 388 524 412 q 589 334 574 364 q 604 263 604 303 q 580 146 604 198 q 515 59 556 95 q 421 5 475 24 q 308 -14 367 -14 q 225 -6 264 -14 q 155 13 186 1 q 98 39 123 24 q 56 68 73 54 l 99 158 q 133 136 112 148 q 180 115 153 125 q 238 99 206 106 q 305 93 269 93 q 373 102 342 93 q 426 130 404 112 q 460 175 448 148 q 473 236 473 201 q 468 264 473 252 q 453 288 463 277 q 425 309 442 299 q 382 330 408 319 l 283 372 q 215 407 244 389 q 166 449 185 425 q 137 503 146 473 q 127 574 127 533 m 473 873 l 378 873 l 298 1252 l 408 1252 l 452 1036 l 575 1252 l 699 1252 l 473 873 z "},"Ţ":{"ha":696,"x_min":119,"x_max":848,"o":"m 832 963 l 549 963 l 414 0 l 269 0 l 404 963 l 119 963 l 136 1076 l 848 1076 l 832 963 m 290 -321 l 321 -100 l 523 -100 l 493 -319 q 473 -393 489 -362 q 434 -447 458 -425 q 379 -483 410 -469 q 313 -508 348 -498 l 281 -440 q 349 -396 321 -427 q 382 -321 376 -366 l 290 -321 z "},"ţ":{"ha":515,"x_min":132,"x_max":551,"o":"m 342 92 q 390 101 366 92 q 435 121 414 110 q 481 149 459 134 l 526 67 q 508 55 526 67 q 460 28 490 43 q 393 1 431 14 q 314 -11 355 -11 q 253 0 280 -11 q 205 32 225 11 q 173 82 184 52 q 159 151 161 113 q 158 168 158 159 q 160 193 159 177 q 168 264 161 218 l 232 708 l 132 708 l 141 774 l 243 774 l 282 1050 l 421 1088 l 376 774 l 551 774 l 541 708 l 368 708 l 293 174 q 303 114 288 135 q 342 92 318 92 m 148 -321 l 179 -100 l 381 -100 l 351 -319 q 332 -393 347 -362 q 292 -447 316 -425 q 237 -483 269 -469 q 171 -508 206 -498 l 140 -440 q 207 -396 179 -427 q 241 -321 235 -366 l 148 -321 z "},"Ť":{"ha":696,"x_min":119,"x_max":848,"o":"m 832 963 l 549 963 l 414 0 l 269 0 l 404 963 l 119 963 l 136 1076 l 848 1076 l 832 963 m 606 1168 l 511 1168 l 431 1547 l 542 1547 l 586 1331 l 709 1547 l 833 1547 l 606 1168 z "},"ť":{"ha":1025,"x_min":132,"x_max":866,"o":"m 342 92 q 390 101 366 92 q 435 121 414 110 q 481 149 459 134 l 526 67 q 508 55 526 67 q 460 28 490 43 q 393 1 431 14 q 314 -11 355 -11 q 253 0 280 -11 q 205 32 225 11 q 173 82 184 52 q 159 151 161 113 q 158 168 158 159 q 160 193 159 177 q 168 264 161 218 l 232 708 l 132 708 l 141 774 l 243 774 l 282 1050 l 421 1088 l 376 774 l 551 774 l 541 708 l 368 708 l 293 174 q 303 114 288 135 q 342 92 318 92 m 642 858 l 663 1079 l 866 1079 l 846 859 q 826 785 842 817 q 787 732 811 754 q 732 695 764 710 q 665 671 701 681 l 634 739 q 701 783 675 753 q 735 858 728 813 l 642 858 z "},"Ŧ":{"ha":696,"x_min":119,"x_max":848,"o":"m 832 963 l 549 963 l 414 0 l 269 0 l 404 963 l 119 963 l 136 1076 l 848 1076 l 832 963 m 654 534 l 199 534 l 215 648 l 670 648 l 654 534 z "},"ŧ":{"ha":515,"x_min":54,"x_max":551,"o":"m 342 92 q 390 101 366 92 q 435 121 414 110 q 481 149 459 134 l 526 67 q 508 55 526 67 q 460 28 490 43 q 393 1 431 14 q 314 -11 355 -11 q 253 0 280 -11 q 205 32 225 11 q 173 82 184 52 q 159 151 161 113 q 158 168 158 159 q 160 193 159 177 q 168 264 161 218 l 232 708 l 132 708 l 141 774 l 243 774 l 282 1050 l 421 1088 l 376 774 l 551 774 l 541 708 l 368 708 l 293 174 q 303 114 288 135 q 342 92 318 92 m 510 444 l 54 444 l 71 558 l 526 558 l 510 444 z "},"Ũ":{"ha":958,"x_min":125,"x_max":1020,"o":"m 490 89 q 609 109 559 89 q 693 174 659 128 q 751 296 728 220 q 791 485 774 372 l 875 1076 l 1020 1076 l 937 488 q 872 235 916 334 q 769 77 829 136 q 634 -4 709 19 q 475 -27 559 -27 q 327 -2 391 -27 q 217 73 262 23 q 149 196 172 123 q 125 367 125 270 q 125 384 125 375 q 126 405 125 393 q 129 430 127 416 q 133 465 130 445 q 145 557 138 504 q 162 684 152 611 q 185 854 172 758 q 216 1076 199 950 l 361 1076 q 330 851 344 949 q 307 679 317 753 q 289 550 296 604 q 277 454 281 495 q 272 418 274 433 q 270 391 271 403 q 269 371 269 380 q 269 354 269 362 q 280 245 269 294 q 317 162 291 197 q 385 108 342 127 q 490 89 427 89 m 789 1144 q 721 1158 754 1144 q 657 1187 688 1171 q 602 1217 627 1204 q 558 1231 577 1231 q 540 1229 549 1231 q 525 1219 532 1226 q 514 1198 518 1212 q 509 1162 510 1185 l 402 1162 q 416 1241 404 1207 q 449 1297 428 1275 q 497 1331 469 1320 q 559 1341 526 1341 q 624 1328 594 1341 q 680 1299 654 1315 q 731 1269 707 1282 q 779 1256 755 1256 q 799 1258 790 1256 q 814 1268 808 1261 q 823 1288 820 1275 q 827 1321 827 1301 l 935 1321 q 922 1239 934 1273 q 890 1185 910 1206 q 845 1154 871 1164 q 789 1144 819 1144 z "},"ũ":{"ha":795,"x_min":121,"x_max":806,"o":"m 336 774 q 330 734 334 765 q 320 661 326 704 q 307 565 314 617 q 293 461 300 513 q 280 361 286 409 q 269 278 273 313 q 265 249 267 260 q 264 235 264 238 q 274 163 263 192 q 311 111 285 128 q 375 92 336 93 q 480 117 430 93 q 582 189 531 142 l 665 774 l 806 774 l 697 0 l 594 0 q 590 59 592 31 q 586 118 587 87 q 473 20 532 54 q 349 -14 414 -14 q 121 213 121 -14 q 125 261 121 222 q 137 354 130 300 q 149 440 142 395 q 160 529 155 485 q 172 613 166 572 q 181 687 177 654 q 189 743 186 720 q 194 774 193 766 l 336 774 m 659 871 q 591 884 624 871 q 527 914 557 898 q 472 944 497 930 q 428 958 447 958 q 410 955 418 958 q 395 946 401 953 q 384 925 388 939 q 379 888 380 911 l 272 888 q 286 968 273 934 q 318 1024 298 1002 q 367 1057 339 1046 q 429 1068 395 1068 q 494 1055 464 1068 q 550 1025 524 1042 q 601 996 576 1009 q 648 983 625 983 q 669 985 660 983 q 684 995 677 987 q 693 1015 690 1002 q 697 1048 696 1027 l 805 1048 q 792 966 804 1000 q 760 911 780 932 q 714 881 741 890 q 659 871 688 871 z "},"Ū":{"ha":958,"x_min":125,"x_max":1020,"o":"m 490 89 q 609 109 559 89 q 693 174 659 128 q 751 296 728 220 q 791 485 774 372 l 875 1076 l 1020 1076 l 937 488 q 872 235 916 334 q 769 77 829 136 q 634 -4 709 19 q 475 -27 559 -27 q 327 -2 391 -27 q 217 73 262 23 q 149 196 172 123 q 125 367 125 270 q 125 384 125 375 q 126 405 125 393 q 129 430 127 416 q 133 465 130 445 q 145 557 138 504 q 162 684 152 611 q 185 854 172 758 q 216 1076 199 950 l 361 1076 q 330 851 344 949 q 307 679 317 753 q 289 550 296 604 q 277 454 281 495 q 272 418 274 433 q 270 391 271 403 q 269 371 269 380 q 269 354 269 362 q 280 245 269 294 q 317 162 291 197 q 385 108 342 127 q 490 89 427 89 m 894 1173 l 438 1173 l 454 1288 l 909 1288 l 894 1173 z "},"ū":{"ha":795,"x_min":121,"x_max":806,"o":"m 336 774 q 330 734 334 765 q 320 661 326 704 q 307 565 314 617 q 293 461 300 513 q 280 361 286 409 q 269 278 273 313 q 265 249 267 260 q 264 235 264 238 q 274 163 263 192 q 311 111 285 128 q 375 92 336 93 q 480 117 430 93 q 582 189 531 142 l 665 774 l 806 774 l 697 0 l 594 0 q 590 59 592 31 q 586 118 587 87 q 473 20 532 54 q 349 -14 414 -14 q 121 213 121 -14 q 125 261 121 222 q 137 354 130 300 q 149 440 142 395 q 160 529 155 485 q 172 613 166 572 q 181 687 177 654 q 189 743 186 720 q 194 774 193 766 l 336 774 m 785 878 l 329 878 l 345 993 l 800 993 l 785 878 z "},"Ŭ":{"ha":958,"x_min":125,"x_max":1020,"o":"m 490 89 q 609 109 559 89 q 693 174 659 128 q 751 296 728 220 q 791 485 774 372 l 875 1076 l 1020 1076 l 937 488 q 872 235 916 334 q 769 77 829 136 q 634 -4 709 19 q 475 -27 559 -27 q 327 -2 391 -27 q 217 73 262 23 q 149 196 172 123 q 125 367 125 270 q 125 384 125 375 q 126 405 125 393 q 129 430 127 416 q 133 465 130 445 q 145 557 138 504 q 162 684 152 611 q 185 854 172 758 q 216 1076 199 950 l 361 1076 q 330 851 344 949 q 307 679 317 753 q 289 550 296 604 q 277 454 281 495 q 272 418 274 433 q 270 391 271 403 q 269 371 269 380 q 269 354 269 362 q 280 245 269 294 q 317 162 291 197 q 385 108 342 127 q 490 89 427 89 m 871 1333 q 869 1321 870 1327 q 866 1310 868 1316 q 800 1196 849 1236 q 663 1156 751 1156 q 545 1191 582 1156 q 507 1291 508 1225 q 508 1311 507 1300 q 510 1333 509 1322 l 601 1333 q 599 1313 599 1322 q 603 1287 598 1298 q 614 1267 607 1276 q 677 1236 631 1236 q 747 1261 720 1236 q 782 1333 774 1286 l 871 1333 z "},"ŭ":{"ha":795,"x_min":121,"x_max":806,"o":"m 336 774 q 330 734 334 765 q 320 661 326 704 q 307 565 314 617 q 293 461 300 513 q 280 361 286 409 q 269 278 273 313 q 265 249 267 260 q 264 235 264 238 q 274 163 263 192 q 311 111 285 128 q 375 92 336 93 q 480 117 430 93 q 582 189 531 142 l 665 774 l 806 774 l 697 0 l 594 0 q 590 59 592 31 q 586 118 587 87 q 473 20 532 54 q 349 -14 414 -14 q 121 213 121 -14 q 125 261 121 222 q 137 354 130 300 q 149 440 142 395 q 160 529 155 485 q 172 613 166 572 q 181 687 177 654 q 189 743 186 720 q 194 774 193 766 l 336 774 m 762 1038 q 760 1026 761 1032 q 757 1015 759 1021 q 691 901 740 941 q 554 861 642 861 q 436 896 473 861 q 398 996 399 930 q 398 1016 397 1005 q 401 1038 399 1027 l 492 1038 q 490 1018 490 1027 q 493 992 489 1003 q 505 972 498 981 q 568 941 522 941 q 638 966 611 941 q 673 1038 665 991 l 762 1038 z "},"Ů":{"ha":958,"x_min":125,"x_max":1020,"o":"m 490 89 q 609 109 559 89 q 693 174 659 128 q 751 296 728 220 q 791 485 774 372 l 875 1076 l 1020 1076 l 937 488 q 872 235 916 334 q 769 77 829 136 q 634 -4 709 19 q 475 -27 559 -27 q 327 -2 391 -27 q 217 73 262 23 q 149 196 172 123 q 125 367 125 270 q 125 384 125 375 q 126 405 125 393 q 129 430 127 416 q 133 465 130 445 q 145 557 138 504 q 162 684 152 611 q 185 854 172 758 q 216 1076 199 950 l 361 1076 q 330 851 344 949 q 307 679 317 753 q 289 550 296 604 q 277 454 281 495 q 272 418 274 433 q 270 391 271 403 q 269 371 269 380 q 269 354 269 362 q 280 245 269 294 q 317 162 291 197 q 385 108 342 127 q 490 89 427 89 m 688 1436 q 650 1427 668 1436 q 620 1403 633 1418 q 599 1369 606 1388 q 591 1329 591 1350 q 611 1274 592 1296 q 665 1251 631 1251 q 703 1260 685 1251 q 733 1284 720 1269 q 754 1318 747 1299 q 762 1358 762 1337 q 741 1413 761 1391 q 688 1436 721 1436 m 517 1317 q 532 1390 517 1356 q 572 1449 547 1423 q 630 1489 597 1474 q 699 1504 663 1504 q 753 1494 728 1504 q 797 1465 779 1483 q 826 1421 815 1446 q 837 1368 836 1396 q 823 1295 838 1329 q 784 1236 808 1261 q 726 1197 759 1211 q 656 1182 693 1182 q 601 1192 627 1182 q 557 1220 576 1202 q 528 1262 538 1238 q 517 1317 517 1287 z "},"ů":{"ha":795,"x_min":121,"x_max":806,"o":"m 336 774 q 330 734 334 765 q 320 661 326 704 q 307 565 314 617 q 293 461 300 513 q 280 361 286 409 q 269 278 273 313 q 265 249 267 260 q 264 235 264 238 q 274 163 263 192 q 311 111 285 128 q 375 92 336 93 q 480 117 430 93 q 582 189 531 142 l 665 774 l 806 774 l 697 0 l 594 0 q 590 59 592 31 q 586 118 587 87 q 473 20 532 54 q 349 -14 414 -14 q 121 213 121 -14 q 125 261 121 222 q 137 354 130 300 q 149 440 142 395 q 160 529 155 485 q 172 613 166 572 q 181 687 177 654 q 189 743 186 720 q 194 774 193 766 l 336 774 m 579 1141 q 541 1132 559 1141 q 510 1108 524 1123 q 490 1074 497 1093 q 482 1034 482 1055 q 502 979 483 1001 q 556 956 522 956 q 593 965 576 956 q 624 989 611 974 q 645 1023 637 1004 q 652 1063 652 1042 q 632 1118 652 1096 q 579 1141 612 1141 m 408 1022 q 423 1095 408 1061 q 463 1154 437 1128 q 520 1194 488 1179 q 589 1209 553 1209 q 644 1199 619 1209 q 688 1170 669 1188 q 716 1126 706 1151 q 728 1073 727 1101 q 714 1000 728 1034 q 674 941 699 966 q 617 902 650 916 q 547 887 584 887 q 492 897 517 887 q 448 925 467 907 q 419 967 429 943 q 408 1022 408 992 z "},"Ű":{"ha":958,"x_min":125,"x_max":1094,"o":"m 490 89 q 609 109 559 89 q 693 174 659 128 q 751 296 728 220 q 791 485 774 372 l 875 1076 l 1020 1076 l 937 488 q 872 235 916 334 q 769 77 829 136 q 634 -4 709 19 q 475 -27 559 -27 q 327 -2 391 -27 q 217 73 262 23 q 149 196 172 123 q 125 367 125 270 q 125 384 125 375 q 126 405 125 393 q 129 430 127 416 q 133 465 130 445 q 145 557 138 504 q 162 684 152 611 q 185 854 172 758 q 216 1076 199 950 l 361 1076 q 330 851 344 949 q 307 679 317 753 q 289 550 296 604 q 277 454 281 495 q 272 418 274 433 q 270 391 271 403 q 269 371 269 380 q 269 354 269 362 q 280 245 269 294 q 317 162 291 197 q 385 108 342 127 q 490 89 427 89 m 551 1182 l 450 1182 l 577 1615 l 764 1615 l 551 1182 m 812 1182 l 711 1182 l 907 1615 l 1094 1615 l 812 1182 z "},"ű":{"ha":795,"x_min":121,"x_max":985,"o":"m 336 774 q 330 734 334 765 q 320 661 326 704 q 307 565 314 617 q 293 461 300 513 q 280 361 286 409 q 269 278 273 313 q 265 249 267 260 q 264 235 264 238 q 274 163 263 192 q 311 111 285 128 q 375 92 336 93 q 480 117 430 93 q 582 189 531 142 l 665 774 l 806 774 l 697 0 l 594 0 q 590 59 592 31 q 586 118 587 87 q 473 20 532 54 q 349 -14 414 -14 q 121 213 121 -14 q 125 261 121 222 q 137 354 130 300 q 149 440 142 395 q 160 529 155 485 q 172 613 166 572 q 181 687 177 654 q 189 743 186 720 q 194 774 193 766 l 336 774 m 441 887 l 340 887 l 468 1320 l 655 1320 l 441 887 m 703 887 l 602 887 l 798 1320 l 985 1320 l 703 887 z "},"Ų":{"ha":958,"x_min":125,"x_max":1020,"o":"m 490 89 q 609 109 559 89 q 693 174 659 128 q 751 296 728 220 q 791 485 774 372 l 875 1076 l 1020 1076 l 937 488 q 872 235 916 334 q 769 77 829 136 q 634 -4 709 19 q 475 -27 559 -27 q 327 -2 391 -27 q 217 73 262 23 q 149 196 172 123 q 125 367 125 270 q 125 384 125 375 q 126 405 125 393 q 129 430 127 416 q 133 465 130 445 q 145 557 138 504 q 162 684 152 611 q 185 854 172 758 q 216 1076 199 950 l 361 1076 q 330 851 344 949 q 307 679 317 753 q 289 550 296 604 q 277 454 281 495 q 272 418 274 433 q 270 391 271 403 q 269 371 269 380 q 269 354 269 362 q 280 245 269 294 q 317 162 291 197 q 385 108 342 127 q 490 89 427 89 m 700 -352 q 663 -361 683 -357 q 623 -367 645 -364 q 576 -370 600 -370 q 511 -363 544 -370 q 453 -338 479 -356 q 410 -289 427 -321 q 393 -208 393 -258 q 402 -160 393 -183 q 424 -118 410 -138 q 455 -80 437 -98 q 492 -48 473 -62 q 591 13 535 -14 l 663 13 q 574 -58 613 -20 q 542 -92 558 -73 q 514 -130 526 -110 q 494 -170 501 -149 q 486 -210 486 -190 q 495 -249 486 -234 q 519 -273 505 -264 q 553 -285 534 -281 q 592 -288 572 -288 q 631 -286 612 -288 q 666 -280 650 -283 q 700 -272 684 -277 l 700 -352 z "},"ų":{"ha":795,"x_min":121,"x_max":806,"o":"m 336 774 q 330 734 334 765 q 320 661 326 704 q 307 565 314 617 q 293 461 300 513 q 280 361 286 409 q 269 278 273 313 q 265 249 267 260 q 264 235 264 238 q 274 163 263 192 q 311 111 285 128 q 375 92 336 93 q 480 117 430 93 q 582 189 531 142 l 665 774 l 806 774 l 697 0 l 594 0 q 590 59 592 31 q 586 118 587 87 q 473 20 532 54 q 349 -14 414 -14 q 121 213 121 -14 q 125 261 121 222 q 137 354 130 300 q 149 440 142 395 q 160 529 155 485 q 172 613 166 572 q 181 687 177 654 q 189 743 186 720 q 194 774 193 766 l 336 774 m 713 -352 q 676 -361 696 -357 q 636 -367 659 -364 q 589 -370 614 -370 q 525 -363 557 -370 q 466 -338 492 -356 q 424 -289 440 -321 q 407 -208 407 -258 q 415 -160 407 -183 q 437 -118 424 -138 q 469 -80 451 -98 q 505 -48 487 -62 q 604 13 549 -14 l 676 13 q 588 -58 627 -20 q 556 -92 572 -73 q 527 -130 540 -110 q 507 -170 515 -149 q 500 -210 500 -190 q 509 -249 500 -234 q 533 -273 518 -264 q 567 -285 548 -281 q 606 -288 586 -288 q 645 -286 625 -288 q 680 -280 664 -283 q 713 -272 697 -277 l 713 -352 z "},"Ŵ":{"ha":1341,"x_min":188,"x_max":1350,"o":"m 646 1074 l 849 1074 l 897 127 l 1211 1076 l 1350 1076 l 977 0 l 781 0 l 741 954 l 407 0 l 203 0 l 188 1076 l 320 1076 l 330 125 l 646 1074 m 789 1527 l 884 1527 l 970 1149 l 859 1149 l 815 1364 l 692 1149 l 568 1149 l 789 1527 z "},"ŵ":{"ha":960,"x_min":123,"x_max":1046,"o":"m 600 0 l 567 631 l 345 0 l 200 0 l 123 773 l 247 773 l 296 134 l 514 773 l 647 773 l 690 135 l 920 773 l 1046 773 l 747 0 l 600 0 m 604 1232 l 699 1232 l 785 854 l 674 854 l 631 1069 l 508 854 l 384 854 l 604 1232 z "},"Ŷ":{"ha":785,"x_min":142,"x_max":927,"o":"m 446 484 l 779 1073 l 927 1073 l 498 336 l 452 0 l 309 0 l 357 352 l 142 1073 l 280 1073 l 446 484 m 554 1527 l 649 1527 l 735 1149 l 624 1149 l 581 1364 l 458 1149 l 334 1149 l 554 1527 z "},"ŷ":{"ha":698,"x_min":43,"x_max":779,"o":"m 43 -210 q 88 -199 67 -205 q 126 -186 109 -194 q 224 -108 183 -162 q 298 23 265 -54 l 281 98 l 126 774 l 260 774 l 379 189 l 638 774 l 779 774 l 435 41 q 388 -58 413 -7 q 330 -154 362 -109 q 256 -237 297 -200 q 161 -294 214 -274 q 117 -307 140 -302 q 68 -315 94 -313 l 43 -210 m 431 1232 l 526 1232 l 612 854 l 500 854 l 457 1069 l 334 854 l 210 854 l 431 1232 z "},"Ÿ":{"ha":785,"x_min":142,"x_max":927,"o":"m 446 484 l 779 1073 l 927 1073 l 498 336 l 452 0 l 309 0 l 357 352 l 142 1073 l 280 1073 l 446 484 m 465 1291 q 456 1250 465 1269 q 433 1215 447 1230 q 402 1192 420 1200 q 366 1183 385 1183 q 336 1189 350 1183 q 311 1206 321 1195 q 295 1231 301 1217 q 290 1263 290 1246 q 298 1305 290 1285 q 320 1341 306 1325 q 353 1365 334 1356 q 391 1375 371 1375 q 444 1352 424 1375 q 465 1295 465 1330 l 465 1291 m 779 1289 q 770 1249 779 1268 q 747 1215 761 1230 q 716 1191 734 1200 q 680 1182 699 1182 q 626 1205 647 1182 q 604 1263 605 1228 q 613 1304 604 1284 q 635 1340 621 1324 q 667 1364 649 1355 q 705 1374 686 1374 q 758 1351 738 1374 q 779 1294 779 1328 l 779 1289 z "},"Ź":{"ha":766,"x_min":60,"x_max":874,"o":"m 874 1073 l 858 956 l 224 113 l 740 113 l 725 0 l 60 0 l 79 134 l 705 963 l 195 963 l 210 1073 l 874 1073 m 631 1182 l 530 1182 l 657 1615 l 844 1615 l 631 1182 z "},"ź":{"ha":587,"x_min":56,"x_max":724,"o":"m 495 668 l 165 668 l 178 774 l 639 774 l 623 652 l 196 106 l 539 106 l 535 0 l 56 0 l 72 123 l 495 668 m 511 887 l 410 887 l 537 1320 l 724 1320 l 511 887 z "},"Ż":{"ha":766,"x_min":60,"x_max":874,"o":"m 874 1073 l 858 956 l 224 113 l 740 113 l 725 0 l 60 0 l 79 134 l 705 963 l 195 963 l 210 1073 l 874 1073 m 638 1198 l 435 1198 l 466 1419 l 668 1419 l 638 1198 z "},"ż":{"ha":587,"x_min":56,"x_max":639,"o":"m 495 668 l 165 668 l 178 774 l 639 774 l 623 652 l 196 106 l 539 106 l 535 0 l 56 0 l 72 123 l 495 668 m 518 903 l 315 903 l 346 1124 l 548 1124 l 518 903 z "},"Ž":{"ha":766,"x_min":60,"x_max":874,"o":"m 874 1073 l 858 956 l 224 113 l 740 113 l 725 0 l 60 0 l 79 134 l 705 963 l 195 963 l 210 1073 l 874 1073 m 630 1204 l 535 1204 l 455 1583 l 566 1583 l 610 1367 l 732 1583 l 857 1583 l 630 1204 z "},"ž":{"ha":587,"x_min":56,"x_max":666,"o":"m 495 668 l 165 668 l 178 774 l 639 774 l 623 652 l 196 106 l 539 106 l 535 0 l 56 0 l 72 123 l 495 668 m 439 858 l 345 858 l 264 1236 l 375 1236 l 419 1021 l 542 1236 l 666 1236 l 439 858 z "},"ƒ":{"ha":511,"x_min":-79,"x_max":646,"o":"m 513 966 q 473 958 491 966 q 439 925 454 949 q 412 856 424 901 q 391 739 400 812 l 589 739 l 581 673 l 382 673 l 309 174 q 268 -13 293 60 q 211 -127 243 -85 q 136 -185 178 -169 q 43 -201 94 -201 q -6 -191 16 -201 q -45 -171 -28 -182 q -70 -150 -61 -159 q -79 -139 -79 -140 l -35 -43 q -15 -62 -27 -53 q 9 -77 -3 -71 q 35 -88 22 -84 q 58 -92 48 -92 q 96 -83 79 -92 q 125 -47 112 -74 q 150 30 139 -20 q 173 163 161 80 l 245 673 l 142 673 l 151 739 l 255 739 q 293 904 269 838 q 350 1009 317 970 q 426 1065 384 1048 q 517 1081 468 1081 q 564 1074 542 1081 q 602 1057 585 1066 q 630 1039 619 1047 q 646 1028 642 1030 l 603 924 q 513 966 564 966 z "},"Ǎ":{"ha":893,"x_min":18,"x_max":874,"o":"m 595 951 l 484 706 l 318 341 l 678 341 l 627 700 l 595 951 m 513 1076 l 709 1076 l 874 0 l 728 0 l 691 262 l 284 262 l 165 0 l 18 0 l 513 1076 m 585 1131 l 490 1131 l 410 1510 l 520 1510 l 564 1294 l 687 1510 l 811 1510 l 585 1131 z "},"ǎ":{"ha":763,"x_min":103,"x_max":772,"o":"m 772 711 l 669 0 l 566 0 l 562 129 q 521 70 545 96 q 469 25 498 43 q 408 -4 441 6 q 340 -14 375 -14 q 231 8 275 -14 q 157 69 186 31 q 116 160 129 108 q 103 272 103 212 q 117 386 103 326 q 157 503 131 446 q 220 612 183 560 q 303 702 257 663 q 402 764 349 741 q 516 787 456 787 q 580 781 547 787 q 644 766 613 775 q 700 746 674 757 q 741 727 725 736 l 772 711 m 238 281 q 272 137 238 181 q 377 92 307 92 q 437 103 408 92 q 489 132 465 115 q 532 168 513 149 q 562 204 551 188 l 630 660 q 618 665 628 661 q 592 672 608 668 q 558 679 577 675 q 522 682 540 682 q 453 667 487 682 q 387 625 418 652 q 328 561 355 598 q 281 479 301 524 q 250 384 261 435 q 238 281 238 334 m 530 861 l 435 861 l 355 1239 l 466 1239 l 510 1023 l 633 1239 l 757 1239 l 530 861 z "},"Ǐ":{"ha":583,"x_min":84,"x_max":680,"o":"m 96 83 l 221 83 l 352 988 l 228 988 l 241 1076 l 635 1076 l 621 988 l 495 988 l 364 83 l 490 83 l 477 0 l 84 0 l 96 83 m 454 1149 l 359 1149 l 279 1527 l 389 1527 l 433 1312 l 556 1527 l 680 1527 l 454 1149 z "},"Ǒ":{"ha":988,"x_min":134,"x_max":1001,"o":"m 1001 694 q 962 402 1001 534 q 854 174 924 269 q 690 26 785 79 q 483 -27 595 -27 q 338 -4 402 -27 q 228 68 273 20 q 158 189 182 116 q 134 361 134 262 q 151 561 134 466 q 200 738 168 656 q 278 885 232 819 q 380 998 323 951 q 505 1069 437 1044 q 648 1095 572 1095 q 807 1067 740 1095 q 917 987 873 1039 q 980 861 960 935 q 1001 694 1001 787 m 852 696 q 840 807 852 757 q 803 894 829 858 q 735 951 777 930 q 633 971 694 971 q 526 947 574 971 q 438 881 477 923 q 370 781 399 838 q 322 655 341 723 q 294 514 303 588 q 284 365 284 440 q 339 162 284 229 q 501 96 394 96 q 608 120 559 96 q 695 184 656 143 q 764 283 734 226 q 812 406 793 340 q 842 547 832 473 q 852 696 852 621 m 648 1131 l 553 1131 l 473 1510 l 583 1510 l 627 1294 l 750 1510 l 874 1510 l 648 1131 z "},"ǒ":{"ha":783,"x_min":104,"x_max":787,"o":"m 104 291 q 114 407 104 348 q 145 522 124 467 q 199 625 167 576 q 277 710 232 673 q 378 767 321 746 q 506 787 435 787 q 640 763 586 787 q 726 696 694 738 q 773 600 759 654 q 787 486 787 545 q 758 294 787 385 q 677 135 730 203 q 550 26 625 66 q 384 -14 475 -14 q 268 7 319 -14 q 180 67 216 28 q 123 163 143 106 q 104 291 104 220 m 401 92 q 484 110 447 92 q 548 156 520 127 q 594 224 575 185 q 626 305 614 262 q 644 392 638 348 q 649 477 649 437 q 641 558 649 521 q 614 623 633 595 q 565 665 595 650 q 490 681 535 681 q 406 662 443 681 q 341 613 369 644 q 294 542 313 582 q 263 459 275 502 q 247 373 252 416 q 241 294 241 330 q 250 214 241 251 q 276 150 258 177 q 326 108 295 123 q 401 92 356 92 m 534 861 l 439 861 l 359 1239 l 469 1239 l 513 1023 l 636 1239 l 760 1239 l 534 861 z "},"Ǔ":{"ha":958,"x_min":125,"x_max":1020,"o":"m 490 89 q 609 109 559 89 q 693 174 659 128 q 751 296 728 220 q 791 485 774 372 l 875 1076 l 1020 1076 l 937 488 q 872 235 916 334 q 769 77 829 136 q 634 -4 709 19 q 475 -27 559 -27 q 327 -2 391 -27 q 217 73 262 23 q 149 196 172 123 q 125 367 125 270 q 125 384 125 375 q 126 405 125 393 q 129 430 127 416 q 133 465 130 445 q 145 557 138 504 q 162 684 152 611 q 185 854 172 758 q 216 1076 199 950 l 361 1076 q 330 851 344 949 q 307 679 317 753 q 289 550 296 604 q 277 454 281 495 q 272 418 274 433 q 270 391 271 403 q 269 371 269 380 q 269 354 269 362 q 280 245 269 294 q 317 162 291 197 q 385 108 342 127 q 490 89 427 89 m 649 1131 l 554 1131 l 474 1510 l 585 1510 l 629 1294 l 751 1510 l 876 1510 l 649 1131 z "},"ǔ":{"ha":795,"x_min":121,"x_max":806,"o":"m 336 774 q 330 734 334 765 q 320 661 326 704 q 307 565 314 617 q 293 461 300 513 q 280 361 286 409 q 269 278 273 313 q 265 249 267 260 q 264 235 264 238 q 274 163 263 192 q 311 111 285 128 q 375 92 336 93 q 480 117 430 93 q 582 189 531 142 l 665 774 l 806 774 l 697 0 l 594 0 q 590 59 592 31 q 586 118 587 87 q 473 20 532 54 q 349 -14 414 -14 q 121 213 121 -14 q 125 261 121 222 q 137 354 130 300 q 149 440 142 395 q 160 529 155 485 q 172 613 166 572 q 181 687 177 654 q 189 743 186 720 q 194 774 193 766 l 336 774 m 549 858 l 454 858 l 374 1236 l 485 1236 l 529 1021 l 652 1236 l 776 1236 l 549 858 z "},"Ǻ":{"ha":893,"x_min":18,"x_max":887,"o":"m 595 951 l 484 706 l 318 341 l 678 341 l 627 700 l 595 951 m 513 1076 l 709 1076 l 874 0 l 728 0 l 691 262 l 284 262 l 165 0 l 18 0 l 513 1076 m 638 1398 q 600 1390 618 1398 q 569 1366 583 1381 q 549 1332 556 1351 q 541 1292 541 1313 q 561 1236 542 1259 q 615 1214 581 1214 q 652 1223 635 1214 q 683 1246 670 1232 q 704 1281 696 1261 q 711 1321 711 1300 q 691 1376 711 1354 q 638 1398 671 1398 m 467 1280 q 482 1352 467 1318 q 522 1412 496 1386 q 579 1452 547 1437 q 648 1467 612 1467 q 703 1456 678 1467 q 747 1427 728 1446 q 775 1384 765 1409 q 787 1331 786 1359 q 773 1258 787 1292 q 733 1199 758 1224 q 676 1159 709 1174 q 606 1145 643 1145 q 551 1155 576 1145 q 507 1183 526 1165 q 478 1225 488 1200 q 467 1280 467 1250 m 673 1510 l 572 1510 l 700 1943 l 887 1943 l 673 1510 z "},"ǻ":{"ha":763,"x_min":103,"x_max":863,"o":"m 772 711 l 669 0 l 566 0 l 562 129 q 521 70 545 96 q 469 25 498 43 q 408 -4 441 6 q 340 -14 375 -14 q 231 8 275 -14 q 157 69 186 31 q 116 160 129 108 q 103 272 103 212 q 117 386 103 326 q 157 503 131 446 q 220 612 183 560 q 303 702 257 663 q 402 764 349 741 q 516 787 456 787 q 580 781 547 787 q 644 766 613 775 q 700 746 674 757 q 741 727 725 736 l 772 711 m 238 281 q 272 137 238 181 q 377 92 307 92 q 437 103 408 92 q 489 132 465 115 q 532 168 513 149 q 562 204 551 188 l 630 660 q 618 665 628 661 q 592 672 608 668 q 558 679 577 675 q 522 682 540 682 q 453 667 487 682 q 387 625 418 652 q 328 561 355 598 q 281 479 301 524 q 250 384 261 435 q 238 281 238 334 m 577 1128 q 539 1119 557 1128 q 508 1095 522 1110 q 488 1061 495 1080 q 480 1021 480 1042 q 500 966 481 988 q 554 943 519 943 q 591 952 574 943 q 622 976 609 961 q 643 1010 635 991 q 650 1050 650 1029 q 630 1105 650 1083 q 577 1128 610 1128 m 406 1009 q 421 1082 406 1048 q 460 1141 435 1116 q 518 1181 486 1166 q 587 1196 551 1196 q 642 1186 617 1196 q 686 1157 667 1175 q 714 1113 704 1138 q 726 1060 725 1088 q 712 987 726 1021 q 672 928 697 954 q 615 889 648 903 q 545 874 582 874 q 490 884 515 874 q 446 912 465 895 q 417 955 427 930 q 406 1009 406 979 m 650 1273 l 549 1273 l 676 1706 l 863 1706 l 650 1273 z "},"Ǽ":{"ha":1337,"x_min":18,"x_max":1373,"o":"m 839 616 l 1258 616 l 1246 518 l 827 518 l 772 118 l 1255 118 l 1241 0 l 625 0 l 658 253 l 332 253 l 173 0 l 18 0 l 711 1073 l 1373 1073 l 1357 958 l 884 958 l 839 616 m 669 345 l 745 909 l 395 345 l 669 345 z "},"ǽ":{"ha":1153,"x_min":103,"x_max":1196,"o":"m 1101 64 q 975 6 1042 26 q 849 -14 909 -14 q 699 20 758 -14 q 608 118 641 54 q 551 66 585 90 q 481 25 518 43 q 407 -3 444 7 q 340 -14 370 -14 q 232 8 277 -14 q 158 67 187 29 q 116 158 130 106 q 103 272 103 210 q 117 388 103 328 q 157 506 131 448 q 220 614 183 563 q 305 704 258 665 q 408 765 352 743 q 526 787 463 787 q 623 778 581 787 q 695 756 665 768 q 742 733 725 744 q 765 720 760 722 q 858 770 808 752 q 966 788 907 788 q 1138 722 1080 788 q 1196 527 1196 656 q 1194 499 1196 514 q 1177 469 1191 484 q 1133 438 1162 454 q 1049 410 1103 423 q 913 385 996 396 q 713 365 831 373 q 707 319 709 341 q 705 279 705 298 q 751 137 705 184 q 879 90 798 90 q 980 112 932 90 q 1078 170 1029 133 l 1101 64 m 238 276 q 273 136 239 179 q 377 92 307 92 q 433 102 404 92 q 490 127 463 112 q 541 160 517 142 q 580 195 564 178 q 574 236 576 215 q 572 281 572 257 q 581 376 572 328 q 604 471 589 425 q 642 562 619 518 q 692 643 664 606 q 679 650 690 644 q 646 663 667 656 q 594 676 625 670 q 526 682 564 682 q 419 649 471 682 q 327 560 368 616 q 262 431 287 505 q 238 276 238 357 m 726 451 q 873 468 813 460 q 972 484 933 476 q 1033 499 1011 492 q 1064 512 1054 506 q 1075 525 1074 519 q 1077 535 1077 530 q 1045 646 1077 609 q 955 684 1013 684 q 874 668 911 684 q 807 622 837 652 q 757 548 778 591 q 726 451 736 505 z "},"Ǿ":{"ha":982,"x_min":135,"x_max":1000,"o":"m 859 699 q 842 828 858 772 q 785 922 825 885 l 428 102 q 463 95 444 97 q 503 93 481 93 q 613 117 563 93 q 702 182 663 140 q 772 281 742 224 q 821 405 802 338 q 850 547 840 473 q 859 699 859 622 m 1000 694 q 964 402 1002 534 q 858 174 926 269 q 695 26 789 79 q 488 -27 600 -27 q 378 -15 429 -27 l 340 -104 l 263 -71 l 300 15 q 179 142 222 58 q 135 361 136 227 q 151 561 134 466 q 198 738 167 656 q 275 885 230 819 q 377 998 320 951 q 501 1069 434 1044 q 644 1095 568 1095 q 762 1080 711 1095 l 804 1177 l 880 1146 l 838 1049 q 961 911 922 1001 q 1000 694 999 821 m 632 975 q 523 951 572 975 q 434 884 473 926 q 365 783 394 842 q 315 657 335 725 q 286 514 296 589 q 277 363 277 439 q 297 230 278 283 q 354 142 315 176 l 712 963 q 632 975 677 975 z "},"ǿ":{"ha":734,"x_min":104,"x_max":749,"o":"m 351 90 q 371 86 361 87 q 391 85 381 85 q 484 110 446 85 q 549 174 523 134 q 591 264 576 214 q 614 365 606 314 q 620 421 618 395 q 621 467 621 448 q 576 627 621 578 l 351 90 m 104 290 q 110 384 103 332 q 134 489 117 435 q 179 592 151 542 q 249 682 207 642 q 348 745 291 721 q 479 768 404 768 q 570 755 526 768 l 618 873 l 667 851 l 620 734 q 714 631 683 697 q 748 478 745 564 q 748 441 749 460 q 747 404 748 422 q 730 304 742 355 q 697 208 718 254 q 646 121 676 162 q 577 51 616 81 q 487 4 537 21 q 375 -14 437 -14 q 313 -7 341 -14 l 265 -123 l 214 -100 l 259 8 q 190 52 219 24 q 142 115 161 79 q 114 195 123 151 q 104 290 104 239 m 531 657 q 471 669 498 669 q 382 648 420 669 q 316 592 344 627 q 272 511 289 557 q 245 414 254 465 q 235 347 237 380 q 232 288 232 315 q 300 110 233 160 l 531 657 z "},"Ș":{"ha":840,"x_min":106,"x_max":852,"o":"m 819 895 q 777 920 804 907 q 717 945 750 933 q 646 964 684 956 q 574 971 609 971 q 458 959 506 971 q 381 924 411 947 q 337 870 351 902 q 323 799 323 838 q 332 752 323 772 q 356 718 340 733 q 396 691 372 703 q 452 667 420 679 l 611 605 q 696 562 659 586 q 758 507 733 538 q 796 437 783 476 q 809 349 809 398 q 785 207 809 275 q 709 86 760 138 q 581 4 659 35 q 396 -27 503 -27 q 303 -20 349 -27 q 219 -3 258 -14 q 151 19 180 7 q 106 43 121 31 l 136 168 q 189 139 161 152 q 248 116 216 125 q 315 101 279 106 q 393 96 351 96 q 595 151 529 96 q 662 321 662 206 q 654 371 662 349 q 631 410 646 393 q 594 440 616 427 q 544 465 572 454 l 373 537 q 289 580 327 556 q 205 663 233 614 q 178 772 178 711 q 209 908 178 848 q 292 1009 240 968 q 410 1073 343 1051 q 549 1095 477 1095 q 640 1089 596 1095 q 723 1073 684 1084 q 795 1049 762 1063 q 852 1019 827 1035 l 819 895 m 295 -321 l 326 -100 l 528 -100 l 498 -319 q 479 -393 494 -362 q 439 -447 463 -425 q 385 -483 416 -469 q 318 -508 353 -498 l 287 -440 q 354 -396 326 -427 q 388 -321 382 -366 l 295 -321 z "},"ș":{"ha":627,"x_min":56,"x_max":644,"o":"m 127 574 q 148 665 127 625 q 205 732 168 705 q 292 773 241 760 q 400 787 342 787 q 469 781 435 787 q 534 763 503 774 q 594 737 566 751 q 644 709 622 723 l 600 614 q 562 635 585 623 q 512 656 539 646 q 456 673 486 667 q 398 680 427 680 q 291 658 330 680 q 251 591 251 635 q 255 559 251 572 q 268 536 259 546 q 292 517 277 526 q 329 500 307 509 l 424 461 q 491 429 458 447 q 549 388 524 412 q 589 334 574 364 q 604 263 604 303 q 580 146 604 198 q 515 59 556 95 q 421 5 475 24 q 308 -14 367 -14 q 225 -6 264 -14 q 155 13 186 1 q 98 39 123 24 q 56 68 73 54 l 99 158 q 133 136 112 148 q 180 115 153 125 q 238 99 206 106 q 305 93 269 93 q 373 102 342 93 q 426 130 404 112 q 460 175 448 148 q 473 236 473 201 q 468 264 473 252 q 453 288 463 277 q 425 309 442 299 q 382 330 408 319 l 283 372 q 215 407 244 389 q 166 449 185 425 q 137 503 146 473 q 127 574 127 533 m 156 -321 l 187 -100 l 389 -100 l 359 -319 q 340 -393 355 -362 q 300 -447 324 -425 q 245 -483 277 -469 q 179 -508 214 -498 l 148 -440 q 215 -396 187 -427 q 249 -321 243 -366 l 156 -321 z "},"ˆ":{"ha":601,"x_min":83,"x_max":484,"o":"m 303 431 l 398 431 l 484 54 l 373 54 l 330 269 l 207 54 l 83 54 l 303 431 z "},"ˇ":{"ha":601,"x_min":136,"x_max":537,"o":"m 311 73 l 216 73 l 136 452 l 246 452 l 290 236 l 413 452 l 537 452 l 311 73 z "},"˘":{"ha":583,"x_min":161,"x_max":525,"o":"m 525 238 q 523 226 524 232 q 519 214 522 220 q 453 101 503 140 q 317 61 404 61 q 198 96 235 61 q 161 195 161 130 q 161 216 160 205 q 163 238 162 227 l 254 238 q 252 218 252 227 q 256 192 252 203 q 268 172 260 180 q 330 141 284 141 q 401 166 374 141 q 435 238 428 191 l 525 238 z "},"˙":{"ha":374,"x_min":66,"x_max":300,"o":"m 270 103 l 66 103 l 98 324 l 300 324 l 270 103 z "},"˚":{"ha":467,"x_min":85,"x_max":405,"o":"m 256 340 q 218 332 236 340 q 188 308 201 323 q 167 274 174 293 q 159 234 159 255 q 179 178 160 201 q 233 156 199 156 q 271 165 253 156 q 301 189 288 174 q 322 223 315 203 q 330 263 330 242 q 309 318 329 296 q 256 340 289 340 m 85 222 q 100 294 85 260 q 140 354 115 328 q 198 394 165 379 q 267 409 231 409 q 321 398 296 409 q 365 369 347 388 q 394 326 383 351 q 405 273 404 301 q 391 200 406 234 q 352 141 376 166 q 294 101 327 116 q 224 87 261 87 q 169 97 195 87 q 125 125 144 107 q 96 167 106 142 q 85 222 85 192 z "},"˛":{"ha":339,"x_min":7,"x_max":314,"o":"m 314 -352 q 277 -361 297 -357 q 237 -367 259 -364 q 190 -370 214 -370 q 125 -363 158 -370 q 67 -338 93 -356 q 24 -289 41 -321 q 7 -208 7 -258 q 16 -160 7 -183 q 38 -118 24 -138 q 70 -80 52 -98 q 106 -48 87 -62 q 205 13 149 -14 l 277 13 q 189 -58 227 -20 q 156 -92 172 -73 q 128 -130 140 -110 q 108 -170 115 -149 q 100 -210 100 -190 q 110 -249 100 -234 q 134 -273 119 -264 q 168 -285 149 -281 q 206 -288 186 -288 q 245 -286 226 -288 q 280 -280 264 -283 q 314 -272 298 -277 l 314 -352 z "},"˜":{"ha":574,"x_min":22,"x_max":555,"o":"m 409 86 q 340 100 374 86 q 277 130 307 113 q 222 159 247 146 q 178 173 197 173 q 160 171 168 173 q 144 161 151 168 q 134 140 138 154 q 129 104 130 127 l 22 104 q 35 183 23 149 q 68 239 47 217 q 117 273 89 262 q 178 283 145 283 q 243 270 214 283 q 300 241 273 257 q 350 211 326 224 q 398 198 374 198 q 418 200 410 198 q 433 210 427 203 q 443 230 439 217 q 447 263 446 243 l 555 263 q 542 181 553 215 q 510 127 530 148 q 464 96 490 106 q 409 86 438 86 z "},"˝":{"ha":1059,"x_min":215,"x_max":859,"o":"m 316 87 l 215 87 l 342 520 l 530 520 l 316 87 m 578 87 l 477 87 l 672 520 l 859 520 l 578 87 z "},"́":{"ha":530,"x_min":184,"x_max":498,"o":"m 285 87 l 184 87 l 311 520 l 498 520 l 285 87 z "},"̆":{"ha":583,"x_min":161,"x_max":525,"o":"m 525 238 q 523 226 524 232 q 519 214 522 220 q 453 101 503 140 q 317 61 404 61 q 198 96 235 61 q 161 195 161 130 q 161 216 160 205 q 163 238 162 227 l 254 238 q 252 218 252 227 q 256 192 252 203 q 268 172 260 180 q 330 141 284 141 q 401 166 374 141 q 435 238 428 191 l 525 238 z "},"Ѐ":{"ha":755,"x_min":85,"x_max":857,"o":"m 714 0 l 85 0 l 237 1076 l 857 1076 l 840 963 l 366 963 l 317 615 l 734 615 l 720 518 l 303 518 l 245 112 l 732 112 l 714 0 m 576 1158 l 505 1158 l 348 1594 l 549 1594 l 576 1158 z "}}}
